M48
; DRILL file {KiCad 9.0.4} date 2026-04-15T22:56:12+0300
; FORMAT={-:-/ absolute / metric / decimal}
; #@! TF.CreationDate,2026-04-15T22:56:12+03:00
; #@! TF.GenerationSoftware,Kicad,Pcbnew,9.0.4
; #@! TF.FileFunction,Plated,1,2,PTH
FMAT,2
METRIC
; #@! TA.AperFunction,Plated,PTH,ComponentDrill
T1C0.800
; #@! TA.AperFunction,Plated,PTH,ComponentDrill
T2C0.900
; #@! TA.AperFunction,Plated,PTH,ComponentDrill
T3C1.000
; #@! TA.AperFunction,Plated,PTH,ComponentDrill
T4C1.100
; #@! TA.AperFunction,Plated,PTH,ComponentDrill
T5C1.400
; #@! TA.AperFunction,Plated,PTH,ComponentDrill
T6C1.500
%
G90
G05
T1
X-23.75Y11.0
X-21.25Y11.0
X-15.5Y17.0
X-15.5Y14.46
X-15.5Y11.92
X-9.5Y18.25
X-9.5Y10.63
X-2.25Y-5.0
X-2.25Y-7.0
X-2.25Y-9.0
X2.25Y-5.0
X2.25Y-7.0
X2.25Y-9.0
X9.5Y18.25
X9.5Y10.63
X21.25Y11.0
X23.75Y11.0
T2
X-16.31Y7.0
X-8.69Y7.0
X9.5Y7.52
X9.5Y4.98
T3
X-29.0Y-15.0
X-29.0Y-17.54
X-23.79Y-7.0
X-23.79Y-9.54
X-23.79Y-12.08
X-23.79Y-14.62
X-23.79Y-17.16
X-23.775Y4.54
X-23.775Y2.0
X-21.25Y-7.0
X-21.25Y-9.54
X-21.25Y-12.08
X-21.25Y-14.62
X-21.25Y-17.16
X21.25Y-7.0
X21.25Y-9.54
X21.25Y-12.08
X21.25Y-14.62
X21.25Y-17.16
X23.79Y-7.0
X23.79Y-9.54
X23.79Y-12.08
X23.79Y-14.62
X23.79Y-17.16
X29.0Y-15.0
X29.0Y-17.54
T4
X15.5Y18.33
X15.5Y8.17
T5
X-47.23Y11.2
X-47.23Y4.85
X-47.23Y-1.5
X-31.0Y11.2
X-31.0Y4.85
X-31.0Y-1.5
X31.0Y11.0
X31.0Y4.65
X31.0Y-1.7
X47.23Y11.0
X47.23Y4.65
X47.23Y-1.7
T6
X-29.0Y-9.0
X-21.25Y17.75
X-13.25Y2.0
X21.25Y17.75
X29.0Y-9.0
T3
G00X-4.8Y7.3
M15
G01X-4.8Y9.5
M16
G05
G00X1.1Y11.8
M15
G01X-1.1Y11.8
M16
G05
G00X1.3Y5.5
M15
G01X-1.3Y5.5
M16
G05
M30
