%TF.GenerationSoftware,KiCad,Pcbnew,9.0.4*%
%TF.CreationDate,2026-04-15T22:56:06+03:00*%
%TF.ProjectId,Twilight_Adapter,5477696c-6967-4687-945f-416461707465,rev?*%
%TF.SameCoordinates,PX8f0d180PY6422c40*%
%TF.FileFunction,Profile,NP*%
%FSLAX45Y45*%
G04 Gerber Fmt 4.5, Leading zero omitted, Abs format (unit mm)*
G04 Created by KiCad (PCBNEW 9.0.4) date 2026-04-15 22:56:06*
%MOMM*%
%LPD*%
G01*
G04 APERTURE LIST*
%TA.AperFunction,Profile*%
%ADD10C,0.050000*%
%TD*%
G04 APERTURE END LIST*
D10*
X-1800000Y-1800000D02*
G75*
G02*
X-2000000Y-2000000I-200000J0D01*
G01*
X-3400000Y-1000000D02*
X-4800000Y-1000000D01*
X3200000Y-1200000D02*
X3200000Y-1800000D01*
X400000Y-800000D02*
G75*
G02*
X600000Y-600000I200000J0D01*
G01*
X4800000Y2000000D02*
X-4800000Y2000000D01*
X-4800000Y-1000000D02*
G75*
G02*
X-5000000Y-800000I0J200000D01*
G01*
X-2000000Y-2000000D02*
X-3000000Y-2000000D01*
X-3400000Y-1000000D02*
G75*
G02*
X-3200000Y-1200000I0J-200000D01*
G01*
X3200000Y-1800000D02*
G75*
G02*
X3000000Y-2000000I-200000J0D01*
G01*
X-600000Y-600000D02*
X-1600000Y-600000D01*
X400000Y-900000D02*
G75*
G02*
X200000Y-1100000I-200000J0D01*
G01*
X5000000Y-800000D02*
G75*
G02*
X4800000Y-1000000I-200000J0D01*
G01*
X-200000Y-1100000D02*
G75*
G02*
X-400000Y-900000I0J200000D01*
G01*
X3000000Y-2000000D02*
X2000000Y-2000000D01*
X-3000000Y-2000000D02*
G75*
G02*
X-3200000Y-1800000I0J200000D01*
G01*
X-5000000Y1800000D02*
X-5000000Y-800000D01*
X3200000Y-1200000D02*
G75*
G02*
X3400000Y-1000000I200000J0D01*
G01*
X1600000Y-600000D02*
X600000Y-600000D01*
X400000Y-800000D02*
X400000Y-900000D01*
X-400000Y-900000D02*
X-400000Y-800000D01*
X4800000Y2000000D02*
G75*
G02*
X5000000Y1800000I0J-200000D01*
G01*
X-1800000Y-800000D02*
X-1800000Y-1100000D01*
X200000Y-1100000D02*
X-200000Y-1100000D01*
X-3200000Y-1200000D02*
X-3200000Y-1800000D01*
X2000000Y-2000000D02*
G75*
G02*
X1800000Y-1800000I0J200000D01*
G01*
X-5000000Y1800000D02*
G75*
G02*
X-4800000Y2000000I200000J0D01*
G01*
X5000000Y-800000D02*
X5000000Y1800000D01*
X-600000Y-600000D02*
G75*
G02*
X-400000Y-800000I0J-200000D01*
G01*
X1600000Y-600000D02*
G75*
G02*
X1800000Y-800000I0J-200000D01*
G01*
X-1800000Y-1100000D02*
X-1800000Y-1800000D01*
X-1800000Y-800000D02*
G75*
G02*
X-1600000Y-600000I200000J0D01*
G01*
X1800000Y-1100000D02*
X1800000Y-800000D01*
X1800000Y-1800000D02*
X1800000Y-1100000D01*
X4800000Y-1000000D02*
X3400000Y-1000000D01*
M02*
