%TF.GenerationSoftware,KiCad,Pcbnew,9.0.4*%
%TF.CreationDate,2026-04-15T22:56:06+03:00*%
%TF.ProjectId,Twilight_Adapter,5477696c-6967-4687-945f-416461707465,rev?*%
%TF.SameCoordinates,PX8f0d180PY6422c40*%
%TF.FileFunction,Legend,Top*%
%TF.FilePolarity,Positive*%
%FSLAX45Y45*%
G04 Gerber Fmt 4.5, Leading zero omitted, Abs format (unit mm)*
G04 Created by KiCad (PCBNEW 9.0.4) date 2026-04-15 22:56:06*
%MOMM*%
%LPD*%
G01*
G04 APERTURE LIST*
%ADD10C,0.200000*%
%ADD11C,0.100000*%
%ADD12C,0.240000*%
%ADD13C,0.140000*%
%ADD14C,0.120000*%
%ADD15C,0.000000*%
%ADD16C,0.254000*%
%ADD17C,3.000000*%
%ADD18R,1.700000X1.700000*%
%ADD19C,1.700000*%
%ADD20R,4.600000X2.000000*%
%ADD21O,4.200000X2.000000*%
%ADD22O,2.000000X4.200000*%
%ADD23C,1.600000*%
%ADD24R,1.800000X1.800000*%
%ADD25C,1.800000*%
%ADD26O,1.300000X1.300000*%
%ADD27C,1.440000*%
%ADD28C,2.200000*%
G04 APERTURE END LIST*
D10*
X-1940000Y-360000D02*
X-2070000Y-360000D01*
X2080000Y-360000D02*
X1950000Y-360000D01*
X2080000Y-360000D02*
G75*
G02*
X2130000Y-410000I0J-50000D01*
G01*
X-2120000Y-410000D02*
X-2120000Y-540000D01*
X405000Y240000D02*
G75*
G02*
X403495Y342330I-80000J50000D01*
G01*
X430000Y315000D02*
X430000Y265000D01*
X405000Y290000D02*
X455000Y290000D01*
X-1557050Y200300D02*
X-1595150Y238400D01*
X-2096800Y200300D02*
X-2173000Y200300D01*
X-1557050Y200300D02*
X-1595150Y162200D01*
X380902Y290000D02*
G75*
G02*
X269098Y290000I-55902J0D01*
G01*
X269098Y290000D02*
G75*
G02*
X380902Y290000I55902J0D01*
G01*
X300000Y290000D02*
X350000Y290000D01*
X-2173000Y200300D02*
X-2134900Y238400D01*
X-1633250Y200300D02*
X-1557050Y200300D01*
X-2120000Y-410000D02*
G75*
G02*
X-2070000Y-360000I50000J0D01*
G01*
X2130000Y-410000D02*
X2130000Y-540000D01*
D11*
X2130000Y-580000D02*
X2090000Y-540000D01*
X2170000Y-540000D01*
X2130000Y-580000D01*
G36*
X2130000Y-580000D02*
G01*
X2090000Y-540000D01*
X2170000Y-540000D01*
X2130000Y-580000D01*
G37*
D10*
X-2173000Y200300D02*
X-2134900Y162200D01*
D11*
X-2120000Y-580000D02*
X-2160000Y-540000D01*
X-2080000Y-540000D01*
X-2120000Y-580000D01*
G36*
X-2120000Y-580000D02*
G01*
X-2160000Y-540000D01*
X-2080000Y-540000D01*
X-2120000Y-580000D01*
G37*
D12*
G36*
X-1976379Y186688D02*
G01*
X-1974044Y184354D01*
X-1970468Y177201D01*
X-1970468Y165724D01*
X-1974044Y158571D01*
X-1977005Y155610D01*
X-1984158Y152034D01*
X-2015039Y152034D01*
X-2015039Y190891D01*
X-1988987Y190891D01*
X-1976379Y186688D01*
G37*
G36*
X-1982719Y244457D02*
G01*
X-1979759Y241497D01*
X-1976182Y234344D01*
X-1976182Y228581D01*
X-1979759Y221428D01*
X-1982719Y218467D01*
X-1989872Y214891D01*
X-2015039Y214891D01*
X-2015039Y248034D01*
X-1989872Y248034D01*
X-1982719Y244457D01*
G37*
G36*
X-1810468Y153165D02*
G01*
X-1812729Y152034D01*
X-1835635Y152034D01*
X-1840952Y154692D01*
X-1843611Y160009D01*
X-1843611Y165773D01*
X-1840952Y171090D01*
X-1835635Y173748D01*
X-1810468Y173748D01*
X-1810468Y153165D01*
G37*
G36*
X-1670277Y114700D02*
G01*
X-2052372Y114700D01*
X-2052372Y260034D01*
X-2039039Y260034D01*
X-2039039Y140034D01*
X-2038809Y137693D01*
X-2037017Y133367D01*
X-2033706Y130056D01*
X-2029380Y128264D01*
X-2027039Y128034D01*
X-1981325Y128034D01*
X-1978984Y128264D01*
X-1978586Y128429D01*
X-1978155Y128460D01*
X-1975958Y129301D01*
X-1964530Y135015D01*
X-1963522Y135649D01*
X-1963230Y135770D01*
X-1962900Y136041D01*
X-1962539Y136268D01*
X-1962332Y136507D01*
X-1961411Y137263D01*
X-1955697Y142977D01*
X-1954942Y143897D01*
X-1954702Y144105D01*
X-1954475Y144466D01*
X-1954204Y144796D01*
X-1954083Y145088D01*
X-1953449Y146096D01*
X-1947735Y157524D01*
X-1946894Y159721D01*
X-1946863Y160152D01*
X-1946698Y160550D01*
X-1946468Y162891D01*
X-1946468Y180034D01*
X-1946698Y182375D01*
X-1946863Y182773D01*
X-1946894Y183203D01*
X-1947735Y185400D01*
X-1953449Y196829D01*
X-1954083Y197837D01*
X-1954204Y198129D01*
X-1954475Y198459D01*
X-1954702Y198820D01*
X-1954942Y199027D01*
X-1955697Y199948D01*
X-1961411Y205662D01*
X-1961506Y205740D01*
X-1961411Y205834D01*
X-1960656Y206755D01*
X-1960416Y206962D01*
X-1960189Y207323D01*
X-1959919Y207653D01*
X-1959797Y207945D01*
X-1959163Y208953D01*
X-1953623Y220034D01*
X-1919039Y220034D01*
X-1919039Y140034D01*
X-1918809Y137693D01*
X-1917017Y133367D01*
X-1913706Y130056D01*
X-1909380Y128264D01*
X-1904698Y128264D01*
X-1900372Y130056D01*
X-1897062Y133367D01*
X-1895270Y137693D01*
X-1895039Y140034D01*
X-1895039Y168605D01*
X-1867611Y168605D01*
X-1867611Y157177D01*
X-1867380Y154836D01*
X-1867215Y154437D01*
X-1867184Y154007D01*
X-1866344Y151810D01*
X-1860629Y140381D01*
X-1860383Y139990D01*
X-1860321Y139805D01*
X-1860122Y139576D01*
X-1859376Y138391D01*
X-1858239Y137405D01*
X-1857254Y136268D01*
X-1856069Y135522D01*
X-1855839Y135323D01*
X-1855655Y135262D01*
X-1855263Y135015D01*
X-1843834Y129301D01*
X-1841637Y128460D01*
X-1841207Y128429D01*
X-1840809Y128264D01*
X-1838468Y128034D01*
X-1809896Y128034D01*
X-1807555Y128264D01*
X-1807157Y128429D01*
X-1806727Y128460D01*
X-1804530Y129301D01*
X-1803977Y129577D01*
X-1800809Y128264D01*
X-1796127Y128264D01*
X-1791801Y130056D01*
X-1788490Y133367D01*
X-1786698Y137693D01*
X-1786468Y140034D01*
X-1786468Y202891D01*
X-1759039Y202891D01*
X-1759039Y197177D01*
X-1758809Y194835D01*
X-1758644Y194437D01*
X-1758613Y194007D01*
X-1757772Y191810D01*
X-1752058Y180381D01*
X-1751811Y179990D01*
X-1751750Y179805D01*
X-1751551Y179576D01*
X-1750805Y178391D01*
X-1749668Y177405D01*
X-1748682Y176268D01*
X-1747497Y175522D01*
X-1747268Y175323D01*
X-1747083Y175261D01*
X-1746691Y175015D01*
X-1735263Y169301D01*
X-1733066Y168460D01*
X-1732636Y168429D01*
X-1732237Y168264D01*
X-1729896Y168034D01*
X-1715586Y168034D01*
X-1710269Y165375D01*
X-1707611Y160058D01*
X-1707611Y160009D01*
X-1710269Y154692D01*
X-1715586Y152034D01*
X-1732778Y152034D01*
X-1741673Y156481D01*
X-1743870Y157322D01*
X-1748540Y157654D01*
X-1752982Y156173D01*
X-1756519Y153105D01*
X-1758613Y148917D01*
X-1758945Y144247D01*
X-1757464Y139805D01*
X-1754396Y136268D01*
X-1752406Y135015D01*
X-1740977Y129301D01*
X-1738780Y128460D01*
X-1738350Y128429D01*
X-1737952Y128264D01*
X-1735611Y128034D01*
X-1712753Y128034D01*
X-1710412Y128264D01*
X-1710014Y128429D01*
X-1709584Y128460D01*
X-1707387Y129301D01*
X-1695958Y135015D01*
X-1695567Y135261D01*
X-1695382Y135323D01*
X-1695152Y135522D01*
X-1693968Y136268D01*
X-1692982Y137405D01*
X-1691845Y138391D01*
X-1691099Y139576D01*
X-1690900Y139805D01*
X-1690838Y139990D01*
X-1690592Y140381D01*
X-1684877Y151810D01*
X-1684037Y154007D01*
X-1684006Y154437D01*
X-1683841Y154836D01*
X-1683611Y157177D01*
X-1683611Y162891D01*
X-1683841Y165232D01*
X-1684006Y165630D01*
X-1684037Y166060D01*
X-1684877Y168257D01*
X-1690592Y179686D01*
X-1690838Y180078D01*
X-1690900Y180262D01*
X-1691099Y180492D01*
X-1691845Y181677D01*
X-1692982Y182663D01*
X-1693967Y183799D01*
X-1695152Y184545D01*
X-1695382Y184745D01*
X-1695567Y184806D01*
X-1695958Y185053D01*
X-1707387Y190767D01*
X-1709584Y191608D01*
X-1710014Y191638D01*
X-1710412Y191803D01*
X-1712753Y192034D01*
X-1727063Y192034D01*
X-1732381Y194692D01*
X-1735039Y200009D01*
X-1735039Y200058D01*
X-1732381Y205375D01*
X-1727063Y208034D01*
X-1715586Y208034D01*
X-1706691Y203586D01*
X-1704494Y202746D01*
X-1699824Y202414D01*
X-1695382Y203894D01*
X-1691845Y206962D01*
X-1689751Y211150D01*
X-1689419Y215820D01*
X-1690900Y220262D01*
X-1693967Y223799D01*
X-1695958Y225053D01*
X-1707387Y230767D01*
X-1709584Y231608D01*
X-1710014Y231638D01*
X-1710412Y231803D01*
X-1712753Y232034D01*
X-1729896Y232034D01*
X-1732237Y231803D01*
X-1732636Y231638D01*
X-1733066Y231608D01*
X-1735263Y230767D01*
X-1746691Y225053D01*
X-1747083Y224806D01*
X-1747268Y224745D01*
X-1747497Y224545D01*
X-1748682Y223799D01*
X-1749668Y222663D01*
X-1750805Y221677D01*
X-1751550Y220492D01*
X-1751750Y220262D01*
X-1751812Y220078D01*
X-1752058Y219686D01*
X-1757772Y208257D01*
X-1758613Y206060D01*
X-1758644Y205630D01*
X-1758809Y205232D01*
X-1759039Y202891D01*
X-1786468Y202891D01*
X-1786698Y205232D01*
X-1786863Y205630D01*
X-1786894Y206060D01*
X-1787735Y208257D01*
X-1793449Y219686D01*
X-1793695Y220078D01*
X-1793757Y220262D01*
X-1793956Y220492D01*
X-1794702Y221677D01*
X-1795839Y222663D01*
X-1796825Y223799D01*
X-1798009Y224545D01*
X-1798239Y224745D01*
X-1798424Y224806D01*
X-1798815Y225053D01*
X-1810244Y230767D01*
X-1812441Y231608D01*
X-1812871Y231638D01*
X-1813269Y231803D01*
X-1815611Y232034D01*
X-1838468Y232034D01*
X-1840809Y231803D01*
X-1841207Y231638D01*
X-1841637Y231608D01*
X-1843834Y230767D01*
X-1855263Y225053D01*
X-1857254Y223799D01*
X-1860321Y220262D01*
X-1861802Y215820D01*
X-1861470Y211150D01*
X-1859376Y206962D01*
X-1855839Y203894D01*
X-1851397Y202414D01*
X-1846727Y202746D01*
X-1844530Y203586D01*
X-1835635Y208034D01*
X-1818443Y208034D01*
X-1813126Y205375D01*
X-1810468Y200058D01*
X-1810468Y198879D01*
X-1812729Y197748D01*
X-1838468Y197748D01*
X-1840809Y197517D01*
X-1841207Y197352D01*
X-1841637Y197322D01*
X-1843834Y196481D01*
X-1855263Y190767D01*
X-1855655Y190520D01*
X-1855839Y190459D01*
X-1856069Y190260D01*
X-1857254Y189514D01*
X-1858239Y188377D01*
X-1859376Y187391D01*
X-1860122Y186206D01*
X-1860321Y185977D01*
X-1860383Y185792D01*
X-1860629Y185400D01*
X-1866344Y173972D01*
X-1867184Y171775D01*
X-1867215Y171345D01*
X-1867380Y170946D01*
X-1867611Y168605D01*
X-1895039Y168605D01*
X-1895039Y220034D01*
X-1895270Y222375D01*
X-1897062Y226701D01*
X-1900372Y230011D01*
X-1904698Y231803D01*
X-1909380Y231803D01*
X-1913706Y230011D01*
X-1917017Y226701D01*
X-1918809Y222375D01*
X-1919039Y220034D01*
X-1953623Y220034D01*
X-1953449Y220381D01*
X-1952608Y222578D01*
X-1952578Y223008D01*
X-1952413Y223407D01*
X-1952182Y225748D01*
X-1952182Y237177D01*
X-1952413Y239518D01*
X-1952578Y239916D01*
X-1952608Y240346D01*
X-1953449Y242543D01*
X-1959163Y253972D01*
X-1959797Y254979D01*
X-1959919Y255272D01*
X-1960189Y255602D01*
X-1960416Y255963D01*
X-1960656Y256170D01*
X-1961058Y256661D01*
X-1924523Y256661D01*
X-1924523Y251978D01*
X-1922731Y247653D01*
X-1921239Y245834D01*
X-1915524Y240120D01*
X-1913706Y238628D01*
X-1909380Y236836D01*
X-1904698Y236836D01*
X-1900372Y238628D01*
X-1898554Y240120D01*
X-1892840Y245834D01*
X-1891347Y247653D01*
X-1889556Y251978D01*
X-1889556Y256661D01*
X-1891347Y260986D01*
X-1891347Y260986D01*
X-1892840Y262805D01*
X-1898554Y268519D01*
X-1900372Y270011D01*
X-1904698Y271803D01*
X-1909380Y271803D01*
X-1913706Y270011D01*
X-1915524Y268519D01*
X-1921239Y262805D01*
X-1922731Y260986D01*
X-1922731Y260986D01*
X-1924523Y256661D01*
X-1961058Y256661D01*
X-1961411Y257090D01*
X-1967125Y262805D01*
X-1968046Y263560D01*
X-1968253Y263799D01*
X-1968614Y264027D01*
X-1968944Y264297D01*
X-1969236Y264418D01*
X-1970244Y265053D01*
X-1981673Y270767D01*
X-1983870Y271608D01*
X-1984300Y271638D01*
X-1984698Y271803D01*
X-1987039Y272034D01*
X-2027039Y272034D01*
X-2029380Y271803D01*
X-2033706Y270011D01*
X-2037017Y266701D01*
X-2038809Y262375D01*
X-2039039Y260034D01*
X-2052372Y260034D01*
X-2052372Y285367D01*
X-1670277Y285367D01*
X-1670277Y114700D01*
G37*
G36*
X-1602000Y-357397D02*
G01*
X-1602000Y-411135D01*
X-1604261Y-412266D01*
X-1621453Y-412266D01*
X-1628606Y-408690D01*
X-1631566Y-405729D01*
X-1635143Y-398576D01*
X-1635143Y-369956D01*
X-1631566Y-362803D01*
X-1628606Y-359843D01*
X-1621453Y-356266D01*
X-1604261Y-356266D01*
X-1602000Y-357397D01*
G37*
G36*
X-1564667Y-449599D02*
G01*
X-1901048Y-449599D01*
X-1901048Y-355695D01*
X-1887714Y-355695D01*
X-1887714Y-372838D01*
X-1887674Y-373246D01*
X-1887700Y-373421D01*
X-1887571Y-374297D01*
X-1887484Y-375179D01*
X-1887416Y-375342D01*
X-1887356Y-375748D01*
X-1881642Y-398605D01*
X-1881580Y-398778D01*
X-1881574Y-398864D01*
X-1881202Y-399837D01*
X-1880850Y-400820D01*
X-1880799Y-400890D01*
X-1880733Y-401061D01*
X-1875019Y-412490D01*
X-1874385Y-413497D01*
X-1874263Y-413790D01*
X-1873993Y-414120D01*
X-1873766Y-414481D01*
X-1873526Y-414688D01*
X-1872771Y-415609D01*
X-1861342Y-427037D01*
X-1859524Y-428530D01*
X-1859126Y-428695D01*
X-1858800Y-428977D01*
X-1856652Y-429936D01*
X-1839509Y-435650D01*
X-1838348Y-435914D01*
X-1838055Y-436036D01*
X-1837631Y-436077D01*
X-1837215Y-436172D01*
X-1836899Y-436149D01*
X-1835714Y-436266D01*
X-1824286Y-436266D01*
X-1823101Y-436149D01*
X-1822785Y-436172D01*
X-1822369Y-436077D01*
X-1821945Y-436036D01*
X-1821652Y-435914D01*
X-1820491Y-435650D01*
X-1803348Y-429936D01*
X-1801200Y-428977D01*
X-1800874Y-428694D01*
X-1800476Y-428530D01*
X-1798658Y-427037D01*
X-1792943Y-421323D01*
X-1791451Y-419504D01*
X-1791151Y-418780D01*
X-1789659Y-415179D01*
X-1789429Y-412838D01*
X-1789429Y-372838D01*
X-1789659Y-370497D01*
X-1791451Y-366171D01*
X-1794762Y-362860D01*
X-1799087Y-361068D01*
X-1801429Y-360838D01*
X-1824286Y-360838D01*
X-1826627Y-361068D01*
X-1830952Y-362860D01*
X-1834263Y-366171D01*
X-1836055Y-370497D01*
X-1836055Y-375179D01*
X-1834263Y-379504D01*
X-1830952Y-382815D01*
X-1826627Y-384607D01*
X-1824286Y-384838D01*
X-1813429Y-384838D01*
X-1813429Y-407867D01*
X-1813625Y-408064D01*
X-1826233Y-412266D01*
X-1833767Y-412266D01*
X-1846375Y-408064D01*
X-1854423Y-400015D01*
X-1858678Y-391506D01*
X-1863714Y-371360D01*
X-1863714Y-357172D01*
X-1860488Y-344266D01*
X-1762000Y-344266D01*
X-1762000Y-424266D01*
X-1761769Y-426607D01*
X-1759978Y-430933D01*
X-1756667Y-434244D01*
X-1752341Y-436036D01*
X-1747659Y-436036D01*
X-1743333Y-434244D01*
X-1740022Y-430933D01*
X-1738231Y-426607D01*
X-1738000Y-424266D01*
X-1738000Y-360665D01*
X-1737177Y-359843D01*
X-1730024Y-356266D01*
X-1718547Y-356266D01*
X-1713230Y-358925D01*
X-1710571Y-364242D01*
X-1710571Y-424266D01*
X-1710341Y-426607D01*
X-1708549Y-430933D01*
X-1705238Y-434244D01*
X-1700912Y-436036D01*
X-1696230Y-436036D01*
X-1691905Y-434244D01*
X-1688594Y-430933D01*
X-1686802Y-426607D01*
X-1686571Y-424266D01*
X-1686571Y-367123D01*
X-1659143Y-367123D01*
X-1659143Y-401409D01*
X-1658912Y-403750D01*
X-1658747Y-404149D01*
X-1658717Y-404579D01*
X-1657876Y-406776D01*
X-1652162Y-418204D01*
X-1651527Y-419212D01*
X-1651406Y-419504D01*
X-1651136Y-419834D01*
X-1650908Y-420195D01*
X-1650669Y-420403D01*
X-1649914Y-421323D01*
X-1644200Y-427037D01*
X-1643279Y-427793D01*
X-1643072Y-428032D01*
X-1642711Y-428259D01*
X-1642381Y-428530D01*
X-1642088Y-428651D01*
X-1641081Y-429285D01*
X-1629652Y-434999D01*
X-1627455Y-435840D01*
X-1627025Y-435870D01*
X-1626627Y-436036D01*
X-1624286Y-436266D01*
X-1601429Y-436266D01*
X-1599087Y-436036D01*
X-1598689Y-435871D01*
X-1598259Y-435840D01*
X-1596062Y-434999D01*
X-1595510Y-434723D01*
X-1592341Y-436036D01*
X-1587659Y-436036D01*
X-1583333Y-434244D01*
X-1580022Y-430933D01*
X-1578231Y-426607D01*
X-1578000Y-424266D01*
X-1578000Y-304266D01*
X-1578231Y-301925D01*
X-1580022Y-297599D01*
X-1583333Y-294289D01*
X-1587659Y-292497D01*
X-1592341Y-292497D01*
X-1596667Y-294289D01*
X-1599978Y-297599D01*
X-1601769Y-301925D01*
X-1602000Y-304266D01*
X-1602000Y-332266D01*
X-1624286Y-332266D01*
X-1626627Y-332497D01*
X-1627025Y-332662D01*
X-1627455Y-332692D01*
X-1629652Y-333533D01*
X-1641081Y-339247D01*
X-1642089Y-339882D01*
X-1642381Y-340003D01*
X-1642711Y-340273D01*
X-1643072Y-340501D01*
X-1643279Y-340740D01*
X-1644200Y-341495D01*
X-1649914Y-347210D01*
X-1650669Y-348130D01*
X-1650908Y-348337D01*
X-1651136Y-348699D01*
X-1651406Y-349028D01*
X-1651527Y-349321D01*
X-1652162Y-350328D01*
X-1657876Y-361757D01*
X-1658717Y-363954D01*
X-1658747Y-364384D01*
X-1658912Y-364782D01*
X-1659143Y-367123D01*
X-1686571Y-367123D01*
X-1686571Y-361409D01*
X-1686802Y-359068D01*
X-1686967Y-358670D01*
X-1686997Y-358240D01*
X-1687838Y-356043D01*
X-1693553Y-344614D01*
X-1693799Y-344222D01*
X-1693861Y-344038D01*
X-1694060Y-343808D01*
X-1694806Y-342623D01*
X-1695943Y-341637D01*
X-1696928Y-340501D01*
X-1698113Y-339755D01*
X-1698343Y-339555D01*
X-1698528Y-339494D01*
X-1698919Y-339247D01*
X-1710348Y-333533D01*
X-1712545Y-332692D01*
X-1712975Y-332662D01*
X-1713373Y-332497D01*
X-1715714Y-332266D01*
X-1732857Y-332266D01*
X-1735198Y-332497D01*
X-1735597Y-332662D01*
X-1736027Y-332692D01*
X-1738224Y-333533D01*
X-1742134Y-335488D01*
X-1743333Y-334289D01*
X-1747659Y-332497D01*
X-1752341Y-332497D01*
X-1756667Y-334289D01*
X-1759978Y-337599D01*
X-1761769Y-341925D01*
X-1762000Y-344266D01*
X-1860488Y-344266D01*
X-1858678Y-337026D01*
X-1854423Y-328517D01*
X-1846375Y-320469D01*
X-1833767Y-316266D01*
X-1821404Y-316266D01*
X-1812509Y-320714D01*
X-1810312Y-321554D01*
X-1805642Y-321886D01*
X-1801200Y-320406D01*
X-1797663Y-317338D01*
X-1795569Y-313150D01*
X-1795237Y-308480D01*
X-1796718Y-304038D01*
X-1799785Y-300501D01*
X-1801776Y-299247D01*
X-1813205Y-293533D01*
X-1815402Y-292692D01*
X-1815832Y-292662D01*
X-1816230Y-292497D01*
X-1818571Y-292266D01*
X-1835714Y-292266D01*
X-1836899Y-292383D01*
X-1837215Y-292360D01*
X-1837631Y-292455D01*
X-1838055Y-292497D01*
X-1838348Y-292618D01*
X-1839509Y-292882D01*
X-1856652Y-298596D01*
X-1858800Y-299555D01*
X-1859126Y-299838D01*
X-1859524Y-300003D01*
X-1861342Y-301495D01*
X-1872771Y-312924D01*
X-1873526Y-313844D01*
X-1873766Y-314052D01*
X-1873993Y-314412D01*
X-1874263Y-314742D01*
X-1874385Y-315035D01*
X-1875019Y-316043D01*
X-1880733Y-327471D01*
X-1880799Y-327642D01*
X-1880850Y-327712D01*
X-1881202Y-328696D01*
X-1881574Y-329668D01*
X-1881580Y-329754D01*
X-1881642Y-329927D01*
X-1887356Y-352784D01*
X-1887416Y-353190D01*
X-1887484Y-353354D01*
X-1887571Y-354235D01*
X-1887700Y-355111D01*
X-1887674Y-355286D01*
X-1887714Y-355695D01*
X-1901048Y-355695D01*
X-1901048Y-278933D01*
X-1564667Y-278933D01*
X-1564667Y-449599D01*
G37*
D10*
G36*
X-373066Y341593D02*
G01*
X-369647Y338174D01*
X-365714Y330308D01*
X-365714Y306458D01*
X-369647Y298592D01*
X-373066Y295173D01*
X-380932Y291240D01*
X-399068Y291240D01*
X-406934Y295173D01*
X-410353Y298592D01*
X-414286Y306458D01*
X-414286Y330308D01*
X-410353Y338174D01*
X-406934Y341593D01*
X-399068Y345526D01*
X-380932Y345526D01*
X-373066Y341593D01*
G37*
G36*
X158969Y212192D02*
G01*
X-447619Y212192D01*
X-447619Y332669D01*
X-434286Y332669D01*
X-434286Y304097D01*
X-434094Y302146D01*
X-433956Y301814D01*
X-433931Y301456D01*
X-433230Y299625D01*
X-427516Y288196D01*
X-426987Y287357D01*
X-426886Y287113D01*
X-426661Y286839D01*
X-426471Y286537D01*
X-426272Y286364D01*
X-425642Y285598D01*
X-419928Y279883D01*
X-419162Y279254D01*
X-418988Y279054D01*
X-418687Y278865D01*
X-418413Y278640D01*
X-418169Y278539D01*
X-417329Y278010D01*
X-405901Y272296D01*
X-404070Y271595D01*
X-403712Y271570D01*
X-403379Y271432D01*
X-401429Y271240D01*
X-378571Y271240D01*
X-376620Y271432D01*
X-376288Y271570D01*
X-375930Y271595D01*
X-374099Y272296D01*
X-369056Y274817D01*
X-370710Y268203D01*
X-380628Y253325D01*
X-384495Y249459D01*
X-392361Y245526D01*
X-412857Y245526D01*
X-414808Y245334D01*
X-418413Y243840D01*
X-421172Y241081D01*
X-422665Y237477D01*
X-422665Y233575D01*
X-421172Y229970D01*
X-418413Y227211D01*
X-414808Y225718D01*
X-412857Y225526D01*
X-390000Y225526D01*
X-388049Y225718D01*
X-387717Y225855D01*
X-387359Y225881D01*
X-385528Y226581D01*
X-374099Y232296D01*
X-373260Y232824D01*
X-373016Y232925D01*
X-372741Y233151D01*
X-372440Y233340D01*
X-372267Y233539D01*
X-371500Y234169D01*
X-365786Y239883D01*
X-365782Y239888D01*
X-365779Y239891D01*
X-365157Y240650D01*
X-364542Y241398D01*
X-364541Y241402D01*
X-364537Y241407D01*
X-353108Y258550D01*
X-352534Y259627D01*
X-352387Y259826D01*
X-352303Y260060D01*
X-352186Y260280D01*
X-352138Y260522D01*
X-351727Y261672D01*
X-346347Y283191D01*
X-314094Y283191D01*
X-314094Y279289D01*
X-312600Y275684D01*
X-309841Y272925D01*
X-306237Y271432D01*
X-304286Y271240D01*
X-212857Y271240D01*
X-210906Y271432D01*
X-207301Y272925D01*
X-204542Y275684D01*
X-203049Y279289D01*
X-203049Y283191D01*
X-204542Y286796D01*
X-207301Y289555D01*
X-210906Y291048D01*
X-212857Y291240D01*
X-304286Y291240D01*
X-306237Y291048D01*
X-309841Y289555D01*
X-312600Y286796D01*
X-314094Y283191D01*
X-346347Y283191D01*
X-346013Y284529D01*
X-345963Y284867D01*
X-345906Y285003D01*
X-345834Y285739D01*
X-345726Y286468D01*
X-345748Y286614D01*
X-345714Y286954D01*
X-345714Y322491D01*
X-171350Y322491D01*
X-171074Y318599D01*
X-169329Y315109D01*
X-166381Y312552D01*
X-162679Y311319D01*
X-158787Y311595D01*
X-156957Y312296D01*
X-145528Y318010D01*
X-144688Y318539D01*
X-144444Y318640D01*
X-144170Y318865D01*
X-143869Y319054D01*
X-143696Y319254D01*
X-142929Y319883D01*
X-137143Y325669D01*
X-137143Y245526D01*
X-161429Y245526D01*
X-163380Y245334D01*
X-166984Y243840D01*
X-169743Y241081D01*
X-171237Y237477D01*
X-171237Y233575D01*
X-169743Y229970D01*
X-166984Y227211D01*
X-163380Y225718D01*
X-161429Y225526D01*
X-92857Y225526D01*
X-90906Y225718D01*
X-87302Y227211D01*
X-84543Y229970D01*
X-83049Y233575D01*
X-83049Y237477D01*
X-62665Y237477D01*
X-62665Y233575D01*
X-61172Y229970D01*
X-58413Y227211D01*
X-54808Y225718D01*
X-52857Y225526D01*
X21429Y225526D01*
X23379Y225718D01*
X26984Y227211D01*
X29743Y229970D01*
X31236Y233575D01*
X31236Y237477D01*
X29743Y241081D01*
X26984Y243840D01*
X23379Y245334D01*
X21429Y245526D01*
X-28715Y245526D01*
X22785Y297026D01*
X24029Y298542D01*
X24166Y298873D01*
X24402Y299145D01*
X25201Y300935D01*
X30915Y318078D01*
X31135Y319045D01*
X31236Y319289D01*
X31271Y319643D01*
X31350Y319989D01*
X31331Y320253D01*
X31428Y321240D01*
X31428Y332669D01*
X31236Y334620D01*
X31099Y334952D01*
X31073Y335310D01*
X30373Y337141D01*
X24658Y348569D01*
X24130Y349409D01*
X24029Y349653D01*
X23804Y349927D01*
X23614Y350228D01*
X23414Y350402D01*
X22785Y351168D01*
X19679Y354275D01*
X45793Y354275D01*
X46227Y352363D01*
X86227Y232363D01*
X87027Y230573D01*
X87495Y230034D01*
X87814Y229395D01*
X88761Y228573D01*
X89583Y227626D01*
X90222Y227306D01*
X90762Y226838D01*
X91952Y226442D01*
X93073Y225881D01*
X93786Y225830D01*
X94463Y225604D01*
X95714Y225693D01*
X96965Y225604D01*
X97643Y225830D01*
X98355Y225881D01*
X99477Y226442D01*
X100666Y226838D01*
X101206Y227306D01*
X101845Y227626D01*
X102667Y228573D01*
X103614Y229395D01*
X103933Y230033D01*
X104402Y230573D01*
X105201Y232363D01*
X145201Y352363D01*
X145636Y354275D01*
X145359Y358167D01*
X143614Y361657D01*
X140667Y364213D01*
X136965Y365447D01*
X133073Y365171D01*
X129583Y363426D01*
X127026Y360478D01*
X126227Y358688D01*
X95714Y267149D01*
X65201Y358688D01*
X64402Y360478D01*
X61845Y363426D01*
X58355Y365171D01*
X54463Y365447D01*
X50762Y364213D01*
X47814Y361657D01*
X46069Y358167D01*
X45793Y354275D01*
X19679Y354275D01*
X17071Y356882D01*
X16304Y357512D01*
X16131Y357711D01*
X15830Y357901D01*
X15556Y358126D01*
X15312Y358227D01*
X14472Y358756D01*
X3043Y364470D01*
X1213Y365171D01*
X854Y365196D01*
X522Y365334D01*
X-1429Y365526D01*
X-30000Y365526D01*
X-31951Y365334D01*
X-32283Y365196D01*
X-32641Y365171D01*
X-34472Y364470D01*
X-45901Y358756D01*
X-46740Y358227D01*
X-46984Y358126D01*
X-47259Y357901D01*
X-47560Y357711D01*
X-47733Y357512D01*
X-48500Y356882D01*
X-54214Y351168D01*
X-55458Y349653D01*
X-56951Y346048D01*
X-56951Y342146D01*
X-55458Y338542D01*
X-52699Y335783D01*
X-49094Y334289D01*
X-45192Y334289D01*
X-41587Y335783D01*
X-40072Y337026D01*
X-35505Y341593D01*
X-27639Y345526D01*
X-3789Y345526D01*
X4076Y341593D01*
X7495Y338174D01*
X11428Y330308D01*
X11428Y322863D01*
X6974Y309499D01*
X-59928Y242597D01*
X-61172Y241081D01*
X-62665Y237477D01*
X-83049Y237477D01*
X-84543Y241081D01*
X-87302Y243840D01*
X-90906Y245334D01*
X-92857Y245526D01*
X-117143Y245526D01*
X-117143Y355526D01*
X-117144Y355533D01*
X-117143Y355536D01*
X-117145Y355546D01*
X-117335Y357477D01*
X-117714Y358392D01*
X-117908Y359362D01*
X-118453Y360176D01*
X-118828Y361081D01*
X-119528Y361781D01*
X-120079Y362604D01*
X-120895Y363148D01*
X-121587Y363840D01*
X-122502Y364219D01*
X-123326Y364769D01*
X-124287Y364959D01*
X-125192Y365334D01*
X-126182Y365334D01*
X-127153Y365526D01*
X-128114Y365334D01*
X-129094Y365334D01*
X-130009Y364955D01*
X-130979Y364761D01*
X-131794Y364215D01*
X-132699Y363840D01*
X-133399Y363141D01*
X-134221Y362589D01*
X-135450Y361089D01*
X-135458Y361081D01*
X-135459Y361078D01*
X-135463Y361073D01*
X-146343Y344754D01*
X-155924Y335173D01*
X-165901Y330184D01*
X-167560Y329140D01*
X-170116Y326192D01*
X-171350Y322491D01*
X-345714Y322491D01*
X-345714Y332669D01*
X-345906Y334620D01*
X-346044Y334952D01*
X-346069Y335310D01*
X-346770Y337141D01*
X-352484Y348569D01*
X-353013Y349409D01*
X-353114Y349653D01*
X-353339Y349927D01*
X-353529Y350228D01*
X-353728Y350402D01*
X-354357Y351168D01*
X-360072Y356882D01*
X-360838Y357512D01*
X-361012Y357711D01*
X-361313Y357901D01*
X-361587Y358126D01*
X-361831Y358227D01*
X-362671Y358756D01*
X-374099Y364470D01*
X-375930Y365171D01*
X-376288Y365196D01*
X-376620Y365334D01*
X-378571Y365526D01*
X-401429Y365526D01*
X-403379Y365334D01*
X-403712Y365196D01*
X-404070Y365171D01*
X-405901Y364470D01*
X-417329Y358756D01*
X-418169Y358227D01*
X-418413Y358126D01*
X-418687Y357901D01*
X-418988Y357711D01*
X-419162Y357512D01*
X-419928Y356882D01*
X-425642Y351168D01*
X-426272Y350402D01*
X-426471Y350228D01*
X-426661Y349927D01*
X-426886Y349653D01*
X-426987Y349409D01*
X-427516Y348569D01*
X-433230Y337141D01*
X-433931Y335310D01*
X-433956Y334952D01*
X-434094Y334620D01*
X-434286Y332669D01*
X-447619Y332669D01*
X-447619Y378859D01*
X158969Y378859D01*
X158969Y212192D01*
G37*
D12*
G36*
X1916668Y-442099D02*
G01*
X1591904Y-442099D01*
X1591904Y-298267D01*
X1605237Y-298267D01*
X1605759Y-300561D01*
X1645759Y-420561D01*
X1646718Y-422709D01*
X1647279Y-423357D01*
X1647663Y-424124D01*
X1648800Y-425109D01*
X1649785Y-426246D01*
X1650552Y-426629D01*
X1651200Y-427191D01*
X1652628Y-427667D01*
X1653973Y-428340D01*
X1654828Y-428401D01*
X1655642Y-428672D01*
X1657143Y-428565D01*
X1658644Y-428672D01*
X1659457Y-428401D01*
X1660312Y-428340D01*
X1661658Y-427667D01*
X1663086Y-427191D01*
X1663733Y-426629D01*
X1664500Y-426246D01*
X1665486Y-425109D01*
X1666623Y-424123D01*
X1667006Y-423357D01*
X1667568Y-422709D01*
X1668527Y-420561D01*
X1688840Y-359623D01*
X1719429Y-359623D01*
X1719429Y-393909D01*
X1719659Y-396250D01*
X1719824Y-396649D01*
X1719855Y-397079D01*
X1720695Y-399276D01*
X1726410Y-410704D01*
X1727044Y-411712D01*
X1727165Y-412004D01*
X1727436Y-412334D01*
X1727663Y-412695D01*
X1727902Y-412903D01*
X1728658Y-413823D01*
X1734372Y-419537D01*
X1735292Y-420293D01*
X1735500Y-420532D01*
X1735861Y-420759D01*
X1736190Y-421030D01*
X1736483Y-421151D01*
X1737491Y-421785D01*
X1748919Y-427499D01*
X1751116Y-428340D01*
X1751546Y-428370D01*
X1751945Y-428536D01*
X1754286Y-428766D01*
X1777143Y-428766D01*
X1779484Y-428536D01*
X1779882Y-428371D01*
X1780312Y-428340D01*
X1782509Y-427499D01*
X1793938Y-421785D01*
X1795929Y-420532D01*
X1798996Y-416995D01*
X1800477Y-412553D01*
X1800145Y-407883D01*
X1798051Y-403695D01*
X1794514Y-400627D01*
X1790072Y-399146D01*
X1785402Y-399478D01*
X1783205Y-400319D01*
X1774310Y-404766D01*
X1757118Y-404766D01*
X1749966Y-401190D01*
X1747005Y-398229D01*
X1743429Y-391076D01*
X1743429Y-362456D01*
X1744845Y-359623D01*
X1822286Y-359623D01*
X1822286Y-393909D01*
X1822516Y-396250D01*
X1822681Y-396649D01*
X1822712Y-397079D01*
X1823553Y-399276D01*
X1829267Y-410704D01*
X1829901Y-411712D01*
X1830022Y-412004D01*
X1830293Y-412334D01*
X1830520Y-412695D01*
X1830759Y-412903D01*
X1831515Y-413823D01*
X1837229Y-419537D01*
X1838149Y-420293D01*
X1838357Y-420532D01*
X1838718Y-420759D01*
X1839047Y-421030D01*
X1839340Y-421151D01*
X1840348Y-421785D01*
X1851776Y-427499D01*
X1853973Y-428340D01*
X1854403Y-428370D01*
X1854802Y-428536D01*
X1857143Y-428766D01*
X1880000Y-428766D01*
X1882341Y-428536D01*
X1882739Y-428371D01*
X1883169Y-428340D01*
X1885366Y-427499D01*
X1896795Y-421785D01*
X1898786Y-420532D01*
X1901854Y-416995D01*
X1903334Y-412553D01*
X1903002Y-407883D01*
X1900908Y-403695D01*
X1897371Y-400627D01*
X1892929Y-399146D01*
X1888259Y-399478D01*
X1886062Y-400319D01*
X1877167Y-404766D01*
X1859976Y-404766D01*
X1852823Y-401190D01*
X1849862Y-398229D01*
X1846286Y-391076D01*
X1846286Y-362456D01*
X1849862Y-355303D01*
X1852823Y-352343D01*
X1859976Y-348766D01*
X1877167Y-348766D01*
X1886062Y-353214D01*
X1888259Y-354054D01*
X1892929Y-354386D01*
X1897371Y-352906D01*
X1900908Y-349838D01*
X1903002Y-345650D01*
X1903334Y-340980D01*
X1901854Y-336538D01*
X1898786Y-333001D01*
X1896795Y-331747D01*
X1885367Y-326033D01*
X1883169Y-325192D01*
X1882739Y-325162D01*
X1882341Y-324997D01*
X1880000Y-324766D01*
X1857143Y-324766D01*
X1854802Y-324997D01*
X1854403Y-325162D01*
X1853973Y-325192D01*
X1851776Y-326033D01*
X1840348Y-331747D01*
X1839340Y-332382D01*
X1839047Y-332503D01*
X1838718Y-332773D01*
X1838357Y-333001D01*
X1838149Y-333240D01*
X1837229Y-333995D01*
X1831515Y-339710D01*
X1830759Y-340630D01*
X1830520Y-340837D01*
X1830293Y-341199D01*
X1830022Y-341528D01*
X1829901Y-341821D01*
X1829267Y-342828D01*
X1823553Y-354257D01*
X1822712Y-356454D01*
X1822681Y-356884D01*
X1822516Y-357282D01*
X1822286Y-359623D01*
X1744845Y-359623D01*
X1747005Y-355303D01*
X1749966Y-352343D01*
X1757118Y-348766D01*
X1774310Y-348766D01*
X1783205Y-353214D01*
X1785402Y-354054D01*
X1790072Y-354386D01*
X1794514Y-352906D01*
X1798051Y-349838D01*
X1800145Y-345650D01*
X1800477Y-340980D01*
X1798997Y-336538D01*
X1795929Y-333001D01*
X1793938Y-331747D01*
X1782509Y-326033D01*
X1780312Y-325192D01*
X1779882Y-325162D01*
X1779484Y-324997D01*
X1777143Y-324766D01*
X1754286Y-324766D01*
X1751945Y-324997D01*
X1751546Y-325162D01*
X1751116Y-325192D01*
X1748919Y-326033D01*
X1737491Y-331747D01*
X1736483Y-332382D01*
X1736190Y-332503D01*
X1735861Y-332773D01*
X1735500Y-333001D01*
X1735292Y-333240D01*
X1734372Y-333995D01*
X1728658Y-339710D01*
X1727902Y-340630D01*
X1727663Y-340837D01*
X1727436Y-341199D01*
X1727165Y-341528D01*
X1727044Y-341821D01*
X1726410Y-342828D01*
X1720695Y-354257D01*
X1719855Y-356454D01*
X1719824Y-356884D01*
X1719659Y-357282D01*
X1719429Y-359623D01*
X1688840Y-359623D01*
X1708527Y-300561D01*
X1709049Y-298267D01*
X1708717Y-293597D01*
X1706623Y-289409D01*
X1703086Y-286341D01*
X1698644Y-284861D01*
X1693973Y-285192D01*
X1689785Y-287286D01*
X1686718Y-290823D01*
X1685759Y-292972D01*
X1657143Y-378819D01*
X1628527Y-292972D01*
X1627568Y-290823D01*
X1624500Y-287286D01*
X1620312Y-285192D01*
X1615642Y-284860D01*
X1611200Y-286341D01*
X1607663Y-289409D01*
X1605569Y-293597D01*
X1605237Y-298267D01*
X1591904Y-298267D01*
X1591904Y-271527D01*
X1916668Y-271527D01*
X1916668Y-442099D01*
G37*
G36*
X2979619Y-1289369D02*
G01*
X2820381Y-1289369D01*
X2820381Y-1144266D01*
X2833714Y-1144266D01*
X2833714Y-1264266D01*
X2833945Y-1266607D01*
X2835737Y-1270933D01*
X2839047Y-1274244D01*
X2843373Y-1276036D01*
X2848055Y-1276036D01*
X2852381Y-1274244D01*
X2855692Y-1270933D01*
X2857484Y-1266607D01*
X2857714Y-1264266D01*
X2857714Y-1184266D01*
X2890857Y-1184266D01*
X2890857Y-1264266D01*
X2891088Y-1266607D01*
X2892880Y-1270933D01*
X2896190Y-1274244D01*
X2900516Y-1276036D01*
X2905198Y-1276036D01*
X2909524Y-1274244D01*
X2912835Y-1270933D01*
X2914627Y-1266607D01*
X2914857Y-1264266D01*
X2914857Y-1200665D01*
X2915680Y-1199843D01*
X2922833Y-1196266D01*
X2934310Y-1196266D01*
X2939627Y-1198925D01*
X2942286Y-1204242D01*
X2942286Y-1264266D01*
X2942516Y-1266607D01*
X2944308Y-1270933D01*
X2947619Y-1274244D01*
X2951945Y-1276036D01*
X2956627Y-1276036D01*
X2960953Y-1274244D01*
X2964263Y-1270933D01*
X2966055Y-1266607D01*
X2966286Y-1264266D01*
X2966286Y-1201409D01*
X2966055Y-1199068D01*
X2965890Y-1198670D01*
X2965860Y-1198240D01*
X2965019Y-1196043D01*
X2959305Y-1184614D01*
X2959058Y-1184222D01*
X2958997Y-1184038D01*
X2958797Y-1183808D01*
X2958051Y-1182623D01*
X2956915Y-1181637D01*
X2955929Y-1180501D01*
X2954744Y-1179755D01*
X2954514Y-1179555D01*
X2954329Y-1179494D01*
X2953938Y-1179247D01*
X2942509Y-1173533D01*
X2940312Y-1172692D01*
X2939882Y-1172662D01*
X2939484Y-1172497D01*
X2937143Y-1172266D01*
X2920000Y-1172266D01*
X2917659Y-1172497D01*
X2917260Y-1172662D01*
X2916830Y-1172692D01*
X2914633Y-1173533D01*
X2910723Y-1175488D01*
X2909524Y-1174289D01*
X2905198Y-1172497D01*
X2900516Y-1172497D01*
X2896190Y-1174289D01*
X2892880Y-1177599D01*
X2891088Y-1181925D01*
X2890857Y-1184266D01*
X2857714Y-1184266D01*
X2857714Y-1144266D01*
X2857484Y-1141925D01*
X2855692Y-1137599D01*
X2852381Y-1134289D01*
X2848055Y-1132497D01*
X2843373Y-1132497D01*
X2839047Y-1134289D01*
X2835737Y-1137599D01*
X2833945Y-1141925D01*
X2833714Y-1144266D01*
X2820381Y-1144266D01*
X2820381Y-1119164D01*
X2979619Y-1119164D01*
X2979619Y-1289369D01*
G37*
G36*
X-4812823Y1755157D02*
G01*
X-4805121Y1747456D01*
X-4800571Y1729256D01*
X-4800571Y1692211D01*
X-4805121Y1674012D01*
X-4812823Y1666310D01*
X-4819976Y1662734D01*
X-4837167Y1662734D01*
X-4844320Y1666310D01*
X-4852022Y1674012D01*
X-4856571Y1692211D01*
X-4856571Y1729257D01*
X-4852022Y1747456D01*
X-4844320Y1755157D01*
X-4837167Y1758734D01*
X-4819976Y1758734D01*
X-4812823Y1755157D01*
G37*
G36*
X-4574897Y1625400D02*
G01*
X-4893905Y1625400D01*
X-4893905Y1730734D01*
X-4880571Y1730734D01*
X-4880571Y1690734D01*
X-4880531Y1690325D01*
X-4880557Y1690150D01*
X-4880428Y1689274D01*
X-4880341Y1688393D01*
X-4880273Y1688229D01*
X-4880213Y1687823D01*
X-4874499Y1664966D01*
X-4873707Y1662751D01*
X-4873176Y1662034D01*
X-4872835Y1661210D01*
X-4871342Y1659391D01*
X-4859914Y1647963D01*
X-4858993Y1647207D01*
X-4858786Y1646968D01*
X-4858425Y1646741D01*
X-4858095Y1646470D01*
X-4857803Y1646349D01*
X-4856795Y1645715D01*
X-4845367Y1640001D01*
X-4843170Y1639160D01*
X-4842740Y1639129D01*
X-4842341Y1638964D01*
X-4840000Y1638734D01*
X-4817143Y1638734D01*
X-4814802Y1638964D01*
X-4814404Y1639129D01*
X-4813973Y1639160D01*
X-4811776Y1640001D01*
X-4800348Y1645715D01*
X-4799340Y1646349D01*
X-4799048Y1646470D01*
X-4798718Y1646741D01*
X-4798357Y1646968D01*
X-4798150Y1647207D01*
X-4797229Y1647963D01*
X-4785800Y1659391D01*
X-4784308Y1661210D01*
X-4783967Y1662034D01*
X-4783436Y1662751D01*
X-4782644Y1664966D01*
X-4776930Y1687823D01*
X-4776870Y1688229D01*
X-4776802Y1688393D01*
X-4776715Y1689274D01*
X-4776586Y1690150D01*
X-4776612Y1690325D01*
X-4776571Y1690734D01*
X-4776571Y1730734D01*
X-4749143Y1730734D01*
X-4749143Y1667877D01*
X-4748912Y1665535D01*
X-4748747Y1665137D01*
X-4748717Y1664707D01*
X-4747876Y1662510D01*
X-4742162Y1651081D01*
X-4741915Y1650690D01*
X-4741854Y1650505D01*
X-4741654Y1650275D01*
X-4740908Y1649091D01*
X-4739772Y1648105D01*
X-4738786Y1646968D01*
X-4737601Y1646222D01*
X-4737371Y1646023D01*
X-4737187Y1645961D01*
X-4736795Y1645715D01*
X-4725367Y1640001D01*
X-4723170Y1639160D01*
X-4722740Y1639129D01*
X-4722341Y1638964D01*
X-4720000Y1638734D01*
X-4702857Y1638734D01*
X-4700516Y1638964D01*
X-4700118Y1639129D01*
X-4699688Y1639160D01*
X-4697491Y1640001D01*
X-4693581Y1641956D01*
X-4692381Y1640756D01*
X-4688055Y1638964D01*
X-4683373Y1638964D01*
X-4679047Y1640756D01*
X-4675737Y1644067D01*
X-4673945Y1648393D01*
X-4673714Y1650734D01*
X-4673714Y1730734D01*
X-4673945Y1733075D01*
X-4657484Y1733075D01*
X-4657484Y1728393D01*
X-4655692Y1724067D01*
X-4652381Y1720756D01*
X-4648055Y1718964D01*
X-4645714Y1718734D01*
X-4640571Y1718734D01*
X-4640571Y1667877D01*
X-4640341Y1665535D01*
X-4640176Y1665137D01*
X-4640145Y1664707D01*
X-4639305Y1662510D01*
X-4633590Y1651081D01*
X-4633344Y1650690D01*
X-4633282Y1650505D01*
X-4633083Y1650275D01*
X-4632337Y1649091D01*
X-4631200Y1648105D01*
X-4630214Y1646968D01*
X-4629030Y1646222D01*
X-4628800Y1646023D01*
X-4628615Y1645961D01*
X-4628224Y1645715D01*
X-4616795Y1640001D01*
X-4614598Y1639160D01*
X-4614168Y1639129D01*
X-4613770Y1638964D01*
X-4611429Y1638734D01*
X-4600000Y1638734D01*
X-4597659Y1638964D01*
X-4593333Y1640756D01*
X-4590022Y1644067D01*
X-4588231Y1648393D01*
X-4588231Y1653075D01*
X-4590022Y1657401D01*
X-4593333Y1660711D01*
X-4597659Y1662503D01*
X-4600000Y1662734D01*
X-4608596Y1662734D01*
X-4613913Y1665392D01*
X-4616571Y1670709D01*
X-4616571Y1718734D01*
X-4600000Y1718734D01*
X-4597659Y1718964D01*
X-4593333Y1720756D01*
X-4590022Y1724067D01*
X-4588231Y1728393D01*
X-4588231Y1733075D01*
X-4590022Y1737401D01*
X-4593333Y1740711D01*
X-4597659Y1742503D01*
X-4600000Y1742734D01*
X-4616571Y1742734D01*
X-4616571Y1770734D01*
X-4616802Y1773075D01*
X-4618594Y1777401D01*
X-4621905Y1780711D01*
X-4626230Y1782503D01*
X-4630913Y1782503D01*
X-4635238Y1780711D01*
X-4638549Y1777401D01*
X-4640341Y1773075D01*
X-4640571Y1770734D01*
X-4640571Y1742734D01*
X-4645714Y1742734D01*
X-4648055Y1742503D01*
X-4652381Y1740711D01*
X-4655692Y1737401D01*
X-4657484Y1733075D01*
X-4673945Y1733075D01*
X-4675737Y1737401D01*
X-4679047Y1740711D01*
X-4683373Y1742503D01*
X-4688055Y1742503D01*
X-4692381Y1740711D01*
X-4695692Y1737401D01*
X-4697484Y1733075D01*
X-4697714Y1730734D01*
X-4697714Y1667133D01*
X-4698537Y1666310D01*
X-4705690Y1662734D01*
X-4717167Y1662734D01*
X-4722484Y1665392D01*
X-4725143Y1670709D01*
X-4725143Y1730734D01*
X-4725373Y1733075D01*
X-4727165Y1737401D01*
X-4730476Y1740711D01*
X-4734802Y1742503D01*
X-4739484Y1742503D01*
X-4743810Y1740711D01*
X-4747120Y1737401D01*
X-4748912Y1733075D01*
X-4749143Y1730734D01*
X-4776571Y1730734D01*
X-4776612Y1731142D01*
X-4776586Y1731317D01*
X-4776715Y1732193D01*
X-4776802Y1733075D01*
X-4776870Y1733238D01*
X-4776930Y1733644D01*
X-4782644Y1756501D01*
X-4783436Y1758717D01*
X-4783967Y1759434D01*
X-4784308Y1760258D01*
X-4785800Y1762076D01*
X-4797229Y1773505D01*
X-4798149Y1774260D01*
X-4798357Y1774499D01*
X-4798718Y1774727D01*
X-4799048Y1774997D01*
X-4799340Y1775118D01*
X-4800348Y1775753D01*
X-4811776Y1781467D01*
X-4813973Y1782308D01*
X-4814403Y1782338D01*
X-4814802Y1782503D01*
X-4817143Y1782734D01*
X-4840000Y1782734D01*
X-4842341Y1782503D01*
X-4842740Y1782338D01*
X-4843170Y1782308D01*
X-4845367Y1781467D01*
X-4856795Y1775753D01*
X-4857803Y1775118D01*
X-4858095Y1774997D01*
X-4858425Y1774727D01*
X-4858786Y1774499D01*
X-4858994Y1774260D01*
X-4859914Y1773505D01*
X-4871342Y1762076D01*
X-4872835Y1760258D01*
X-4873176Y1759434D01*
X-4873707Y1758717D01*
X-4874499Y1756501D01*
X-4880213Y1733644D01*
X-4880273Y1733238D01*
X-4880341Y1733075D01*
X-4880428Y1732193D01*
X-4880557Y1731317D01*
X-4880531Y1731142D01*
X-4880571Y1730734D01*
X-4893905Y1730734D01*
X-4893905Y1796067D01*
X-4574897Y1796067D01*
X-4574897Y1625400D01*
G37*
D10*
G36*
X979689Y282358D02*
G01*
X982857Y276022D01*
X982857Y275152D01*
X945714Y267724D01*
X945714Y276022D01*
X948882Y282358D01*
X955218Y285526D01*
X973354Y285526D01*
X979689Y282358D01*
G37*
G36*
X1216176Y192192D02*
G01*
X683810Y192192D01*
X683810Y284097D01*
X697143Y284097D01*
X697143Y266954D01*
X697176Y266614D01*
X697155Y266468D01*
X697263Y265739D01*
X697335Y265003D01*
X697391Y264867D01*
X697442Y264529D01*
X703156Y241672D01*
X703207Y241528D01*
X703212Y241456D01*
X703523Y240645D01*
X703815Y239826D01*
X703858Y239768D01*
X703913Y239625D01*
X709627Y228196D01*
X710156Y227357D01*
X710257Y227113D01*
X710482Y226838D01*
X710671Y226537D01*
X710871Y226364D01*
X711500Y225598D01*
X722929Y214169D01*
X724444Y212925D01*
X724776Y212788D01*
X725048Y212552D01*
X726838Y211753D01*
X743981Y206039D01*
X744948Y205819D01*
X745192Y205718D01*
X745546Y205683D01*
X745892Y205604D01*
X746155Y205623D01*
X747143Y205526D01*
X758571Y205526D01*
X759559Y205623D01*
X759822Y205604D01*
X760168Y205683D01*
X760522Y205718D01*
X760767Y205819D01*
X761734Y206039D01*
X778877Y211753D01*
X780667Y212552D01*
X780938Y212788D01*
X781270Y212925D01*
X782785Y214169D01*
X788500Y219883D01*
X789743Y221398D01*
X791236Y225003D01*
X791236Y228905D01*
X789743Y232510D01*
X786984Y235269D01*
X783379Y236762D01*
X779478Y236762D01*
X775873Y235269D01*
X774357Y234025D01*
X770312Y229980D01*
X756949Y225526D01*
X748766Y225526D01*
X735402Y229980D01*
X726790Y238592D01*
X722292Y247588D01*
X717143Y268185D01*
X717143Y282866D01*
X722292Y303464D01*
X726790Y312460D01*
X735402Y321071D01*
X748766Y325526D01*
X756949Y325526D01*
X770312Y321071D01*
X774357Y317026D01*
X775873Y315783D01*
X779478Y314289D01*
X783379Y314289D01*
X786984Y315783D01*
X789743Y318542D01*
X791236Y322146D01*
X791236Y326048D01*
X789743Y329653D01*
X788500Y331168D01*
X784142Y335526D01*
X822857Y335526D01*
X822857Y215526D01*
X823049Y213575D01*
X824542Y209970D01*
X827301Y207211D01*
X830906Y205718D01*
X834808Y205718D01*
X838413Y207211D01*
X841172Y209970D01*
X842665Y213575D01*
X842857Y215526D01*
X842857Y279955D01*
X844495Y281593D01*
X852361Y285526D01*
X864782Y285526D01*
X871118Y282358D01*
X874286Y276022D01*
X874286Y215526D01*
X874478Y213575D01*
X875971Y209970D01*
X878730Y207211D01*
X882335Y205718D01*
X886237Y205718D01*
X889841Y207211D01*
X892600Y209970D01*
X894094Y213575D01*
X894286Y215526D01*
X894286Y278383D01*
X925714Y278383D01*
X925714Y232669D01*
X925906Y230718D01*
X926044Y230386D01*
X926069Y230027D01*
X926770Y228196D01*
X932484Y216768D01*
X932690Y216441D01*
X932741Y216288D01*
X932907Y216096D01*
X933529Y215109D01*
X934476Y214287D01*
X935297Y213340D01*
X936285Y212719D01*
X936476Y212552D01*
X936630Y212501D01*
X936956Y212296D01*
X948385Y206581D01*
X950216Y205881D01*
X950574Y205855D01*
X950906Y205718D01*
X952857Y205526D01*
X975714Y205526D01*
X977665Y205718D01*
X977997Y205855D01*
X978355Y205881D01*
X980186Y206581D01*
X991615Y212296D01*
X993274Y213340D01*
X995830Y216288D01*
X997064Y219989D01*
X996788Y223881D01*
X995043Y227371D01*
X992095Y229928D01*
X988394Y231161D01*
X984502Y230885D01*
X982671Y230184D01*
X973354Y225526D01*
X955218Y225526D01*
X948882Y228694D01*
X945714Y235029D01*
X945714Y247328D01*
X994808Y257146D01*
X994808Y257146D01*
X994808Y257147D01*
X994818Y257148D01*
X996694Y257719D01*
X997508Y258265D01*
X998413Y258640D01*
X999113Y259340D01*
X999936Y259891D01*
X1000479Y260706D01*
X1001172Y261399D01*
X1001551Y262313D01*
X1002100Y263137D01*
X1002290Y264098D01*
X1002665Y265003D01*
X1002857Y266954D01*
X1002857Y272669D01*
X1028571Y272669D01*
X1028571Y238383D01*
X1028763Y236432D01*
X1028901Y236100D01*
X1028926Y235742D01*
X1029627Y233911D01*
X1035341Y222482D01*
X1035870Y221642D01*
X1035971Y221399D01*
X1036196Y221124D01*
X1036386Y220823D01*
X1036585Y220650D01*
X1037215Y219883D01*
X1042929Y214169D01*
X1043696Y213539D01*
X1043869Y213340D01*
X1044169Y213151D01*
X1044444Y212925D01*
X1044688Y212824D01*
X1045528Y212296D01*
X1056956Y206581D01*
X1058787Y205881D01*
X1059146Y205855D01*
X1059478Y205718D01*
X1061429Y205526D01*
X1084286Y205526D01*
X1086237Y205718D01*
X1086569Y205855D01*
X1086927Y205881D01*
X1088758Y206581D01*
X1100186Y212296D01*
X1101845Y213340D01*
X1104402Y216288D01*
X1105636Y219989D01*
X1105359Y223881D01*
X1103614Y227371D01*
X1100667Y229928D01*
X1096965Y231161D01*
X1093073Y230885D01*
X1091242Y230184D01*
X1081925Y225526D01*
X1063789Y225526D01*
X1055924Y229459D01*
X1052504Y232878D01*
X1048571Y240744D01*
X1048571Y270308D01*
X1052504Y278174D01*
X1055923Y281593D01*
X1063789Y285526D01*
X1081925Y285526D01*
X1091242Y280867D01*
X1093073Y280167D01*
X1096965Y279890D01*
X1100667Y281124D01*
X1103614Y283680D01*
X1105359Y287170D01*
X1105636Y291062D01*
X1104402Y294764D01*
X1101846Y297712D01*
X1100187Y298756D01*
X1088758Y304470D01*
X1086927Y305171D01*
X1086569Y305196D01*
X1086237Y305334D01*
X1084286Y305526D01*
X1061429Y305526D01*
X1059478Y305334D01*
X1059146Y305196D01*
X1058787Y305171D01*
X1056956Y304470D01*
X1045528Y298756D01*
X1044688Y298227D01*
X1044444Y298126D01*
X1044170Y297901D01*
X1043869Y297712D01*
X1043695Y297512D01*
X1042929Y296883D01*
X1037215Y291168D01*
X1036585Y290402D01*
X1036386Y290228D01*
X1036196Y289927D01*
X1035971Y289653D01*
X1035870Y289409D01*
X1035341Y288569D01*
X1029627Y277141D01*
X1028926Y275310D01*
X1028901Y274952D01*
X1028763Y274620D01*
X1028571Y272669D01*
X1002857Y272669D01*
X1002857Y278383D01*
X1002665Y280334D01*
X1002527Y280666D01*
X1002502Y281024D01*
X1001801Y282855D01*
X996087Y294284D01*
X995882Y294610D01*
X995830Y294764D01*
X995664Y294955D01*
X995043Y295943D01*
X994096Y296764D01*
X993274Y297712D01*
X992287Y298333D01*
X992095Y298499D01*
X991941Y298550D01*
X991615Y298756D01*
X980186Y304470D01*
X978356Y305171D01*
X977997Y305196D01*
X977665Y305334D01*
X975714Y305526D01*
X952857Y305526D01*
X950906Y305334D01*
X950574Y305196D01*
X950216Y305171D01*
X948385Y304470D01*
X936956Y298756D01*
X936630Y298550D01*
X936476Y298499D01*
X936285Y298333D01*
X935297Y297712D01*
X934476Y296764D01*
X933529Y295943D01*
X932907Y294955D01*
X932741Y294764D01*
X932690Y294610D01*
X932484Y294284D01*
X926770Y282855D01*
X926069Y281024D01*
X926044Y280666D01*
X925906Y280334D01*
X925714Y278383D01*
X894286Y278383D01*
X894094Y280334D01*
X893956Y280666D01*
X893931Y281024D01*
X893230Y282855D01*
X887516Y294284D01*
X887310Y294610D01*
X887259Y294764D01*
X887093Y294955D01*
X886471Y295943D01*
X885524Y296764D01*
X884703Y297712D01*
X883715Y298333D01*
X883524Y298499D01*
X883370Y298550D01*
X883044Y298756D01*
X871615Y304470D01*
X869784Y305171D01*
X869426Y305196D01*
X869094Y305334D01*
X867143Y305526D01*
X850000Y305526D01*
X848049Y305334D01*
X847717Y305196D01*
X847359Y305171D01*
X845528Y304470D01*
X842857Y303135D01*
X842857Y335526D01*
X1137143Y335526D01*
X1137143Y215526D01*
X1137335Y213575D01*
X1138828Y209970D01*
X1141587Y207211D01*
X1145192Y205718D01*
X1149094Y205718D01*
X1152699Y207211D01*
X1155458Y209970D01*
X1156951Y213575D01*
X1157143Y215526D01*
X1157143Y245669D01*
X1157489Y246016D01*
X1184857Y209526D01*
X1186181Y208080D01*
X1189539Y206092D01*
X1193401Y205541D01*
X1197181Y206509D01*
X1200303Y208850D01*
X1202291Y212207D01*
X1202842Y216070D01*
X1201874Y219850D01*
X1200857Y221526D01*
X1171775Y260302D01*
X1199928Y288455D01*
X1201172Y289970D01*
X1202665Y293575D01*
X1202665Y297477D01*
X1201172Y301082D01*
X1198413Y303841D01*
X1194808Y305334D01*
X1190906Y305334D01*
X1187301Y303841D01*
X1185786Y302597D01*
X1157143Y273954D01*
X1157143Y335526D01*
X1156951Y337477D01*
X1155458Y341082D01*
X1152699Y343841D01*
X1149094Y345334D01*
X1145192Y345334D01*
X1141587Y343841D01*
X1138828Y341082D01*
X1137335Y337477D01*
X1137143Y335526D01*
X842857Y335526D01*
X842665Y337477D01*
X841172Y341082D01*
X838413Y343841D01*
X834808Y345334D01*
X830906Y345334D01*
X827301Y343841D01*
X824542Y341082D01*
X823049Y337477D01*
X822857Y335526D01*
X784142Y335526D01*
X782785Y336883D01*
X781270Y338126D01*
X780938Y338264D01*
X780667Y338499D01*
X778877Y339298D01*
X761734Y345013D01*
X760766Y345233D01*
X760522Y345334D01*
X760169Y345369D01*
X759822Y345447D01*
X759559Y345429D01*
X758571Y345526D01*
X747143Y345526D01*
X746155Y345429D01*
X745892Y345447D01*
X745546Y345369D01*
X745192Y345334D01*
X744948Y345233D01*
X743981Y345013D01*
X726838Y339298D01*
X725048Y338499D01*
X724776Y338264D01*
X724444Y338126D01*
X722929Y336883D01*
X711500Y325454D01*
X710871Y324687D01*
X710671Y324514D01*
X710482Y324213D01*
X710257Y323939D01*
X710156Y323695D01*
X709627Y322855D01*
X703913Y311426D01*
X703858Y311284D01*
X703815Y311226D01*
X703523Y310407D01*
X703212Y309596D01*
X703207Y309524D01*
X703156Y309380D01*
X697442Y286523D01*
X697391Y286185D01*
X697335Y286048D01*
X697263Y285313D01*
X697155Y284583D01*
X697176Y284438D01*
X697143Y284097D01*
X683810Y284097D01*
X683810Y358859D01*
X1216176Y358859D01*
X1216176Y192192D01*
G37*
G36*
X-2395000Y1863631D02*
G01*
X-2395000Y1807420D01*
X-2398789Y1805526D01*
X-2416925Y1805526D01*
X-2424791Y1809459D01*
X-2428210Y1812878D01*
X-2432143Y1820744D01*
X-2432143Y1850308D01*
X-2428210Y1858174D01*
X-2424791Y1861593D01*
X-2416925Y1865526D01*
X-2398789Y1865526D01*
X-2395000Y1863631D01*
G37*
G36*
X-2361667Y1772192D02*
G01*
X-2694048Y1772192D01*
X-2694048Y1864097D01*
X-2680714Y1864097D01*
X-2680714Y1846954D01*
X-2680681Y1846614D01*
X-2680703Y1846468D01*
X-2680595Y1845738D01*
X-2680522Y1845003D01*
X-2680466Y1844867D01*
X-2680416Y1844529D01*
X-2674701Y1821672D01*
X-2674650Y1821528D01*
X-2674645Y1821456D01*
X-2674335Y1820645D01*
X-2674042Y1819826D01*
X-2673999Y1819768D01*
X-2673944Y1819625D01*
X-2668230Y1808196D01*
X-2667702Y1807357D01*
X-2667601Y1807113D01*
X-2667375Y1806838D01*
X-2667186Y1806537D01*
X-2666986Y1806364D01*
X-2666357Y1805598D01*
X-2654928Y1794169D01*
X-2653413Y1792925D01*
X-2653081Y1792788D01*
X-2652810Y1792552D01*
X-2651019Y1791753D01*
X-2633877Y1786039D01*
X-2632909Y1785819D01*
X-2632665Y1785718D01*
X-2632312Y1785683D01*
X-2631965Y1785604D01*
X-2631702Y1785623D01*
X-2630714Y1785526D01*
X-2619286Y1785526D01*
X-2618298Y1785623D01*
X-2618035Y1785604D01*
X-2617689Y1785683D01*
X-2617335Y1785718D01*
X-2617091Y1785819D01*
X-2616124Y1786039D01*
X-2598981Y1791753D01*
X-2597191Y1792552D01*
X-2596919Y1792788D01*
X-2596587Y1792925D01*
X-2595072Y1794169D01*
X-2589358Y1799883D01*
X-2588114Y1801398D01*
X-2587274Y1803426D01*
X-2586621Y1805003D01*
X-2586429Y1806954D01*
X-2586429Y1846954D01*
X-2586621Y1848905D01*
X-2588114Y1852510D01*
X-2590873Y1855269D01*
X-2594478Y1856762D01*
X-2596429Y1856954D01*
X-2619286Y1856954D01*
X-2621237Y1856762D01*
X-2624841Y1855269D01*
X-2627600Y1852510D01*
X-2629094Y1848905D01*
X-2629094Y1845003D01*
X-2627600Y1841399D01*
X-2624841Y1838640D01*
X-2621237Y1837146D01*
X-2619286Y1836954D01*
X-2606429Y1836954D01*
X-2606429Y1811096D01*
X-2607545Y1809980D01*
X-2620908Y1805526D01*
X-2629092Y1805526D01*
X-2642455Y1809980D01*
X-2651067Y1818592D01*
X-2655565Y1827588D01*
X-2660714Y1848185D01*
X-2660714Y1862866D01*
X-2657549Y1875526D01*
X-2555000Y1875526D01*
X-2555000Y1795526D01*
X-2554808Y1793575D01*
X-2553315Y1789970D01*
X-2550556Y1787211D01*
X-2546951Y1785718D01*
X-2543049Y1785718D01*
X-2539444Y1787211D01*
X-2536685Y1789970D01*
X-2535192Y1793575D01*
X-2535000Y1795526D01*
X-2535000Y1859955D01*
X-2533362Y1861593D01*
X-2525497Y1865526D01*
X-2513075Y1865526D01*
X-2506739Y1862358D01*
X-2503571Y1856022D01*
X-2503571Y1795526D01*
X-2503379Y1793575D01*
X-2501886Y1789970D01*
X-2499127Y1787211D01*
X-2495522Y1785718D01*
X-2491621Y1785718D01*
X-2488016Y1787211D01*
X-2485257Y1789970D01*
X-2483764Y1793575D01*
X-2483571Y1795526D01*
X-2483571Y1852669D01*
X-2452143Y1852669D01*
X-2452143Y1818383D01*
X-2451951Y1816432D01*
X-2451813Y1816100D01*
X-2451788Y1815742D01*
X-2451087Y1813911D01*
X-2445373Y1802482D01*
X-2444844Y1801642D01*
X-2444743Y1801399D01*
X-2444518Y1801124D01*
X-2444329Y1800823D01*
X-2444129Y1800650D01*
X-2443500Y1799883D01*
X-2437785Y1794169D01*
X-2437019Y1793539D01*
X-2436845Y1793340D01*
X-2436545Y1793151D01*
X-2436270Y1792925D01*
X-2436026Y1792824D01*
X-2435186Y1792296D01*
X-2423758Y1786581D01*
X-2421927Y1785881D01*
X-2421569Y1785855D01*
X-2421237Y1785718D01*
X-2419286Y1785526D01*
X-2396429Y1785526D01*
X-2394478Y1785718D01*
X-2394146Y1785855D01*
X-2393787Y1785881D01*
X-2391957Y1786581D01*
X-2390603Y1787258D01*
X-2390556Y1787211D01*
X-2386951Y1785718D01*
X-2383049Y1785718D01*
X-2379444Y1787211D01*
X-2376685Y1789970D01*
X-2375192Y1793575D01*
X-2375000Y1795526D01*
X-2375000Y1915526D01*
X-2375192Y1917477D01*
X-2376685Y1921081D01*
X-2379444Y1923840D01*
X-2383049Y1925334D01*
X-2386951Y1925334D01*
X-2390556Y1923840D01*
X-2393315Y1921081D01*
X-2394808Y1917477D01*
X-2395000Y1915526D01*
X-2395000Y1885385D01*
X-2396429Y1885526D01*
X-2419286Y1885526D01*
X-2421237Y1885334D01*
X-2421569Y1885196D01*
X-2421927Y1885171D01*
X-2423758Y1884470D01*
X-2435187Y1878756D01*
X-2436026Y1878227D01*
X-2436270Y1878126D01*
X-2436545Y1877901D01*
X-2436846Y1877711D01*
X-2437019Y1877512D01*
X-2437785Y1876882D01*
X-2443500Y1871168D01*
X-2444129Y1870402D01*
X-2444329Y1870228D01*
X-2444518Y1869927D01*
X-2444743Y1869653D01*
X-2444844Y1869409D01*
X-2445373Y1868569D01*
X-2451087Y1857141D01*
X-2451788Y1855310D01*
X-2451813Y1854952D01*
X-2451951Y1854619D01*
X-2452143Y1852669D01*
X-2483571Y1852669D01*
X-2483571Y1858383D01*
X-2483764Y1860334D01*
X-2483901Y1860666D01*
X-2483927Y1861024D01*
X-2484627Y1862855D01*
X-2490341Y1874284D01*
X-2490547Y1874610D01*
X-2490598Y1874764D01*
X-2490764Y1874955D01*
X-2491386Y1875943D01*
X-2492333Y1876764D01*
X-2493155Y1877711D01*
X-2494142Y1878333D01*
X-2494333Y1878499D01*
X-2494487Y1878550D01*
X-2494814Y1878756D01*
X-2506242Y1884470D01*
X-2508073Y1885171D01*
X-2508431Y1885196D01*
X-2508763Y1885334D01*
X-2510714Y1885526D01*
X-2527857Y1885526D01*
X-2529808Y1885334D01*
X-2530140Y1885196D01*
X-2530499Y1885171D01*
X-2532329Y1884470D01*
X-2537492Y1881889D01*
X-2539444Y1883840D01*
X-2543049Y1885334D01*
X-2546951Y1885334D01*
X-2550556Y1883840D01*
X-2553315Y1881081D01*
X-2554808Y1877477D01*
X-2555000Y1875526D01*
X-2657549Y1875526D01*
X-2655565Y1883464D01*
X-2651067Y1892459D01*
X-2642455Y1901071D01*
X-2629092Y1905526D01*
X-2615932Y1905526D01*
X-2606615Y1900867D01*
X-2604784Y1900167D01*
X-2600892Y1899890D01*
X-2597191Y1901124D01*
X-2594243Y1903680D01*
X-2592498Y1907170D01*
X-2592221Y1911062D01*
X-2593455Y1914764D01*
X-2596012Y1917711D01*
X-2597671Y1918756D01*
X-2609099Y1924470D01*
X-2610930Y1925171D01*
X-2611289Y1925196D01*
X-2611621Y1925334D01*
X-2613571Y1925526D01*
X-2630714Y1925526D01*
X-2631702Y1925429D01*
X-2631965Y1925447D01*
X-2632311Y1925369D01*
X-2632665Y1925334D01*
X-2632910Y1925233D01*
X-2633877Y1925013D01*
X-2651020Y1919298D01*
X-2652810Y1918499D01*
X-2653081Y1918264D01*
X-2653413Y1918126D01*
X-2654928Y1916882D01*
X-2666357Y1905454D01*
X-2666986Y1904687D01*
X-2667186Y1904514D01*
X-2667375Y1904213D01*
X-2667601Y1903939D01*
X-2667702Y1903695D01*
X-2668230Y1902855D01*
X-2673944Y1891426D01*
X-2673999Y1891284D01*
X-2674042Y1891226D01*
X-2674335Y1890407D01*
X-2674645Y1889596D01*
X-2674650Y1889524D01*
X-2674701Y1889380D01*
X-2680416Y1866523D01*
X-2680466Y1866184D01*
X-2680522Y1866048D01*
X-2680595Y1865313D01*
X-2680703Y1864583D01*
X-2680681Y1864437D01*
X-2680714Y1864097D01*
X-2694048Y1864097D01*
X-2694048Y1938859D01*
X-2361667Y1938859D01*
X-2361667Y1772192D01*
G37*
D12*
G36*
X-2982823Y-1159843D02*
G01*
X-2975121Y-1167544D01*
X-2970571Y-1185744D01*
X-2970571Y-1222789D01*
X-2975121Y-1240988D01*
X-2982823Y-1248690D01*
X-2989975Y-1252266D01*
X-3007167Y-1252266D01*
X-3014320Y-1248690D01*
X-3022022Y-1240988D01*
X-3026571Y-1222789D01*
X-3026571Y-1185743D01*
X-3022022Y-1167544D01*
X-3014320Y-1159843D01*
X-3007167Y-1156266D01*
X-2989976Y-1156266D01*
X-2982823Y-1159843D01*
G37*
G36*
X-2744897Y-1289600D02*
G01*
X-3063905Y-1289600D01*
X-3063905Y-1184266D01*
X-3050571Y-1184266D01*
X-3050571Y-1224266D01*
X-3050531Y-1224675D01*
X-3050557Y-1224850D01*
X-3050428Y-1225726D01*
X-3050341Y-1226607D01*
X-3050273Y-1226771D01*
X-3050213Y-1227177D01*
X-3044499Y-1250034D01*
X-3043707Y-1252249D01*
X-3043176Y-1252966D01*
X-3042835Y-1253790D01*
X-3041342Y-1255609D01*
X-3029914Y-1267037D01*
X-3028993Y-1267793D01*
X-3028786Y-1268032D01*
X-3028425Y-1268259D01*
X-3028095Y-1268530D01*
X-3027802Y-1268651D01*
X-3026795Y-1269285D01*
X-3015367Y-1274999D01*
X-3013169Y-1275840D01*
X-3012740Y-1275871D01*
X-3012341Y-1276036D01*
X-3010000Y-1276266D01*
X-2987143Y-1276266D01*
X-2984802Y-1276036D01*
X-2984404Y-1275871D01*
X-2983973Y-1275840D01*
X-2981776Y-1274999D01*
X-2970348Y-1269285D01*
X-2969340Y-1268651D01*
X-2969047Y-1268530D01*
X-2968718Y-1268259D01*
X-2968357Y-1268032D01*
X-2968150Y-1267793D01*
X-2967229Y-1267037D01*
X-2955800Y-1255609D01*
X-2954308Y-1253790D01*
X-2953967Y-1252966D01*
X-2953435Y-1252249D01*
X-2952644Y-1250034D01*
X-2946930Y-1227177D01*
X-2946870Y-1226771D01*
X-2946802Y-1226607D01*
X-2946715Y-1225726D01*
X-2946586Y-1224850D01*
X-2946612Y-1224675D01*
X-2946571Y-1224266D01*
X-2946571Y-1184266D01*
X-2919143Y-1184266D01*
X-2919143Y-1247123D01*
X-2918912Y-1249465D01*
X-2918747Y-1249863D01*
X-2918717Y-1250293D01*
X-2917876Y-1252490D01*
X-2912162Y-1263919D01*
X-2911915Y-1264310D01*
X-2911854Y-1264495D01*
X-2911654Y-1264725D01*
X-2910908Y-1265909D01*
X-2909772Y-1266895D01*
X-2908786Y-1268032D01*
X-2907601Y-1268778D01*
X-2907371Y-1268977D01*
X-2907186Y-1269039D01*
X-2906795Y-1269285D01*
X-2895367Y-1274999D01*
X-2893169Y-1275840D01*
X-2892740Y-1275871D01*
X-2892341Y-1276036D01*
X-2890000Y-1276266D01*
X-2872857Y-1276266D01*
X-2870516Y-1276036D01*
X-2870118Y-1275871D01*
X-2869688Y-1275840D01*
X-2867491Y-1274999D01*
X-2863580Y-1273044D01*
X-2862381Y-1274244D01*
X-2858055Y-1276036D01*
X-2853373Y-1276036D01*
X-2849047Y-1274244D01*
X-2845737Y-1270933D01*
X-2843945Y-1266607D01*
X-2843714Y-1264266D01*
X-2843714Y-1184266D01*
X-2843945Y-1181925D01*
X-2827484Y-1181925D01*
X-2827484Y-1186607D01*
X-2825692Y-1190933D01*
X-2822381Y-1194244D01*
X-2818055Y-1196036D01*
X-2815714Y-1196266D01*
X-2810571Y-1196266D01*
X-2810571Y-1247123D01*
X-2810341Y-1249465D01*
X-2810176Y-1249863D01*
X-2810145Y-1250293D01*
X-2809304Y-1252490D01*
X-2803590Y-1263919D01*
X-2803344Y-1264310D01*
X-2803282Y-1264495D01*
X-2803083Y-1264725D01*
X-2802337Y-1265909D01*
X-2801200Y-1266895D01*
X-2800214Y-1268032D01*
X-2799030Y-1268778D01*
X-2798800Y-1268977D01*
X-2798615Y-1269039D01*
X-2798224Y-1269285D01*
X-2786795Y-1274999D01*
X-2784598Y-1275840D01*
X-2784168Y-1275871D01*
X-2783770Y-1276036D01*
X-2781429Y-1276266D01*
X-2770000Y-1276266D01*
X-2767659Y-1276036D01*
X-2763333Y-1274244D01*
X-2760022Y-1270933D01*
X-2758231Y-1266607D01*
X-2758231Y-1261925D01*
X-2760022Y-1257599D01*
X-2763333Y-1254289D01*
X-2767659Y-1252497D01*
X-2770000Y-1252266D01*
X-2778596Y-1252266D01*
X-2783913Y-1249608D01*
X-2786571Y-1244291D01*
X-2786571Y-1196266D01*
X-2770000Y-1196266D01*
X-2767659Y-1196036D01*
X-2763333Y-1194244D01*
X-2760022Y-1190933D01*
X-2758231Y-1186607D01*
X-2758231Y-1181925D01*
X-2760022Y-1177599D01*
X-2763333Y-1174289D01*
X-2767659Y-1172497D01*
X-2770000Y-1172266D01*
X-2786571Y-1172266D01*
X-2786571Y-1144266D01*
X-2786802Y-1141925D01*
X-2788594Y-1137599D01*
X-2791905Y-1134289D01*
X-2796230Y-1132497D01*
X-2800912Y-1132497D01*
X-2805238Y-1134289D01*
X-2808549Y-1137599D01*
X-2810341Y-1141925D01*
X-2810571Y-1144266D01*
X-2810571Y-1172266D01*
X-2815714Y-1172266D01*
X-2818055Y-1172497D01*
X-2822381Y-1174289D01*
X-2825692Y-1177599D01*
X-2827484Y-1181925D01*
X-2843945Y-1181925D01*
X-2845737Y-1177599D01*
X-2849047Y-1174289D01*
X-2853373Y-1172497D01*
X-2858055Y-1172497D01*
X-2862381Y-1174289D01*
X-2865692Y-1177599D01*
X-2867484Y-1181925D01*
X-2867714Y-1184266D01*
X-2867714Y-1247867D01*
X-2868537Y-1248690D01*
X-2875690Y-1252266D01*
X-2887167Y-1252266D01*
X-2892484Y-1249608D01*
X-2895143Y-1244291D01*
X-2895143Y-1184266D01*
X-2895373Y-1181925D01*
X-2897165Y-1177599D01*
X-2900476Y-1174289D01*
X-2904802Y-1172497D01*
X-2909484Y-1172497D01*
X-2913810Y-1174289D01*
X-2917120Y-1177599D01*
X-2918912Y-1181925D01*
X-2919143Y-1184266D01*
X-2946571Y-1184266D01*
X-2946612Y-1183858D01*
X-2946586Y-1183683D01*
X-2946715Y-1182807D01*
X-2946802Y-1181925D01*
X-2946870Y-1181762D01*
X-2946930Y-1181356D01*
X-2952644Y-1158499D01*
X-2953435Y-1156283D01*
X-2953967Y-1155566D01*
X-2954308Y-1154742D01*
X-2955800Y-1152924D01*
X-2967229Y-1141495D01*
X-2968149Y-1140740D01*
X-2968357Y-1140501D01*
X-2968718Y-1140273D01*
X-2969047Y-1140003D01*
X-2969340Y-1139882D01*
X-2970348Y-1139247D01*
X-2981776Y-1133533D01*
X-2983973Y-1132692D01*
X-2984403Y-1132662D01*
X-2984802Y-1132497D01*
X-2987143Y-1132266D01*
X-3010000Y-1132266D01*
X-3012341Y-1132497D01*
X-3012740Y-1132662D01*
X-3013169Y-1132692D01*
X-3015367Y-1133533D01*
X-3026795Y-1139247D01*
X-3027803Y-1139882D01*
X-3028095Y-1140003D01*
X-3028425Y-1140273D01*
X-3028786Y-1140501D01*
X-3028994Y-1140740D01*
X-3029914Y-1141495D01*
X-3041342Y-1152924D01*
X-3042835Y-1154742D01*
X-3043176Y-1155566D01*
X-3043707Y-1156283D01*
X-3044499Y-1158499D01*
X-3050213Y-1181356D01*
X-3050273Y-1181762D01*
X-3050341Y-1181925D01*
X-3050428Y-1182807D01*
X-3050557Y-1183683D01*
X-3050531Y-1183858D01*
X-3050571Y-1184266D01*
X-3063905Y-1184266D01*
X-3063905Y-1118933D01*
X-2744897Y-1118933D01*
X-2744897Y-1289600D01*
G37*
G36*
X4739619Y1590631D02*
G01*
X4580381Y1590631D01*
X4580381Y1735734D01*
X4593714Y1735734D01*
X4593714Y1615734D01*
X4593945Y1613393D01*
X4595737Y1609067D01*
X4599048Y1605756D01*
X4603373Y1603964D01*
X4608055Y1603964D01*
X4612381Y1605756D01*
X4615692Y1609067D01*
X4617484Y1613393D01*
X4617714Y1615734D01*
X4617714Y1695734D01*
X4650857Y1695734D01*
X4650857Y1615734D01*
X4651088Y1613393D01*
X4652880Y1609067D01*
X4656190Y1605756D01*
X4660516Y1603964D01*
X4665198Y1603964D01*
X4669524Y1605756D01*
X4672835Y1609067D01*
X4674627Y1613393D01*
X4674857Y1615734D01*
X4674857Y1679335D01*
X4675680Y1680157D01*
X4682833Y1683734D01*
X4694310Y1683734D01*
X4699627Y1681075D01*
X4702286Y1675758D01*
X4702286Y1615734D01*
X4702516Y1613393D01*
X4704308Y1609067D01*
X4707619Y1605756D01*
X4711945Y1603964D01*
X4716627Y1603964D01*
X4720953Y1605756D01*
X4724263Y1609067D01*
X4726055Y1613393D01*
X4726286Y1615734D01*
X4726286Y1678591D01*
X4726055Y1680932D01*
X4725890Y1681330D01*
X4725860Y1681760D01*
X4725019Y1683957D01*
X4719305Y1695386D01*
X4719058Y1695778D01*
X4718997Y1695962D01*
X4718797Y1696192D01*
X4718051Y1697377D01*
X4716915Y1698363D01*
X4715929Y1699499D01*
X4714744Y1700245D01*
X4714514Y1700445D01*
X4714330Y1700506D01*
X4713938Y1700753D01*
X4702510Y1706467D01*
X4700312Y1707308D01*
X4699882Y1707338D01*
X4699484Y1707503D01*
X4697143Y1707734D01*
X4680000Y1707734D01*
X4677659Y1707503D01*
X4677260Y1707338D01*
X4676831Y1707308D01*
X4674633Y1706467D01*
X4670723Y1704512D01*
X4669524Y1705711D01*
X4665198Y1707503D01*
X4660516Y1707503D01*
X4656190Y1705711D01*
X4652880Y1702401D01*
X4651088Y1698075D01*
X4650857Y1695734D01*
X4617714Y1695734D01*
X4617714Y1735734D01*
X4617484Y1738075D01*
X4615692Y1742401D01*
X4612381Y1745711D01*
X4608055Y1747503D01*
X4603373Y1747503D01*
X4599048Y1745711D01*
X4595737Y1742401D01*
X4593945Y1738075D01*
X4593714Y1735734D01*
X4580381Y1735734D01*
X4580381Y1760836D01*
X4739619Y1760836D01*
X4739619Y1590631D01*
G37*
D10*
G36*
X-31638Y-218407D02*
G01*
X-28219Y-221826D01*
X-24286Y-229692D01*
X-24286Y-259256D01*
X-28219Y-267122D01*
X-31638Y-270541D01*
X-39504Y-274474D01*
X-57639Y-274474D01*
X-61429Y-272580D01*
X-61429Y-216369D01*
X-57639Y-214474D01*
X-39504Y-214474D01*
X-31638Y-218407D01*
G37*
G36*
X-231116Y-236072D02*
G01*
X-228219Y-238969D01*
X-224286Y-246835D01*
X-224286Y-259256D01*
X-228219Y-267122D01*
X-231638Y-270541D01*
X-239504Y-274474D01*
X-272857Y-274474D01*
X-272857Y-231617D01*
X-244480Y-231617D01*
X-231116Y-236072D01*
G37*
G36*
X-237352Y-178407D02*
G01*
X-233933Y-181826D01*
X-230000Y-189692D01*
X-230000Y-196399D01*
X-233933Y-204265D01*
X-237352Y-207684D01*
X-245218Y-211617D01*
X-272857Y-211617D01*
X-272857Y-174474D01*
X-245218Y-174474D01*
X-237352Y-178407D01*
G37*
G36*
X78571Y-272580D02*
G01*
X74782Y-274474D01*
X50932Y-274474D01*
X44596Y-271306D01*
X41429Y-264971D01*
X41429Y-258263D01*
X44596Y-251928D01*
X50932Y-248760D01*
X77143Y-248760D01*
X78571Y-248619D01*
X78571Y-272580D01*
G37*
G36*
X311905Y-347729D02*
G01*
X-306191Y-347729D01*
X-306191Y-323223D01*
X-184207Y-323223D01*
X-183931Y-327115D01*
X-182186Y-330605D01*
X-179238Y-333162D01*
X-175537Y-334396D01*
X-171645Y-334119D01*
X-169814Y-333419D01*
X-158385Y-327704D01*
X-157546Y-327176D01*
X-157302Y-327075D01*
X-157027Y-326849D01*
X-156726Y-326660D01*
X-156553Y-326461D01*
X-155786Y-325831D01*
X-150072Y-320117D01*
X-148828Y-318602D01*
X-148805Y-318544D01*
X-148761Y-318500D01*
X-147858Y-316760D01*
X-136430Y-288188D01*
X-136377Y-288007D01*
X-136297Y-287838D01*
X-107725Y-207838D01*
X-107250Y-205936D01*
X-107323Y-204474D01*
X-81429Y-204474D01*
X-81429Y-324474D01*
X-81237Y-326425D01*
X-79743Y-330030D01*
X-76984Y-332789D01*
X-73380Y-334282D01*
X-69478Y-334282D01*
X-65873Y-332789D01*
X-63114Y-330030D01*
X-61621Y-326425D01*
X-61429Y-324474D01*
X-61429Y-294334D01*
X-60000Y-294474D01*
X-37143Y-294474D01*
X-35192Y-294282D01*
X-34860Y-294145D01*
X-34502Y-294119D01*
X-32671Y-293419D01*
X-21242Y-287704D01*
X-20403Y-287176D01*
X-20159Y-287075D01*
X-19884Y-286849D01*
X-19583Y-286660D01*
X-19410Y-286461D01*
X-18643Y-285831D01*
X-12929Y-280117D01*
X-12300Y-279350D01*
X-12100Y-279177D01*
X-11911Y-278876D01*
X-11685Y-278602D01*
X-11584Y-278357D01*
X-11056Y-277518D01*
X-5342Y-266089D01*
X-4641Y-264258D01*
X-4616Y-263900D01*
X-4478Y-263568D01*
X-4286Y-261617D01*
X-4286Y-255903D01*
X21429Y-255903D01*
X21429Y-267331D01*
X21621Y-269282D01*
X21758Y-269614D01*
X21784Y-269973D01*
X22484Y-271804D01*
X28198Y-283232D01*
X28404Y-283559D01*
X28455Y-283712D01*
X28621Y-283904D01*
X29243Y-284891D01*
X30190Y-285713D01*
X31012Y-286660D01*
X31999Y-287281D01*
X32190Y-287448D01*
X32344Y-287499D01*
X32671Y-287704D01*
X44099Y-293419D01*
X45930Y-294119D01*
X46288Y-294145D01*
X46620Y-294282D01*
X48571Y-294474D01*
X77143Y-294474D01*
X79094Y-294282D01*
X79426Y-294145D01*
X79784Y-294119D01*
X81615Y-293419D01*
X82969Y-292742D01*
X83016Y-292789D01*
X86621Y-294282D01*
X90522Y-294282D01*
X94127Y-292789D01*
X96886Y-290030D01*
X98379Y-286425D01*
X98571Y-284474D01*
X98571Y-221617D01*
X130000Y-221617D01*
X130000Y-227331D01*
X130192Y-229282D01*
X130329Y-229614D01*
X130355Y-229973D01*
X131056Y-231803D01*
X136770Y-243232D01*
X136975Y-243558D01*
X137027Y-243712D01*
X137193Y-243904D01*
X137814Y-244891D01*
X138762Y-245713D01*
X139583Y-246660D01*
X140570Y-247281D01*
X140762Y-247448D01*
X140916Y-247499D01*
X141242Y-247704D01*
X152671Y-253418D01*
X154502Y-254119D01*
X154860Y-254144D01*
X155192Y-254282D01*
X157143Y-254474D01*
X171925Y-254474D01*
X178261Y-257642D01*
X181428Y-263978D01*
X181428Y-264971D01*
X178261Y-271306D01*
X171925Y-274474D01*
X153789Y-274474D01*
X144472Y-269816D01*
X142641Y-269115D01*
X138749Y-268839D01*
X135048Y-270072D01*
X132100Y-272629D01*
X130355Y-276119D01*
X130078Y-280011D01*
X131312Y-283712D01*
X133869Y-286660D01*
X135528Y-287704D01*
X146956Y-293419D01*
X148787Y-294119D01*
X149146Y-294145D01*
X149478Y-294282D01*
X151429Y-294474D01*
X174286Y-294474D01*
X176236Y-294282D01*
X176568Y-294145D01*
X176927Y-294119D01*
X178758Y-293419D01*
X190186Y-287704D01*
X190513Y-287499D01*
X190666Y-287448D01*
X190858Y-287281D01*
X191845Y-286660D01*
X192667Y-285713D01*
X193614Y-284891D01*
X194235Y-283904D01*
X194402Y-283712D01*
X194453Y-283558D01*
X194658Y-283232D01*
X200373Y-271804D01*
X201073Y-269973D01*
X201099Y-269614D01*
X201236Y-269282D01*
X201428Y-267331D01*
X201428Y-261617D01*
X201236Y-259666D01*
X201099Y-259334D01*
X201073Y-258976D01*
X200373Y-257145D01*
X194658Y-245716D01*
X194453Y-245390D01*
X194402Y-245236D01*
X194236Y-245045D01*
X193614Y-244057D01*
X192667Y-243236D01*
X191845Y-242288D01*
X190858Y-241667D01*
X190666Y-241501D01*
X190513Y-241450D01*
X190186Y-241244D01*
X178758Y-235530D01*
X176927Y-234829D01*
X176568Y-234804D01*
X176236Y-234666D01*
X174286Y-234474D01*
X159504Y-234474D01*
X153168Y-231306D01*
X150000Y-224971D01*
X150000Y-223978D01*
X151180Y-221617D01*
X227143Y-221617D01*
X227143Y-227331D01*
X227335Y-229282D01*
X227472Y-229614D01*
X227498Y-229973D01*
X228198Y-231803D01*
X233913Y-243232D01*
X234118Y-243558D01*
X234169Y-243712D01*
X234336Y-243904D01*
X234957Y-244891D01*
X235904Y-245713D01*
X236726Y-246660D01*
X237713Y-247281D01*
X237905Y-247448D01*
X238059Y-247499D01*
X238385Y-247704D01*
X249814Y-253418D01*
X251644Y-254119D01*
X252003Y-254144D01*
X252335Y-254282D01*
X254286Y-254474D01*
X269068Y-254474D01*
X275404Y-257642D01*
X278571Y-263978D01*
X278571Y-264971D01*
X275404Y-271306D01*
X269068Y-274474D01*
X250932Y-274474D01*
X241615Y-269816D01*
X239784Y-269115D01*
X235892Y-268839D01*
X232190Y-270072D01*
X229243Y-272629D01*
X227498Y-276119D01*
X227221Y-280011D01*
X228455Y-283712D01*
X231012Y-286660D01*
X232671Y-287704D01*
X244099Y-293419D01*
X245930Y-294119D01*
X246288Y-294145D01*
X246620Y-294282D01*
X248571Y-294474D01*
X271429Y-294474D01*
X273379Y-294282D01*
X273711Y-294145D01*
X274070Y-294119D01*
X275901Y-293419D01*
X287329Y-287704D01*
X287656Y-287499D01*
X287809Y-287448D01*
X288001Y-287281D01*
X288988Y-286660D01*
X289810Y-285713D01*
X290757Y-284891D01*
X291378Y-283904D01*
X291545Y-283712D01*
X291596Y-283558D01*
X291801Y-283232D01*
X297516Y-271804D01*
X298216Y-269973D01*
X298242Y-269614D01*
X298379Y-269282D01*
X298571Y-267331D01*
X298571Y-261617D01*
X298379Y-259666D01*
X298242Y-259334D01*
X298216Y-258976D01*
X297516Y-257145D01*
X291801Y-245716D01*
X291596Y-245390D01*
X291545Y-245236D01*
X291379Y-245045D01*
X290757Y-244057D01*
X289810Y-243236D01*
X288988Y-242288D01*
X288001Y-241667D01*
X287809Y-241501D01*
X287656Y-241450D01*
X287329Y-241244D01*
X275901Y-235530D01*
X274070Y-234829D01*
X273711Y-234804D01*
X273379Y-234666D01*
X271429Y-234474D01*
X256646Y-234474D01*
X250311Y-231306D01*
X247143Y-224971D01*
X247143Y-223978D01*
X250311Y-217642D01*
X256646Y-214474D01*
X269068Y-214474D01*
X278385Y-219133D01*
X280216Y-219833D01*
X284108Y-220110D01*
X287809Y-218876D01*
X290757Y-216320D01*
X292502Y-212830D01*
X292779Y-208938D01*
X291545Y-205236D01*
X288988Y-202288D01*
X287329Y-201244D01*
X275901Y-195530D01*
X274070Y-194829D01*
X273711Y-194804D01*
X273379Y-194666D01*
X271429Y-194474D01*
X254286Y-194474D01*
X252335Y-194666D01*
X252003Y-194804D01*
X251644Y-194829D01*
X249814Y-195530D01*
X238385Y-201244D01*
X238059Y-201450D01*
X237905Y-201501D01*
X237713Y-201667D01*
X236726Y-202288D01*
X235904Y-203236D01*
X234957Y-204057D01*
X234335Y-205045D01*
X234169Y-205236D01*
X234118Y-205390D01*
X233913Y-205716D01*
X228198Y-217145D01*
X227498Y-218976D01*
X227472Y-219334D01*
X227335Y-219666D01*
X227143Y-221617D01*
X151180Y-221617D01*
X153168Y-217642D01*
X159504Y-214474D01*
X171925Y-214474D01*
X181242Y-219133D01*
X183073Y-219833D01*
X186965Y-220110D01*
X190666Y-218876D01*
X193614Y-216320D01*
X195359Y-212830D01*
X195636Y-208938D01*
X194402Y-205236D01*
X191845Y-202288D01*
X190186Y-201244D01*
X178758Y-195530D01*
X176927Y-194829D01*
X176568Y-194804D01*
X176236Y-194666D01*
X174286Y-194474D01*
X157143Y-194474D01*
X155192Y-194666D01*
X154860Y-194804D01*
X154502Y-194829D01*
X152671Y-195530D01*
X141242Y-201244D01*
X140916Y-201450D01*
X140762Y-201501D01*
X140570Y-201667D01*
X139583Y-202288D01*
X138761Y-203236D01*
X137814Y-204057D01*
X137193Y-205045D01*
X137027Y-205236D01*
X136975Y-205390D01*
X136770Y-205716D01*
X131056Y-217145D01*
X130355Y-218976D01*
X130329Y-219334D01*
X130192Y-219666D01*
X130000Y-221617D01*
X98571Y-221617D01*
X98379Y-219666D01*
X98242Y-219334D01*
X98216Y-218976D01*
X97516Y-217145D01*
X91801Y-205716D01*
X91596Y-205390D01*
X91545Y-205236D01*
X91378Y-205045D01*
X90757Y-204057D01*
X89810Y-203236D01*
X88988Y-202288D01*
X88001Y-201667D01*
X87809Y-201501D01*
X87656Y-201450D01*
X87329Y-201244D01*
X75901Y-195530D01*
X74070Y-194829D01*
X73711Y-194804D01*
X73379Y-194666D01*
X71429Y-194474D01*
X48571Y-194474D01*
X46620Y-194666D01*
X46288Y-194804D01*
X45930Y-194829D01*
X44099Y-195530D01*
X32671Y-201244D01*
X31012Y-202288D01*
X28455Y-205236D01*
X27221Y-208938D01*
X27498Y-212830D01*
X29243Y-216320D01*
X32190Y-218876D01*
X35892Y-220110D01*
X39784Y-219833D01*
X41615Y-219133D01*
X50932Y-214474D01*
X69068Y-214474D01*
X75404Y-217642D01*
X78571Y-223978D01*
X78571Y-226865D01*
X74782Y-228760D01*
X48571Y-228760D01*
X46620Y-228952D01*
X46288Y-229090D01*
X45930Y-229115D01*
X44099Y-229816D01*
X32671Y-235530D01*
X32344Y-235735D01*
X32190Y-235787D01*
X31999Y-235953D01*
X31012Y-236574D01*
X30190Y-237521D01*
X29243Y-238343D01*
X28621Y-239330D01*
X28455Y-239522D01*
X28404Y-239676D01*
X28198Y-240002D01*
X22484Y-251431D01*
X21784Y-253261D01*
X21758Y-253620D01*
X21621Y-253952D01*
X21429Y-255903D01*
X-4286Y-255903D01*
X-4286Y-227331D01*
X-4478Y-225380D01*
X-4616Y-225048D01*
X-4641Y-224690D01*
X-5342Y-222859D01*
X-11056Y-211431D01*
X-11584Y-210591D01*
X-11685Y-210347D01*
X-11911Y-210072D01*
X-12100Y-209772D01*
X-12300Y-209599D01*
X-12929Y-208832D01*
X-18643Y-203117D01*
X-19410Y-202488D01*
X-19583Y-202288D01*
X-19884Y-202099D01*
X-20159Y-201874D01*
X-20402Y-201773D01*
X-21242Y-201244D01*
X-32671Y-195530D01*
X-34502Y-194829D01*
X-34860Y-194804D01*
X-35192Y-194666D01*
X-37143Y-194474D01*
X-60000Y-194474D01*
X-61951Y-194666D01*
X-62283Y-194804D01*
X-62641Y-194829D01*
X-64472Y-195530D01*
X-65826Y-196207D01*
X-65873Y-196159D01*
X-69478Y-194666D01*
X-73380Y-194666D01*
X-76984Y-196159D01*
X-79743Y-198918D01*
X-81237Y-202523D01*
X-81429Y-204474D01*
X-107323Y-204474D01*
X-107444Y-202039D01*
X-109114Y-198512D01*
X-112007Y-195894D01*
X-115681Y-194581D01*
X-119578Y-194775D01*
X-123105Y-196446D01*
X-125723Y-199338D01*
X-126560Y-201111D01*
X-145714Y-254742D01*
X-164868Y-201111D01*
X-165705Y-199338D01*
X-168324Y-196446D01*
X-171850Y-194775D01*
X-175747Y-194581D01*
X-179422Y-195894D01*
X-182314Y-198512D01*
X-183985Y-202039D01*
X-184178Y-205936D01*
X-183703Y-207838D01*
X-156405Y-284274D01*
X-165666Y-307426D01*
X-168781Y-310541D01*
X-178758Y-315530D01*
X-180417Y-316574D01*
X-182973Y-319522D01*
X-184207Y-323223D01*
X-306191Y-323223D01*
X-306191Y-164474D01*
X-292857Y-164474D01*
X-292857Y-284474D01*
X-292665Y-286425D01*
X-291172Y-290030D01*
X-288413Y-292789D01*
X-284808Y-294282D01*
X-282857Y-294474D01*
X-237143Y-294474D01*
X-235192Y-294282D01*
X-234860Y-294145D01*
X-234502Y-294119D01*
X-232671Y-293419D01*
X-221242Y-287704D01*
X-220403Y-287176D01*
X-220159Y-287075D01*
X-219884Y-286849D01*
X-219583Y-286660D01*
X-219410Y-286461D01*
X-218643Y-285831D01*
X-212929Y-280117D01*
X-212300Y-279350D01*
X-212100Y-279177D01*
X-211911Y-278876D01*
X-211685Y-278602D01*
X-211584Y-278357D01*
X-211056Y-277518D01*
X-205341Y-266089D01*
X-204641Y-264258D01*
X-204615Y-263900D01*
X-204478Y-263568D01*
X-204286Y-261617D01*
X-204286Y-244474D01*
X-204478Y-242523D01*
X-204615Y-242191D01*
X-204641Y-241833D01*
X-205341Y-240002D01*
X-211056Y-228573D01*
X-211584Y-227734D01*
X-211685Y-227490D01*
X-211911Y-227215D01*
X-212100Y-226914D01*
X-212300Y-226741D01*
X-212929Y-225975D01*
X-218643Y-220260D01*
X-220159Y-219017D01*
X-220330Y-218946D01*
X-218643Y-217259D01*
X-218014Y-216493D01*
X-217814Y-216320D01*
X-217625Y-216018D01*
X-217400Y-215744D01*
X-217299Y-215500D01*
X-216770Y-214661D01*
X-211056Y-203232D01*
X-210355Y-201401D01*
X-210330Y-201043D01*
X-210192Y-200711D01*
X-210000Y-198760D01*
X-210000Y-187331D01*
X-210192Y-185380D01*
X-210330Y-185048D01*
X-210355Y-184690D01*
X-211056Y-182859D01*
X-216770Y-171431D01*
X-217299Y-170591D01*
X-217400Y-170347D01*
X-217625Y-170073D01*
X-217814Y-169772D01*
X-218014Y-169598D01*
X-218643Y-168832D01*
X-224357Y-163118D01*
X-225124Y-162488D01*
X-225297Y-162289D01*
X-225598Y-162099D01*
X-225873Y-161874D01*
X-226117Y-161773D01*
X-226956Y-161244D01*
X-238385Y-155530D01*
X-240216Y-154829D01*
X-240574Y-154804D01*
X-240906Y-154666D01*
X-242857Y-154474D01*
X-282857Y-154474D01*
X-284808Y-154666D01*
X-288413Y-156160D01*
X-291172Y-158919D01*
X-292665Y-162523D01*
X-292857Y-164474D01*
X-306191Y-164474D01*
X-306191Y-141141D01*
X311905Y-141141D01*
X311905Y-347729D01*
G37*
D12*
G36*
X2681668Y1770400D02*
G01*
X2356904Y1770400D01*
X2356904Y1914233D01*
X2370237Y1914233D01*
X2370759Y1911939D01*
X2410759Y1791939D01*
X2411718Y1789791D01*
X2412280Y1789143D01*
X2412663Y1788376D01*
X2413800Y1787391D01*
X2414786Y1786254D01*
X2415552Y1785870D01*
X2416200Y1785309D01*
X2417628Y1784833D01*
X2418973Y1784160D01*
X2419828Y1784099D01*
X2420642Y1783828D01*
X2422143Y1783935D01*
X2423644Y1783828D01*
X2424457Y1784099D01*
X2425312Y1784160D01*
X2426658Y1784833D01*
X2428086Y1785309D01*
X2428733Y1785870D01*
X2429500Y1786254D01*
X2430486Y1787391D01*
X2431623Y1788376D01*
X2432006Y1789143D01*
X2432568Y1789791D01*
X2433527Y1791939D01*
X2453840Y1852877D01*
X2484429Y1852877D01*
X2484429Y1818591D01*
X2484659Y1816250D01*
X2484824Y1815851D01*
X2484855Y1815421D01*
X2485696Y1813224D01*
X2491410Y1801796D01*
X2492044Y1800788D01*
X2492165Y1800495D01*
X2492436Y1800166D01*
X2492663Y1799805D01*
X2492902Y1799597D01*
X2493658Y1798677D01*
X2499372Y1792963D01*
X2500292Y1792207D01*
X2500500Y1791968D01*
X2500861Y1791741D01*
X2501190Y1791470D01*
X2501483Y1791349D01*
X2502491Y1790715D01*
X2513919Y1785001D01*
X2516116Y1784160D01*
X2516546Y1784129D01*
X2516945Y1783964D01*
X2519286Y1783734D01*
X2542143Y1783734D01*
X2544484Y1783964D01*
X2544882Y1784129D01*
X2545312Y1784160D01*
X2547509Y1785001D01*
X2558938Y1790715D01*
X2560929Y1791968D01*
X2563997Y1795505D01*
X2565477Y1799947D01*
X2565145Y1804617D01*
X2563051Y1808805D01*
X2559514Y1811873D01*
X2555072Y1813354D01*
X2550402Y1813022D01*
X2548205Y1812181D01*
X2539310Y1807734D01*
X2522119Y1807734D01*
X2514966Y1811310D01*
X2512005Y1814271D01*
X2508429Y1821424D01*
X2508429Y1850044D01*
X2509845Y1852877D01*
X2587286Y1852877D01*
X2587286Y1818591D01*
X2587516Y1816250D01*
X2587681Y1815851D01*
X2587712Y1815421D01*
X2588553Y1813224D01*
X2594267Y1801796D01*
X2594901Y1800788D01*
X2595022Y1800495D01*
X2595293Y1800166D01*
X2595520Y1799805D01*
X2595760Y1799597D01*
X2596515Y1798677D01*
X2602229Y1792963D01*
X2603150Y1792207D01*
X2603357Y1791968D01*
X2603718Y1791741D01*
X2604048Y1791470D01*
X2604340Y1791349D01*
X2605348Y1790715D01*
X2616776Y1785001D01*
X2618973Y1784160D01*
X2619403Y1784129D01*
X2619802Y1783964D01*
X2622143Y1783734D01*
X2645000Y1783734D01*
X2647341Y1783964D01*
X2647739Y1784129D01*
X2648169Y1784160D01*
X2650367Y1785001D01*
X2661795Y1790715D01*
X2663786Y1791968D01*
X2666854Y1795505D01*
X2668334Y1799947D01*
X2668002Y1804617D01*
X2665909Y1808805D01*
X2662371Y1811873D01*
X2657930Y1813354D01*
X2653259Y1813022D01*
X2651062Y1812181D01*
X2642167Y1807734D01*
X2624976Y1807734D01*
X2617823Y1811310D01*
X2614862Y1814271D01*
X2611286Y1821424D01*
X2611286Y1850044D01*
X2614862Y1857197D01*
X2617823Y1860157D01*
X2624976Y1863734D01*
X2642167Y1863734D01*
X2651062Y1859286D01*
X2653259Y1858446D01*
X2657930Y1858114D01*
X2662371Y1859594D01*
X2665909Y1862662D01*
X2668003Y1866850D01*
X2668334Y1871520D01*
X2666854Y1875962D01*
X2663786Y1879499D01*
X2661795Y1880753D01*
X2650367Y1886467D01*
X2648170Y1887308D01*
X2647740Y1887338D01*
X2647341Y1887503D01*
X2645000Y1887734D01*
X2622143Y1887734D01*
X2619802Y1887503D01*
X2619403Y1887338D01*
X2618973Y1887308D01*
X2616776Y1886467D01*
X2605348Y1880753D01*
X2604340Y1880118D01*
X2604048Y1879997D01*
X2603718Y1879727D01*
X2603357Y1879499D01*
X2603149Y1879260D01*
X2602229Y1878505D01*
X2596515Y1872790D01*
X2595760Y1871870D01*
X2595520Y1871663D01*
X2595293Y1871301D01*
X2595022Y1870972D01*
X2594901Y1870679D01*
X2594267Y1869672D01*
X2588553Y1858243D01*
X2587712Y1856046D01*
X2587681Y1855616D01*
X2587516Y1855218D01*
X2587286Y1852877D01*
X2509845Y1852877D01*
X2512005Y1857197D01*
X2514966Y1860157D01*
X2522119Y1863734D01*
X2539310Y1863734D01*
X2548205Y1859286D01*
X2550402Y1858446D01*
X2555072Y1858114D01*
X2559514Y1859594D01*
X2563051Y1862662D01*
X2565145Y1866850D01*
X2565477Y1871520D01*
X2563997Y1875962D01*
X2560929Y1879499D01*
X2558938Y1880753D01*
X2547510Y1886467D01*
X2545312Y1887308D01*
X2544882Y1887338D01*
X2544484Y1887503D01*
X2542143Y1887734D01*
X2519286Y1887734D01*
X2516945Y1887503D01*
X2516546Y1887338D01*
X2516116Y1887308D01*
X2513919Y1886467D01*
X2502491Y1880753D01*
X2501483Y1880118D01*
X2501190Y1879997D01*
X2500861Y1879727D01*
X2500500Y1879499D01*
X2500292Y1879260D01*
X2499372Y1878505D01*
X2493658Y1872790D01*
X2492902Y1871870D01*
X2492663Y1871663D01*
X2492436Y1871301D01*
X2492165Y1870972D01*
X2492044Y1870679D01*
X2491410Y1869672D01*
X2485696Y1858243D01*
X2484855Y1856046D01*
X2484824Y1855616D01*
X2484659Y1855218D01*
X2484429Y1852877D01*
X2453840Y1852877D01*
X2473527Y1911939D01*
X2474049Y1914233D01*
X2473717Y1918903D01*
X2471623Y1923091D01*
X2468086Y1926159D01*
X2463644Y1927639D01*
X2458973Y1927308D01*
X2454786Y1925214D01*
X2451718Y1921677D01*
X2450759Y1919528D01*
X2422143Y1833681D01*
X2393527Y1919528D01*
X2392568Y1921677D01*
X2389500Y1925214D01*
X2385312Y1927308D01*
X2380642Y1927640D01*
X2376200Y1926159D01*
X2372663Y1923091D01*
X2370569Y1918903D01*
X2370237Y1914233D01*
X2356904Y1914233D01*
X2356904Y1940973D01*
X2681668Y1940973D01*
X2681668Y1770400D01*
G37*
D13*
X-1331667Y668345D02*
X-1371667Y668345D01*
X-1351667Y668345D02*
X-1351667Y738345D01*
X-1351667Y738345D02*
X-1358333Y728345D01*
X-1358333Y728345D02*
X-1365000Y721678D01*
X-1365000Y721678D02*
X-1371667Y718345D01*
X-1288333Y738345D02*
X-1281667Y738345D01*
X-1281667Y738345D02*
X-1275000Y735011D01*
X-1275000Y735011D02*
X-1271667Y731678D01*
X-1271667Y731678D02*
X-1268333Y725011D01*
X-1268333Y725011D02*
X-1265000Y711678D01*
X-1265000Y711678D02*
X-1265000Y695011D01*
X-1265000Y695011D02*
X-1268333Y681678D01*
X-1268333Y681678D02*
X-1271667Y675011D01*
X-1271667Y675011D02*
X-1275000Y671678D01*
X-1275000Y671678D02*
X-1281667Y668345D01*
X-1281667Y668345D02*
X-1288333Y668345D01*
X-1288333Y668345D02*
X-1295000Y671678D01*
X-1295000Y671678D02*
X-1298333Y675011D01*
X-1298333Y675011D02*
X-1301667Y681678D01*
X-1301667Y681678D02*
X-1305000Y695011D01*
X-1305000Y695011D02*
X-1305000Y711678D01*
X-1305000Y711678D02*
X-1301667Y725011D01*
X-1301667Y725011D02*
X-1298333Y731678D01*
X-1298333Y731678D02*
X-1295000Y735011D01*
X-1295000Y735011D02*
X-1288333Y738345D01*
X-1235000Y668345D02*
X-1235000Y738345D01*
X-1228333Y695011D02*
X-1208333Y668345D01*
X-1208333Y715011D02*
X-1235000Y688345D01*
X-1181667Y668345D02*
X-1165000Y668345D01*
X-1165000Y668345D02*
X-1165000Y681678D01*
X-1165000Y681678D02*
X-1171667Y685011D01*
X-1171667Y685011D02*
X-1178333Y691678D01*
X-1178333Y691678D02*
X-1181667Y701678D01*
X-1181667Y701678D02*
X-1181667Y718345D01*
X-1181667Y718345D02*
X-1178333Y728345D01*
X-1178333Y728345D02*
X-1171667Y735011D01*
X-1171667Y735011D02*
X-1161667Y738345D01*
X-1161667Y738345D02*
X-1148333Y738345D01*
X-1148333Y738345D02*
X-1138333Y735011D01*
X-1138333Y735011D02*
X-1131667Y728345D01*
X-1131667Y728345D02*
X-1128333Y718345D01*
X-1128333Y718345D02*
X-1128333Y701678D01*
X-1128333Y701678D02*
X-1131667Y691678D01*
X-1131667Y691678D02*
X-1138333Y685011D01*
X-1138333Y685011D02*
X-1145000Y681678D01*
X-1145000Y681678D02*
X-1145000Y668345D01*
X-1145000Y668345D02*
X-1128333Y668345D01*
D14*
X-2730000Y-900000D02*
G75*
G02*
X-3070000Y-900000I-170000J0D01*
G01*
X-3070000Y-900000D02*
G75*
G02*
X-2730000Y-900000I170000J0D01*
G01*
D15*
G36*
X1972352Y629752D02*
G01*
X1977738Y626640D01*
X1984120Y622129D01*
X1990766Y616769D01*
X1996942Y611113D01*
X2001563Y606143D01*
X2012637Y591118D01*
X2020720Y575972D01*
X2026066Y559986D01*
X2028928Y542438D01*
X2029600Y526504D01*
X2029420Y516539D01*
X2028805Y507705D01*
X2027597Y499075D01*
X2025641Y489723D01*
X2022782Y478723D01*
X2019782Y468262D01*
X2018512Y461804D01*
X2017547Y452594D01*
X2016889Y441379D01*
X2016540Y428906D01*
X2016502Y415922D01*
X2016776Y403172D01*
X2017365Y391403D01*
X2018271Y381362D01*
X2019495Y373795D01*
X2019537Y373612D01*
X2023588Y358755D01*
X2028246Y346731D01*
X2033794Y336877D01*
X2037215Y332281D01*
X2041334Y327088D01*
X2044735Y322549D01*
X2046480Y319966D01*
X2048397Y317007D01*
X2050317Y315841D01*
X2053281Y316352D01*
X2058333Y318428D01*
X2058781Y318625D01*
X2065353Y320607D01*
X2074010Y321977D01*
X2083776Y322715D01*
X2093678Y322802D01*
X2102744Y322218D01*
X2109998Y320945D01*
X2113358Y319699D01*
X2117541Y317703D01*
X2120456Y316724D01*
X2120694Y316704D01*
X2122081Y318245D01*
X2123861Y322222D01*
X2125145Y326107D01*
X2129705Y338490D01*
X2136222Y351787D01*
X2143968Y364655D01*
X2152045Y375555D01*
X2167878Y391972D01*
X2185168Y405340D01*
X2203726Y415574D01*
X2223366Y422589D01*
X2243902Y426299D01*
X2263967Y426692D01*
X2283107Y424321D01*
X2301216Y419299D01*
X2318816Y411412D01*
X2336429Y400447D01*
X2346469Y392901D01*
X2354849Y386200D01*
X2361136Y380970D01*
X2365992Y376504D01*
X2370080Y372098D01*
X2374063Y367047D01*
X2378601Y360646D01*
X2383426Y353566D01*
X2397209Y331263D01*
X2408497Y308441D01*
X2417471Y285245D01*
X2420232Y277179D01*
X2422153Y271392D01*
X2423517Y266837D01*
X2424609Y262468D01*
X2425715Y257238D01*
X2427119Y250102D01*
X2427311Y249122D01*
X2428846Y241580D01*
X2430375Y234572D01*
X2431602Y229455D01*
X2431741Y228936D01*
X2432579Y224736D01*
X2433612Y217876D01*
X2434746Y209196D01*
X2435885Y199533D01*
X2436936Y189726D01*
X2437804Y180615D01*
X2438396Y173039D01*
X2438616Y167835D01*
X2438616Y167770D01*
X2437182Y159822D01*
X2432947Y149969D01*
X2425984Y138324D01*
X2416364Y124997D01*
X2404160Y110102D01*
X2394070Y98749D01*
X2384243Y88475D01*
X2372125Y76565D01*
X2358240Y63486D01*
X2343109Y49703D01*
X2327255Y35684D01*
X2311199Y21893D01*
X2295464Y8797D01*
X2280572Y-3138D01*
X2275553Y-7034D01*
X2270047Y-11185D01*
X2266789Y-13336D01*
X2265294Y-13694D01*
X2265078Y-12465D01*
X2265277Y-11414D01*
X2266083Y-7879D01*
X2267450Y-1928D01*
X2269146Y5434D01*
X2270089Y9516D01*
X2274755Y30660D01*
X2278385Y49516D01*
X2281111Y67106D01*
X2283062Y84453D01*
X2284372Y102578D01*
X2285170Y122505D01*
X2285308Y128003D01*
X2285594Y145292D01*
X2285557Y159727D01*
X2285130Y171953D01*
X2284247Y182617D01*
X2282843Y192366D01*
X2280853Y201846D01*
X2278211Y211704D01*
X2276105Y218642D01*
X2267891Y241066D01*
X2258273Y260531D01*
X2247310Y276964D01*
X2235059Y290293D01*
X2221578Y300446D01*
X2206924Y307351D01*
X2204301Y308202D01*
X2190309Y311015D01*
X2176611Y310649D01*
X2165284Y308091D01*
X2159383Y306012D01*
X2153228Y303397D01*
X2147693Y300678D01*
X2143651Y298284D01*
X2141976Y296649D01*
X2141970Y296583D01*
X2142563Y294817D01*
X2144130Y290638D01*
X2146350Y284898D01*
X2146702Y284000D01*
X2148648Y278705D01*
X2150001Y273874D01*
X2150885Y268636D01*
X2151422Y262116D01*
X2151734Y253444D01*
X2151856Y247367D01*
X2151843Y234633D01*
X2151373Y223596D01*
X2150486Y214997D01*
X2149992Y212260D01*
X2145967Y195004D01*
X2141946Y180488D01*
X2137715Y167946D01*
X2137343Y166959D01*
X2135271Y161009D01*
X2134014Y156402D01*
X2133811Y154040D01*
X2133868Y153950D01*
X2135936Y154014D01*
X2139728Y155502D01*
X2140767Y156036D01*
X2144706Y157713D01*
X2148166Y157834D01*
X2151688Y156079D01*
X2155812Y152124D01*
X2161078Y145649D01*
X2163446Y142520D01*
X2174158Y127006D01*
X2185108Y108959D01*
X2195831Y89289D01*
X2205866Y68903D01*
X2214749Y48709D01*
X2222020Y29616D01*
X2224035Y23559D01*
X2226585Y14797D01*
X2229102Y4832D01*
X2231393Y-5423D01*
X2233268Y-15055D01*
X2234535Y-23149D01*
X2235003Y-28794D01*
X2235003Y-28815D01*
X2233344Y-36205D01*
X2228526Y-42411D01*
X2220790Y-47124D01*
X2220616Y-47197D01*
X2211579Y-50272D01*
X2200076Y-53133D01*
X2187153Y-55584D01*
X2173856Y-57426D01*
X2161230Y-58461D01*
X2161001Y-58472D01*
X2152118Y-58831D01*
X2145974Y-58888D01*
X2141801Y-58554D01*
X2138834Y-57744D01*
X2136307Y-56371D01*
X2135109Y-55547D01*
X2131281Y-52041D01*
X2129819Y-47893D01*
X2129682Y-45034D01*
X2129682Y-38385D01*
X2116208Y-37366D01*
X2106828Y-36178D01*
X2100125Y-33985D01*
X2095900Y-30399D01*
X2093951Y-25031D01*
X2094078Y-17492D01*
X2096078Y-7392D01*
X2097658Y-1475D01*
X2101785Y19156D01*
X2102429Y39413D01*
X2099585Y59335D01*
X2093247Y78965D01*
X2084474Y96546D01*
X2080665Y102512D01*
X2075361Y110079D01*
X2069103Y118549D01*
X2062430Y127227D01*
X2055883Y135416D01*
X2050001Y142419D01*
X2045326Y147540D01*
X2043756Y149049D01*
X2041929Y150431D01*
X2039685Y151367D01*
X2036393Y151920D01*
X2031426Y152153D01*
X2024153Y152130D01*
X2014981Y151939D01*
X2003631Y151520D01*
X1995384Y150894D01*
X1990385Y150076D01*
X1988842Y149325D01*
X1987353Y145084D01*
X1987522Y139287D01*
X1989432Y131599D01*
X1993166Y121684D01*
X1998716Y109398D01*
X2002863Y100546D01*
X2006582Y92317D01*
X2009542Y85466D01*
X2011411Y80749D01*
X2011749Y79731D01*
X2013191Y74875D01*
X2015200Y68148D01*
X2017252Y61299D01*
X2021001Y47305D01*
X2024350Y31937D01*
X2027115Y16285D01*
X2029108Y1438D01*
X2030145Y-11514D01*
X2030240Y-14759D01*
X2030303Y-23004D01*
X2030120Y-28490D01*
X2029562Y-31968D01*
X2028500Y-34187D01*
X2026807Y-35898D01*
X2026591Y-36075D01*
X2021341Y-38734D01*
X2013000Y-40850D01*
X2001952Y-42369D01*
X1988583Y-43232D01*
X1976991Y-43414D01*
X1967045Y-43490D01*
X1960063Y-43821D01*
X1955504Y-44463D01*
X1952827Y-45470D01*
X1952253Y-45902D01*
X1947758Y-48775D01*
X1940870Y-51825D01*
X1932666Y-54681D01*
X1924223Y-56972D01*
X1916615Y-58328D01*
X1915972Y-58395D01*
X1909890Y-59311D01*
X1905139Y-60630D01*
X1903031Y-61829D01*
X1899830Y-63467D01*
X1894677Y-64180D01*
X1889003Y-63984D01*
X1884239Y-62897D01*
X1882177Y-61576D01*
X1879041Y-59801D01*
X1874261Y-58946D01*
X1873624Y-58933D01*
X1865201Y-58118D01*
X1857704Y-55939D01*
X1852290Y-52757D01*
X1851573Y-52048D01*
X1849334Y-48098D01*
X1847752Y-42719D01*
X1847596Y-41736D01*
X1847402Y-38844D01*
X1847785Y-35841D01*
X1848976Y-32161D01*
X1851205Y-27242D01*
X1854703Y-20518D01*
X1859700Y-11424D01*
X1860736Y-9565D01*
X1868666Y4813D01*
X1876697Y19673D01*
X1884651Y34661D01*
X1892352Y49427D01*
X1899622Y63616D01*
X1906285Y76878D01*
X1912164Y88858D01*
X1917081Y99204D01*
X1920861Y107564D01*
X1923325Y113586D01*
X1924297Y116916D01*
X1924305Y117087D01*
X1923569Y120440D01*
X1921499Y126435D01*
X1918306Y134561D01*
X1914200Y144308D01*
X1909389Y155164D01*
X1904085Y166619D01*
X1903250Y168376D01*
X1897304Y181058D01*
X1892787Y191353D01*
X1889508Y199989D01*
X1887275Y207692D01*
X1885897Y215188D01*
X1885179Y223205D01*
X1884932Y232470D01*
X1884924Y237712D01*
X1885020Y246648D01*
X1885359Y254106D01*
X1886114Y260733D01*
X1887459Y267174D01*
X1889568Y274075D01*
X1892613Y282081D01*
X1896770Y291838D01*
X1902211Y303992D01*
X1903524Y306888D01*
X1907143Y315060D01*
X1910074Y322053D01*
X1912080Y327270D01*
X1912925Y330119D01*
X1912897Y330452D01*
X1910922Y330498D01*
X1906199Y329959D01*
X1899425Y328933D01*
X1891297Y327515D01*
X1890874Y327436D01*
X1881891Y325806D01*
X1875398Y324815D01*
X1870438Y324437D01*
X1866053Y324646D01*
X1861286Y325415D01*
X1856219Y326490D01*
X1842042Y330510D01*
X1830896Y335731D01*
X1822459Y342311D01*
X1821020Y343860D01*
X1816902Y349535D01*
X1815806Y354300D01*
X1817719Y359007D01*
X1820739Y362619D01*
X1823949Y366131D01*
X1825815Y368469D01*
X1826005Y368864D01*
X1824929Y370433D01*
X1822074Y373935D01*
X1818003Y378686D01*
X1816912Y379930D01*
X1808282Y390291D01*
X1801868Y399404D01*
X1797102Y408156D01*
X1794198Y415196D01*
X1790485Y425379D01*
X1779721Y425911D01*
X1773911Y426223D01*
X1771325Y426520D01*
X1771679Y426956D01*
X1774691Y427687D01*
X1775978Y427967D01*
X1782465Y430014D01*
X1786587Y432649D01*
X1787909Y435515D01*
X1787166Y437212D01*
X1783800Y439304D01*
X1782152Y439578D01*
X1778875Y440523D01*
X1774315Y442890D01*
X1772634Y443967D01*
X1768165Y446660D01*
X1764624Y448208D01*
X1763802Y448355D01*
X1761102Y447073D01*
X1756679Y443557D01*
X1751017Y438299D01*
X1744602Y431794D01*
X1737920Y424535D01*
X1731454Y417015D01*
X1725692Y409729D01*
X1725319Y409228D01*
X1720281Y402524D01*
X1716870Y398306D01*
X1714669Y396209D01*
X1713257Y395865D01*
X1712216Y396909D01*
X1711886Y397489D01*
X1710897Y400621D01*
X1709666Y406413D01*
X1708353Y414034D01*
X1707124Y422574D01*
X1705367Y447668D01*
X1706688Y471865D01*
X1711040Y494871D01*
X1718372Y516392D01*
X1725205Y530333D01*
X1729167Y536943D01*
X1733348Y543180D01*
X1736625Y547427D01*
X1739740Y551242D01*
X1741557Y553985D01*
X1741748Y554551D01*
X1740633Y556351D01*
X1737667Y560005D01*
X1733418Y564823D01*
X1731938Y566437D01*
X1725071Y574391D01*
X1721030Y580379D01*
X1719776Y584466D01*
X1720116Y585712D01*
X1722634Y586794D01*
X1728012Y586960D01*
X1735733Y586250D01*
X1745280Y584705D01*
X1752832Y583135D01*
X1770096Y579242D01*
X1779181Y583898D01*
X1798826Y592607D01*
X1817715Y598126D01*
X1836291Y600564D01*
X1847470Y600594D01*
X1854766Y600105D01*
X1863421Y599269D01*
X1872680Y598191D01*
X1881787Y596974D01*
X1889988Y595721D01*
X1896527Y594538D01*
X1900648Y593526D01*
X1901486Y593172D01*
X1903960Y592469D01*
X1909069Y591515D01*
X1915957Y590428D01*
X1923766Y589326D01*
X1931641Y588328D01*
X1938725Y587552D01*
X1944162Y587115D01*
X1945809Y587061D01*
X1950122Y587275D01*
X1951968Y588558D01*
X1952387Y591782D01*
X1952391Y592590D01*
X1953074Y602628D01*
X1954947Y612153D01*
X1957745Y620170D01*
X1961176Y625655D01*
X1964887Y628990D01*
X1968063Y630803D01*
X1968694Y630912D01*
X1972352Y629752D01*
G37*
D14*
X-4833500Y1532000D02*
X-4833500Y1260000D01*
X-4833500Y620000D02*
X-4833500Y980000D01*
X-4833500Y-10000D02*
X-4833500Y350000D01*
X-4833500Y-553000D02*
X-4833500Y-290000D01*
X-4493500Y1532000D02*
X-4833500Y1532000D01*
X-4493500Y1532000D02*
X-4493500Y1832000D01*
X-4358500Y-553000D02*
X-4833500Y-553000D01*
X-4358500Y-845000D02*
X-4358500Y-553000D01*
X-3468500Y-845000D02*
X-4358500Y-845000D01*
X-3464500Y-845000D02*
X-3464500Y-553000D01*
X-3329500Y1832000D02*
X-4493500Y1832000D01*
X-3329500Y1532000D02*
X-3329500Y1832000D01*
X-2989500Y1532000D02*
X-3329500Y1532000D01*
X-2989500Y1532000D02*
X-2989500Y1260000D01*
X-2989500Y980000D02*
X-2989500Y620000D01*
X-2989500Y350000D02*
X-2989500Y-10000D01*
X-2989500Y-290000D02*
X-2989500Y-553000D01*
X-2989500Y-553000D02*
X-3464500Y-553000D01*
X-2510500Y67000D02*
X-2510500Y587000D01*
X-2244500Y587000D02*
X-2510500Y587000D01*
X-2244500Y67000D02*
X-2510500Y67000D01*
X-2244500Y67000D02*
X-2244500Y587000D01*
X-3033000Y-1367000D02*
X-3033000Y-1887000D01*
X-3033000Y-1367000D02*
X-2767000Y-1367000D01*
X-3033000Y-1887000D02*
X-2767000Y-1887000D01*
X-2767000Y-1367000D02*
X-2767000Y-1887000D01*
X-460000Y1930000D02*
X460000Y1930000D01*
X-460000Y1070000D02*
X-460000Y1930000D01*
X-460000Y480000D02*
X-460000Y610000D01*
X-260000Y480000D02*
X-460000Y480000D01*
X320000Y450000D02*
X490000Y450000D01*
X460000Y1930000D02*
X460000Y480000D01*
X460000Y480000D02*
X260000Y480000D01*
X490000Y450000D02*
X490000Y580000D01*
X-1155000Y200000D02*
G75*
G02*
X-1495000Y200000I-170000J0D01*
G01*
X-1495000Y200000D02*
G75*
G02*
X-1155000Y200000I170000J0D01*
G01*
X-2574000Y1059800D02*
X-2574000Y1140200D01*
X-2570000Y1036700D02*
X-2570000Y1163300D01*
X-2566000Y1019900D02*
X-2566000Y1180100D01*
X-2562000Y1006100D02*
X-2562000Y1193900D01*
X-2558000Y994200D02*
X-2558000Y1205800D01*
X-2554000Y983500D02*
X-2554000Y1216500D01*
X-2550000Y973900D02*
X-2550000Y1226100D01*
X-2546000Y965000D02*
X-2546000Y1235000D01*
X-2542000Y956800D02*
X-2542000Y1243200D01*
X-2538000Y949100D02*
X-2538000Y1250900D01*
X-2534000Y941900D02*
X-2534000Y1258100D01*
X-2530000Y935100D02*
X-2530000Y1264900D01*
X-2526000Y928600D02*
X-2526000Y1271400D01*
X-2522000Y922500D02*
X-2522000Y1277500D01*
X-2518000Y916600D02*
X-2518000Y1283400D01*
X-2514000Y911000D02*
X-2514000Y1289000D01*
X-2510000Y905700D02*
X-2510000Y1294300D01*
X-2506000Y900500D02*
X-2506000Y1299500D01*
X-2502000Y895600D02*
X-2502000Y1304400D01*
X-2498000Y890900D02*
X-2498000Y1309100D01*
X-2494000Y886300D02*
X-2494000Y1313700D01*
X-2490000Y881900D02*
X-2490000Y1318100D01*
X-2486000Y877700D02*
X-2486000Y1322300D01*
X-2482000Y873600D02*
X-2482000Y1326400D01*
X-2478000Y1204000D02*
X-2478000Y1330400D01*
X-2478000Y869600D02*
X-2478000Y996000D01*
X-2474000Y1204000D02*
X-2474000Y1334200D01*
X-2474000Y865800D02*
X-2474000Y996000D01*
X-2470000Y1204000D02*
X-2470000Y1337900D01*
X-2470000Y862100D02*
X-2470000Y996000D01*
X-2466000Y1204000D02*
X-2466000Y1341500D01*
X-2466000Y858500D02*
X-2466000Y996000D01*
X-2462000Y1204000D02*
X-2462000Y1345000D01*
X-2462000Y855000D02*
X-2462000Y996000D01*
X-2458000Y1204000D02*
X-2458000Y1348300D01*
X-2458000Y851700D02*
X-2458000Y996000D01*
X-2454000Y1204000D02*
X-2454000Y1351600D01*
X-2454000Y848400D02*
X-2454000Y996000D01*
X-2450000Y1204000D02*
X-2450000Y1354700D01*
X-2450000Y845300D02*
X-2450000Y996000D01*
X-2446000Y1204000D02*
X-2446000Y1357700D01*
X-2446000Y842300D02*
X-2446000Y996000D01*
X-2442000Y1204000D02*
X-2442000Y1360700D01*
X-2442000Y839300D02*
X-2442000Y996000D01*
X-2438000Y1204000D02*
X-2438000Y1363600D01*
X-2438000Y836400D02*
X-2438000Y996000D01*
X-2434000Y1204000D02*
X-2434000Y1366300D01*
X-2434000Y833700D02*
X-2434000Y996000D01*
X-2430000Y1204000D02*
X-2430000Y1369000D01*
X-2430000Y831000D02*
X-2430000Y996000D01*
X-2426000Y1204000D02*
X-2426000Y1371600D01*
X-2426000Y828400D02*
X-2426000Y996000D01*
X-2422000Y1204000D02*
X-2422000Y1374100D01*
X-2422000Y825900D02*
X-2422000Y996000D01*
X-2418000Y1204000D02*
X-2418000Y1376500D01*
X-2418000Y823500D02*
X-2418000Y996000D01*
X-2414000Y1204000D02*
X-2414000Y1378900D01*
X-2414000Y821100D02*
X-2414000Y996000D01*
X-2410000Y1204000D02*
X-2410000Y1381200D01*
X-2410000Y818800D02*
X-2410000Y996000D01*
X-2406000Y1204000D02*
X-2406000Y1383400D01*
X-2406000Y816600D02*
X-2406000Y996000D01*
X-2402000Y1204000D02*
X-2402000Y1385500D01*
X-2402000Y814500D02*
X-2402000Y996000D01*
X-2398000Y1204000D02*
X-2398000Y1387600D01*
X-2398000Y812400D02*
X-2398000Y996000D01*
X-2394000Y1204000D02*
X-2394000Y1389600D01*
X-2394000Y810400D02*
X-2394000Y996000D01*
X-2390000Y1204000D02*
X-2390000Y1391500D01*
X-2390000Y808500D02*
X-2390000Y996000D01*
X-2386000Y1204000D02*
X-2386000Y1393400D01*
X-2386000Y806600D02*
X-2386000Y996000D01*
X-2382000Y1204000D02*
X-2382000Y1395200D01*
X-2382000Y804800D02*
X-2382000Y996000D01*
X-2378000Y1204000D02*
X-2378000Y1396900D01*
X-2378000Y803100D02*
X-2378000Y996000D01*
X-2374000Y1204000D02*
X-2374000Y1398600D01*
X-2374000Y801400D02*
X-2374000Y996000D01*
X-2370000Y1204000D02*
X-2370000Y1400200D01*
X-2370000Y799800D02*
X-2370000Y996000D01*
X-2366000Y1204000D02*
X-2366000Y1401700D01*
X-2366000Y798300D02*
X-2366000Y996000D01*
X-2362000Y1204000D02*
X-2362000Y1403200D01*
X-2362000Y796800D02*
X-2362000Y996000D01*
X-2358000Y1204000D02*
X-2358000Y1404700D01*
X-2358000Y795300D02*
X-2358000Y996000D01*
X-2354000Y1204000D02*
X-2354000Y1406000D01*
X-2354000Y794000D02*
X-2354000Y996000D01*
X-2350000Y1204000D02*
X-2350000Y1407300D01*
X-2350000Y792700D02*
X-2350000Y996000D01*
X-2346000Y1204000D02*
X-2346000Y1408600D01*
X-2346000Y791400D02*
X-2346000Y996000D01*
X-2342000Y1204000D02*
X-2342000Y1409800D01*
X-2342000Y790200D02*
X-2342000Y996000D01*
X-2338000Y1204000D02*
X-2338000Y1410900D01*
X-2338000Y789100D02*
X-2338000Y996000D01*
X-2334000Y1204000D02*
X-2334000Y1412000D01*
X-2334000Y788000D02*
X-2334000Y996000D01*
X-2330000Y1204000D02*
X-2330000Y1413100D01*
X-2330000Y786900D02*
X-2330000Y996000D01*
X-2326000Y1204000D02*
X-2326000Y1414000D01*
X-2326000Y786000D02*
X-2326000Y996000D01*
X-2322000Y1204000D02*
X-2322000Y1415000D01*
X-2322000Y785000D02*
X-2322000Y996000D01*
X-2318000Y1204000D02*
X-2318000Y1415900D01*
X-2318000Y784100D02*
X-2318000Y996000D01*
X-2314000Y1204000D02*
X-2314000Y1416700D01*
X-2314000Y783300D02*
X-2314000Y996000D01*
X-2310000Y1204000D02*
X-2310000Y1417400D01*
X-2310000Y782600D02*
X-2310000Y996000D01*
X-2306000Y1204000D02*
X-2306000Y1418200D01*
X-2306000Y781800D02*
X-2306000Y996000D01*
X-2302000Y1204000D02*
X-2302000Y1418800D01*
X-2302000Y781200D02*
X-2302000Y996000D01*
X-2298000Y1204000D02*
X-2298000Y1419500D01*
X-2298000Y780500D02*
X-2298000Y996000D01*
X-2294000Y1204000D02*
X-2294000Y1420000D01*
X-2294000Y780000D02*
X-2294000Y996000D01*
X-2290000Y1204000D02*
X-2290000Y1420500D01*
X-2290000Y779500D02*
X-2290000Y996000D01*
X-2286000Y1204000D02*
X-2286000Y1421000D01*
X-2286000Y779000D02*
X-2286000Y996000D01*
X-2282000Y1204000D02*
X-2282000Y1421400D01*
X-2282000Y778600D02*
X-2282000Y996000D01*
X-2278000Y1204000D02*
X-2278000Y1421800D01*
X-2278000Y778200D02*
X-2278000Y996000D01*
X-2274000Y1204000D02*
X-2274000Y1422100D01*
X-2274000Y777900D02*
X-2274000Y996000D01*
X-2270000Y777600D02*
X-2270000Y1422400D01*
X-2266000Y777400D02*
X-2266000Y1422600D01*
X-2262000Y777200D02*
X-2262000Y1422800D01*
X-2258000Y777100D02*
X-2258000Y1422900D01*
X-2254000Y777000D02*
X-2254000Y1423000D01*
X-2250000Y777000D02*
X-2250000Y1423000D01*
D10*
X-2125000Y918500D02*
X-2125000Y981500D01*
X-2093500Y950000D02*
X-2156500Y950000D01*
D14*
X-1923000Y1100000D02*
G75*
G02*
X-2577000Y1100000I-327000J0D01*
G01*
X-2577000Y1100000D02*
G75*
G02*
X-1923000Y1100000I327000J0D01*
G01*
X826400Y469000D02*
X842000Y469000D01*
X1058000Y469000D02*
X1073600Y469000D01*
X826448Y469000D02*
G75*
G02*
X842000Y792144I123552J156000D01*
G01*
X842000Y520904D02*
G75*
G02*
X842000Y729096I108000J104096D01*
G01*
X1058000Y792144D02*
G75*
G02*
X1073552Y469000I-108000J-167144D01*
G01*
X1058000Y729096D02*
G75*
G02*
X1058000Y520904I-108000J-104096D01*
G01*
D16*
X-290000Y-410000D02*
X-290000Y-435400D01*
X-290000Y-574600D02*
X-290000Y-625400D01*
X-290000Y-774600D02*
X-290000Y-825400D01*
X-290000Y-990000D02*
X-290000Y-964600D01*
X290000Y-410000D02*
X-290000Y-410000D01*
X290000Y-410000D02*
X290000Y-435400D01*
X290000Y-574600D02*
X290000Y-625400D01*
X290000Y-774600D02*
X290000Y-825400D01*
X290000Y-990000D02*
X-290000Y-990000D01*
X290000Y-990000D02*
X290000Y-964600D01*
X100000Y-577500D02*
X-100000Y-577500D01*
X-100000Y-822500D01*
X100000Y-822500D01*
X100000Y-577500D01*
D14*
X-1803000Y1934500D02*
X-1296000Y1934500D01*
X-1803000Y957500D02*
X-1803000Y1934500D01*
X-1803000Y957500D02*
X-1296000Y957500D01*
X-1727800Y1700000D02*
X-1651600Y1700000D01*
X-1727800Y1547600D02*
X-1727800Y1700000D01*
X-1727800Y1344400D02*
X-1727800Y1192000D01*
X-1727800Y1192000D02*
X-1651600Y1192000D01*
X-1702400Y1446000D02*
X-1651600Y1446000D01*
X-1296000Y957500D02*
X-1296000Y1934500D01*
X-1753200Y1344400D02*
X-1702400Y1344400D01*
X-1702400Y1547600D01*
X-1753200Y1547600D01*
X-1753200Y1344400D01*
X-1677000Y1433300D02*
X-1702400Y1446000D01*
X-1677000Y1458700D01*
X-1677000Y1433300D01*
G36*
X-1677000Y1433300D02*
G01*
X-1702400Y1446000D01*
X-1677000Y1458700D01*
X-1677000Y1433300D01*
G37*
D10*
X2093500Y1250000D02*
X2156500Y1250000D01*
X2125000Y1281500D02*
X2125000Y1218500D01*
D14*
X2250000Y1423000D02*
X2250000Y777000D01*
X2254000Y1423000D02*
X2254000Y777000D01*
X2258000Y1422900D02*
X2258000Y777100D01*
X2262000Y1422800D02*
X2262000Y777200D01*
X2266000Y1422600D02*
X2266000Y777400D01*
X2270000Y1422400D02*
X2270000Y777600D01*
X2274000Y1422100D02*
X2274000Y1204000D01*
X2274000Y996000D02*
X2274000Y777900D01*
X2278000Y1421800D02*
X2278000Y1204000D01*
X2278000Y996000D02*
X2278000Y778200D01*
X2282000Y1421400D02*
X2282000Y1204000D01*
X2282000Y996000D02*
X2282000Y778600D01*
X2286000Y1421000D02*
X2286000Y1204000D01*
X2286000Y996000D02*
X2286000Y779000D01*
X2290000Y1420500D02*
X2290000Y1204000D01*
X2290000Y996000D02*
X2290000Y779500D01*
X2294000Y1420000D02*
X2294000Y1204000D01*
X2294000Y996000D02*
X2294000Y780000D01*
X2298000Y1419500D02*
X2298000Y1204000D01*
X2298000Y996000D02*
X2298000Y780500D01*
X2302000Y1418800D02*
X2302000Y1204000D01*
X2302000Y996000D02*
X2302000Y781200D01*
X2306000Y1418200D02*
X2306000Y1204000D01*
X2306000Y996000D02*
X2306000Y781800D01*
X2310000Y1417400D02*
X2310000Y1204000D01*
X2310000Y996000D02*
X2310000Y782600D01*
X2314000Y1416700D02*
X2314000Y1204000D01*
X2314000Y996000D02*
X2314000Y783300D01*
X2318000Y1415900D02*
X2318000Y1204000D01*
X2318000Y996000D02*
X2318000Y784100D01*
X2322000Y1415000D02*
X2322000Y1204000D01*
X2322000Y996000D02*
X2322000Y785000D01*
X2326000Y1414000D02*
X2326000Y1204000D01*
X2326000Y996000D02*
X2326000Y786000D01*
X2330000Y1413100D02*
X2330000Y1204000D01*
X2330000Y996000D02*
X2330000Y786900D01*
X2334000Y1412000D02*
X2334000Y1204000D01*
X2334000Y996000D02*
X2334000Y788000D01*
X2338000Y1410900D02*
X2338000Y1204000D01*
X2338000Y996000D02*
X2338000Y789100D01*
X2342000Y1409800D02*
X2342000Y1204000D01*
X2342000Y996000D02*
X2342000Y790200D01*
X2346000Y1408600D02*
X2346000Y1204000D01*
X2346000Y996000D02*
X2346000Y791400D01*
X2350000Y1407300D02*
X2350000Y1204000D01*
X2350000Y996000D02*
X2350000Y792700D01*
X2354000Y1406000D02*
X2354000Y1204000D01*
X2354000Y996000D02*
X2354000Y794000D01*
X2358000Y1404700D02*
X2358000Y1204000D01*
X2358000Y996000D02*
X2358000Y795300D01*
X2362000Y1403200D02*
X2362000Y1204000D01*
X2362000Y996000D02*
X2362000Y796800D01*
X2366000Y1401700D02*
X2366000Y1204000D01*
X2366000Y996000D02*
X2366000Y798300D01*
X2370000Y1400200D02*
X2370000Y1204000D01*
X2370000Y996000D02*
X2370000Y799800D01*
X2374000Y1398600D02*
X2374000Y1204000D01*
X2374000Y996000D02*
X2374000Y801400D01*
X2378000Y1396900D02*
X2378000Y1204000D01*
X2378000Y996000D02*
X2378000Y803100D01*
X2382000Y1395200D02*
X2382000Y1204000D01*
X2382000Y996000D02*
X2382000Y804800D01*
X2386000Y1393400D02*
X2386000Y1204000D01*
X2386000Y996000D02*
X2386000Y806600D01*
X2390000Y1391500D02*
X2390000Y1204000D01*
X2390000Y996000D02*
X2390000Y808500D01*
X2394000Y1389600D02*
X2394000Y1204000D01*
X2394000Y996000D02*
X2394000Y810400D01*
X2398000Y1387600D02*
X2398000Y1204000D01*
X2398000Y996000D02*
X2398000Y812400D01*
X2402000Y1385500D02*
X2402000Y1204000D01*
X2402000Y996000D02*
X2402000Y814500D01*
X2406000Y1383400D02*
X2406000Y1204000D01*
X2406000Y996000D02*
X2406000Y816600D01*
X2410000Y1381200D02*
X2410000Y1204000D01*
X2410000Y996000D02*
X2410000Y818800D01*
X2414000Y1378900D02*
X2414000Y1204000D01*
X2414000Y996000D02*
X2414000Y821100D01*
X2418000Y1376500D02*
X2418000Y1204000D01*
X2418000Y996000D02*
X2418000Y823500D01*
X2422000Y1374100D02*
X2422000Y1204000D01*
X2422000Y996000D02*
X2422000Y825900D01*
X2426000Y1371600D02*
X2426000Y1204000D01*
X2426000Y996000D02*
X2426000Y828400D01*
X2430000Y1369000D02*
X2430000Y1204000D01*
X2430000Y996000D02*
X2430000Y831000D01*
X2434000Y1366300D02*
X2434000Y1204000D01*
X2434000Y996000D02*
X2434000Y833700D01*
X2438000Y1363600D02*
X2438000Y1204000D01*
X2438000Y996000D02*
X2438000Y836400D01*
X2442000Y1360700D02*
X2442000Y1204000D01*
X2442000Y996000D02*
X2442000Y839300D01*
X2446000Y1357700D02*
X2446000Y1204000D01*
X2446000Y996000D02*
X2446000Y842300D01*
X2450000Y1354700D02*
X2450000Y1204000D01*
X2450000Y996000D02*
X2450000Y845300D01*
X2454000Y1351600D02*
X2454000Y1204000D01*
X2454000Y996000D02*
X2454000Y848400D01*
X2458000Y1348300D02*
X2458000Y1204000D01*
X2458000Y996000D02*
X2458000Y851700D01*
X2462000Y1345000D02*
X2462000Y1204000D01*
X2462000Y996000D02*
X2462000Y855000D01*
X2466000Y1341500D02*
X2466000Y1204000D01*
X2466000Y996000D02*
X2466000Y858500D01*
X2470000Y1337900D02*
X2470000Y1204000D01*
X2470000Y996000D02*
X2470000Y862100D01*
X2474000Y1334200D02*
X2474000Y1204000D01*
X2474000Y996000D02*
X2474000Y865800D01*
X2478000Y1330400D02*
X2478000Y1204000D01*
X2478000Y996000D02*
X2478000Y869600D01*
X2482000Y1326400D02*
X2482000Y873600D01*
X2486000Y1322300D02*
X2486000Y877700D01*
X2490000Y1318100D02*
X2490000Y881900D01*
X2494000Y1313700D02*
X2494000Y886300D01*
X2498000Y1309100D02*
X2498000Y890900D01*
X2502000Y1304400D02*
X2502000Y895600D01*
X2506000Y1299500D02*
X2506000Y900500D01*
X2510000Y1294300D02*
X2510000Y905700D01*
X2514000Y1289000D02*
X2514000Y911000D01*
X2518000Y1283400D02*
X2518000Y916600D01*
X2522000Y1277500D02*
X2522000Y922500D01*
X2526000Y1271400D02*
X2526000Y928600D01*
X2530000Y1264900D02*
X2530000Y935100D01*
X2534000Y1258100D02*
X2534000Y941900D01*
X2538000Y1250900D02*
X2538000Y949100D01*
X2542000Y1243200D02*
X2542000Y956800D01*
X2546000Y1235000D02*
X2546000Y965000D01*
X2550000Y1226100D02*
X2550000Y973900D01*
X2554000Y1216500D02*
X2554000Y983500D01*
X2558000Y1205800D02*
X2558000Y994200D01*
X2562000Y1193900D02*
X2562000Y1006100D01*
X2566000Y1180100D02*
X2566000Y1019900D01*
X2570000Y1163300D02*
X2570000Y1036700D01*
X2574000Y1140200D02*
X2574000Y1059800D01*
X2577000Y1100000D02*
G75*
G02*
X1923000Y1100000I-327000J0D01*
G01*
X1923000Y1100000D02*
G75*
G02*
X2577000Y1100000I327000J0D01*
G01*
X3070000Y-900000D02*
G75*
G02*
X2730000Y-900000I-170000J0D01*
G01*
X2730000Y-900000D02*
G75*
G02*
X3070000Y-900000I170000J0D01*
G01*
X2767000Y-1367000D02*
X2767000Y-1887000D01*
X2767000Y-1367000D02*
X3033000Y-1367000D01*
X2767000Y-1887000D02*
X3033000Y-1887000D01*
X3033000Y-1367000D02*
X3033000Y-1887000D01*
X2295000Y1775000D02*
G75*
G02*
X1955000Y1775000I-170000J0D01*
G01*
X1955000Y1775000D02*
G75*
G02*
X2295000Y1775000I170000J0D01*
G01*
X1550000Y1699000D02*
X1550000Y1597000D01*
X1550000Y951000D02*
X1550000Y1053000D01*
X1697000Y1519000D02*
X1403000Y1519000D01*
X1697000Y1507000D02*
X1403000Y1507000D01*
X1697000Y1495000D02*
X1403000Y1495000D01*
X1697000Y1597000D02*
X1403000Y1597000D01*
X1403000Y1053000D01*
X1697000Y1053000D01*
X1697000Y1597000D01*
D16*
X-1504000Y635400D02*
X-1504000Y764600D01*
X-1478600Y790000D02*
X-1427800Y790000D01*
X-1427800Y610000D02*
X-1478600Y610000D01*
X-1402400Y623800D02*
X-1097600Y623800D01*
X-1094699Y776200D02*
X-1399499Y776200D01*
X-1072200Y790000D02*
X-1021400Y790000D01*
X-1021400Y610000D02*
X-1072200Y610000D01*
X-996000Y764600D02*
X-996000Y635400D01*
X-1504000Y764600D02*
G75*
G02*
X-1478600Y790000I25400J0D01*
G01*
X-1478600Y610000D02*
G75*
G02*
X-1504000Y635400I0J25400D01*
G01*
X-1427800Y790000D02*
G75*
G02*
X-1399498Y776200I0J-35921D01*
G01*
X-1402400Y623800D02*
G75*
G02*
X-1430701Y610000I-28302J22122D01*
G01*
X-1094699Y776200D02*
G75*
G02*
X-1066397Y790000I28302J-22122D01*
G01*
X-1069299Y610000D02*
G75*
G02*
X-1097601Y623800I-1J35920D01*
G01*
X-1021400Y790000D02*
G75*
G02*
X-996000Y764600I0J-25400D01*
G01*
X-996000Y635400D02*
G75*
G02*
X-1021400Y610000I-25400J0D01*
G01*
D14*
X708000Y1939000D02*
X708000Y949000D01*
X1013500Y1511667D02*
X886500Y1511667D01*
X1192000Y1939000D02*
X708000Y1939000D01*
X1192000Y1939000D02*
X1192000Y949000D01*
X1192000Y949000D02*
X708000Y949000D01*
X1216000Y1963000D02*
X1077700Y1963000D01*
X1216000Y1963000D02*
X1216000Y1824700D01*
X1013500Y1647000D02*
X886500Y1647000D01*
X886500Y1511667D01*
X1013500Y1511667D01*
X1013500Y1647000D01*
G36*
X1013500Y1647000D02*
G01*
X886500Y1647000D01*
X886500Y1511667D01*
X1013500Y1511667D01*
X1013500Y1647000D01*
G37*
X1013500Y1647000D02*
X886500Y1647000D01*
X886500Y1241000D01*
X1013500Y1241000D01*
X1013500Y1647000D01*
X-1955000Y1775000D02*
G75*
G02*
X-2295000Y1775000I-170000J0D01*
G01*
X-2295000Y1775000D02*
G75*
G02*
X-1955000Y1775000I170000J0D01*
G01*
X-1192000Y1939000D02*
X-1192000Y949000D01*
X-886500Y1511667D02*
X-1013500Y1511667D01*
X-708000Y1939000D02*
X-1192000Y1939000D01*
X-708000Y1939000D02*
X-708000Y949000D01*
X-708000Y949000D02*
X-1192000Y949000D01*
X-684000Y1963000D02*
X-822300Y1963000D01*
X-684000Y1963000D02*
X-684000Y1824700D01*
X-886500Y1647000D02*
X-1013500Y1647000D01*
X-1013500Y1511667D01*
X-886500Y1511667D01*
X-886500Y1647000D01*
G36*
X-886500Y1647000D02*
G01*
X-1013500Y1647000D01*
X-1013500Y1511667D01*
X-886500Y1511667D01*
X-886500Y1647000D01*
G37*
X-886500Y1647000D02*
X-1013500Y1647000D01*
X-1013500Y1241000D01*
X-886500Y1241000D01*
X-886500Y1647000D01*
X2989500Y1512000D02*
X2989500Y1240000D01*
X2989500Y600000D02*
X2989500Y960000D01*
X2989500Y-30000D02*
X2989500Y330000D01*
X2989500Y-573000D02*
X2989500Y-310000D01*
X3329500Y1512000D02*
X2989500Y1512000D01*
X3329500Y1512000D02*
X3329500Y1812000D01*
X3464500Y-573000D02*
X2989500Y-573000D01*
X3464500Y-865000D02*
X3464500Y-573000D01*
X4354500Y-865000D02*
X3464500Y-865000D01*
X4358500Y-865000D02*
X4358500Y-573000D01*
X4493500Y1812000D02*
X3329500Y1812000D01*
X4493500Y1512000D02*
X4493500Y1812000D01*
X4833500Y1512000D02*
X4493500Y1512000D01*
X4833500Y1512000D02*
X4833500Y1240000D01*
X4833500Y960000D02*
X4833500Y600000D01*
X4833500Y330000D02*
X4833500Y-30000D01*
X4833500Y-310000D02*
X4833500Y-573000D01*
X4833500Y-573000D02*
X4358500Y-573000D01*
%LPC*%
D17*
X-2900000Y-900000D03*
X-4723000Y485000D03*
X-3100000Y485000D03*
X-4723000Y1120000D03*
X-3100000Y1120000D03*
X-4723000Y-150000D03*
X-3100000Y-150000D03*
D18*
X-2377500Y200000D03*
D19*
X-2377500Y454000D03*
D18*
X-2900000Y-1500000D03*
D19*
X-2900000Y-1754000D03*
D20*
X0Y550000D03*
D21*
X0Y1180000D03*
D22*
X-480000Y840000D03*
D17*
X-1325000Y200000D03*
G36*
G01*
X-2045000Y1155000D02*
X-2045000Y1045000D01*
G75*
G02*
X-2070000Y1020000I-25000J0D01*
G01*
X-2180000Y1020000D01*
G75*
G02*
X-2205000Y1045000I0J25000D01*
G01*
X-2205000Y1155000D01*
G75*
G02*
X-2180000Y1180000I25000J0D01*
G01*
X-2070000Y1180000D01*
G75*
G02*
X-2045000Y1155000I0J-25000D01*
G01*
G37*
D23*
X-2375000Y1100000D03*
D24*
X950000Y498000D03*
D25*
X950000Y752000D03*
D26*
X225000Y-500000D03*
X225000Y-700000D03*
X225000Y-900000D03*
X-225000Y-500000D03*
X-225000Y-700000D03*
X-225000Y-900000D03*
D27*
X-1550000Y1700000D03*
X-1550000Y1446000D03*
X-1550000Y1192000D03*
G36*
G01*
X2045000Y1045000D02*
X2045000Y1155000D01*
G75*
G02*
X2070000Y1180000I25000J0D01*
G01*
X2180000Y1180000D01*
G75*
G02*
X2205000Y1155000I0J-25000D01*
G01*
X2205000Y1045000D01*
G75*
G02*
X2180000Y1020000I-25000J0D01*
G01*
X2070000Y1020000D01*
G75*
G02*
X2045000Y1045000I0J25000D01*
G01*
G37*
D23*
X2375000Y1100000D03*
D17*
X2900000Y-900000D03*
D18*
X2900000Y-1500000D03*
D19*
X2900000Y-1754000D03*
D17*
X2125000Y1775000D03*
G36*
G01*
X1465000Y1943000D02*
X1635000Y1943000D01*
G75*
G02*
X1660000Y1918000I0J-25000D01*
G01*
X1660000Y1748000D01*
G75*
G02*
X1635000Y1723000I-25000J0D01*
G01*
X1465000Y1723000D01*
G75*
G02*
X1440000Y1748000I0J25000D01*
G01*
X1440000Y1918000D01*
G75*
G02*
X1465000Y1943000I25000J0D01*
G01*
G37*
D28*
X1550000Y817000D03*
D23*
X-1631000Y700000D03*
X-869000Y700000D03*
G36*
G01*
X895000Y1905000D02*
X1005000Y1905000D01*
G75*
G02*
X1030000Y1880000I0J-25000D01*
G01*
X1030000Y1770000D01*
G75*
G02*
X1005000Y1745000I-25000J0D01*
G01*
X895000Y1745000D01*
G75*
G02*
X870000Y1770000I0J25000D01*
G01*
X870000Y1880000D01*
G75*
G02*
X895000Y1905000I25000J0D01*
G01*
G37*
X950000Y1063000D03*
D17*
X-2125000Y1775000D03*
G36*
G01*
X-1005000Y1905000D02*
X-895000Y1905000D01*
G75*
G02*
X-870000Y1880000I0J-25000D01*
G01*
X-870000Y1770000D01*
G75*
G02*
X-895000Y1745000I-25000J0D01*
G01*
X-1005000Y1745000D01*
G75*
G02*
X-1030000Y1770000I0J25000D01*
G01*
X-1030000Y1880000D01*
G75*
G02*
X-1005000Y1905000I25000J0D01*
G01*
G37*
D23*
X-950000Y1063000D03*
D17*
X3100000Y465000D03*
X4723000Y465000D03*
X3100000Y1100000D03*
X4723000Y1100000D03*
X3100000Y-170000D03*
X4723000Y-170000D03*
D18*
X2379000Y-700000D03*
D19*
X2125000Y-700000D03*
X2379000Y-954000D03*
X2125000Y-954000D03*
X2379000Y-1208000D03*
X2125000Y-1208000D03*
X2379000Y-1462000D03*
X2125000Y-1462000D03*
X2379000Y-1716000D03*
X2125000Y-1716000D03*
D18*
X-2125000Y-700000D03*
D19*
X-2379000Y-700000D03*
X-2125000Y-954000D03*
X-2379000Y-954000D03*
X-2125000Y-1208000D03*
X-2379000Y-1208000D03*
X-2125000Y-1462000D03*
X-2379000Y-1462000D03*
X-2125000Y-1716000D03*
X-2379000Y-1716000D03*
%LPD*%
M02*
