%TF.GenerationSoftware,KiCad,Pcbnew,9.0.4*%
%TF.CreationDate,2026-04-15T22:56:06+03:00*%
%TF.ProjectId,Twilight_Adapter,5477696c-6967-4687-945f-416461707465,rev?*%
%TF.SameCoordinates,PX8f0d180PY6422c40*%
%TF.FileFunction,Copper,L1,Top*%
%TF.FilePolarity,Positive*%
%FSLAX45Y45*%
G04 Gerber Fmt 4.5, Leading zero omitted, Abs format (unit mm)*
G04 Created by KiCad (PCBNEW 9.0.4) date 2026-04-15 22:56:06*
%MOMM*%
%LPD*%
G01*
G04 APERTURE LIST*
%TA.AperFunction,ComponentPad*%
%ADD10C,3.000000*%
%TD*%
%TA.AperFunction,ComponentPad*%
%ADD11R,1.700000X1.700000*%
%TD*%
%TA.AperFunction,ComponentPad*%
%ADD12C,1.700000*%
%TD*%
%TA.AperFunction,ComponentPad*%
%ADD13R,4.600000X2.000000*%
%TD*%
%TA.AperFunction,ComponentPad*%
%ADD14O,4.200000X2.000000*%
%TD*%
%TA.AperFunction,ComponentPad*%
%ADD15O,2.000000X4.200000*%
%TD*%
%TA.AperFunction,ComponentPad*%
%ADD16C,1.600000*%
%TD*%
%TA.AperFunction,ComponentPad*%
%ADD17R,1.800000X1.800000*%
%TD*%
%TA.AperFunction,ComponentPad*%
%ADD18C,1.800000*%
%TD*%
%TA.AperFunction,ComponentPad*%
%ADD19O,1.300000X1.300000*%
%TD*%
%TA.AperFunction,ComponentPad*%
%ADD20C,1.440000*%
%TD*%
%TA.AperFunction,ComponentPad*%
%ADD21C,2.200000*%
%TD*%
%TA.AperFunction,Conductor*%
%ADD22C,0.800000*%
%TD*%
%TA.AperFunction,Conductor*%
%ADD23C,1.000000*%
%TD*%
G04 APERTURE END LIST*
D10*
X-2900000Y-900000D03*
X-4723000Y485000D03*
X-3100000Y485000D03*
X-4723000Y1120000D03*
X-3100000Y1120000D03*
X-4723000Y-150000D03*
X-3100000Y-150000D03*
D11*
X-2377500Y200000D03*
D12*
X-2377500Y454000D03*
D11*
X-2900000Y-1500000D03*
D12*
X-2900000Y-1754000D03*
D13*
X0Y550000D03*
D14*
X0Y1180000D03*
D15*
X-480000Y840000D03*
D10*
X-1325000Y200000D03*
%TA.AperFunction,ComponentPad*%
G36*
G01*
X-2045000Y1155000D02*
X-2045000Y1045000D01*
G75*
G02*
X-2070000Y1020000I-25000J0D01*
G01*
X-2180000Y1020000D01*
G75*
G02*
X-2205000Y1045000I0J25000D01*
G01*
X-2205000Y1155000D01*
G75*
G02*
X-2180000Y1180000I25000J0D01*
G01*
X-2070000Y1180000D01*
G75*
G02*
X-2045000Y1155000I0J-25000D01*
G01*
G37*
%TD.AperFunction*%
D16*
X-2375000Y1100000D03*
D17*
X950000Y498000D03*
D18*
X950000Y752000D03*
D19*
X225000Y-500000D03*
X225000Y-700000D03*
X225000Y-900000D03*
X-225000Y-500000D03*
X-225000Y-700000D03*
X-225000Y-900000D03*
D20*
X-1550000Y1700000D03*
X-1550000Y1446000D03*
X-1550000Y1192000D03*
%TA.AperFunction,ComponentPad*%
G36*
G01*
X2045000Y1045000D02*
X2045000Y1155000D01*
G75*
G02*
X2070000Y1180000I25000J0D01*
G01*
X2180000Y1180000D01*
G75*
G02*
X2205000Y1155000I0J-25000D01*
G01*
X2205000Y1045000D01*
G75*
G02*
X2180000Y1020000I-25000J0D01*
G01*
X2070000Y1020000D01*
G75*
G02*
X2045000Y1045000I0J25000D01*
G01*
G37*
%TD.AperFunction*%
D16*
X2375000Y1100000D03*
D10*
X2900000Y-900000D03*
D11*
X2900000Y-1500000D03*
D12*
X2900000Y-1754000D03*
D10*
X2125000Y1775000D03*
%TA.AperFunction,ComponentPad*%
G36*
G01*
X1465000Y1943000D02*
X1635000Y1943000D01*
G75*
G02*
X1660000Y1918000I0J-25000D01*
G01*
X1660000Y1748000D01*
G75*
G02*
X1635000Y1723000I-25000J0D01*
G01*
X1465000Y1723000D01*
G75*
G02*
X1440000Y1748000I0J25000D01*
G01*
X1440000Y1918000D01*
G75*
G02*
X1465000Y1943000I25000J0D01*
G01*
G37*
%TD.AperFunction*%
D21*
X1550000Y817000D03*
D16*
X-1631000Y700000D03*
X-869000Y700000D03*
%TA.AperFunction,ComponentPad*%
G36*
G01*
X895000Y1905000D02*
X1005000Y1905000D01*
G75*
G02*
X1030000Y1880000I0J-25000D01*
G01*
X1030000Y1770000D01*
G75*
G02*
X1005000Y1745000I-25000J0D01*
G01*
X895000Y1745000D01*
G75*
G02*
X870000Y1770000I0J25000D01*
G01*
X870000Y1880000D01*
G75*
G02*
X895000Y1905000I25000J0D01*
G01*
G37*
%TD.AperFunction*%
X950000Y1063000D03*
D10*
X-2125000Y1775000D03*
%TA.AperFunction,ComponentPad*%
G36*
G01*
X-1005000Y1905000D02*
X-895000Y1905000D01*
G75*
G02*
X-870000Y1880000I0J-25000D01*
G01*
X-870000Y1770000D01*
G75*
G02*
X-895000Y1745000I-25000J0D01*
G01*
X-1005000Y1745000D01*
G75*
G02*
X-1030000Y1770000I0J25000D01*
G01*
X-1030000Y1880000D01*
G75*
G02*
X-1005000Y1905000I25000J0D01*
G01*
G37*
%TD.AperFunction*%
D16*
X-950000Y1063000D03*
D10*
X3100000Y465000D03*
X4723000Y465000D03*
X3100000Y1100000D03*
X4723000Y1100000D03*
X3100000Y-170000D03*
X4723000Y-170000D03*
D11*
X2379000Y-700000D03*
D12*
X2125000Y-700000D03*
X2379000Y-954000D03*
X2125000Y-954000D03*
X2379000Y-1208000D03*
X2125000Y-1208000D03*
X2379000Y-1462000D03*
X2125000Y-1462000D03*
X2379000Y-1716000D03*
X2125000Y-1716000D03*
D11*
X-2125000Y-700000D03*
D12*
X-2379000Y-700000D03*
X-2125000Y-954000D03*
X-2379000Y-954000D03*
X-2125000Y-1208000D03*
X-2379000Y-1208000D03*
X-2125000Y-1462000D03*
X-2379000Y-1462000D03*
X-2125000Y-1716000D03*
X-2379000Y-1716000D03*
D22*
X-1664500Y1446000D02*
X-1550000Y1446000D01*
X-2377500Y454000D02*
X-2251248Y580250D01*
X-1859963Y1365036D02*
X-2125000Y1100000D01*
X-2377500Y454000D02*
X-2377500Y200000D01*
X-2124998Y885044D02*
X-2125000Y1100000D01*
X-2124998Y885044D02*
G75*
G02*
X-2251249Y580250I-431032J-4D01*
G01*
X-1664500Y1446000D02*
G75*
G03*
X-1859964Y1365037I0J-276430D01*
G01*
X2125000Y-954000D02*
X2125000Y-700000D01*
X-152499Y1180001D02*
X0Y1180000D01*
X2125000Y-1462000D02*
X2125000Y-1208000D01*
X1541999Y1825001D02*
X1550001Y1832997D01*
X2125000Y1733988D02*
X2125000Y1100000D01*
X2125000Y-1462000D02*
X2125000Y-1716000D01*
X2125000Y-954000D02*
X2125000Y-1208000D01*
X2096000Y1804000D02*
X2067000Y1833000D01*
X-412831Y1287835D02*
X-950000Y1825000D01*
X2096000Y1804000D02*
G75*
G02*
X2125000Y1733988I-70010J-70010D01*
G01*
X-412831Y1287835D02*
G75*
G03*
X-152499Y1180004I260331J260335D01*
G01*
D23*
X950000Y1063000D02*
X950000Y752000D01*
D22*
X75027Y-340659D02*
X75027Y-614649D01*
X160378Y-700000D02*
X225000Y-700000D01*
X245692Y-169994D02*
X3100000Y-170000D01*
X245692Y-169994D02*
G75*
G03*
X125012Y-219979I-3J-170666D01*
G01*
X75027Y-614649D02*
G75*
G03*
X100025Y-675002I85353J-1D01*
G01*
X100026Y-675002D02*
G75*
G03*
X160378Y-700002I60354J60352D01*
G01*
X125013Y-219980D02*
G75*
G03*
X75026Y-340659I120676J-120680D01*
G01*
X-75028Y-345755D02*
X-75028Y-345757D01*
X-2815622Y15621D02*
X-2784379Y-15621D01*
X-75019Y-593286D02*
X-75015Y-593289D01*
X-74998Y-615422D02*
X-74998Y-593349D01*
X-2399604Y-175000D02*
X-245713Y-174998D01*
X-75028Y-593252D02*
X-75028Y-593257D01*
X-4557379Y15618D02*
X-4710500Y-137500D01*
X-74999Y-345675D02*
X-74997Y-310339D01*
X-75028Y-345772D02*
X-75028Y-345782D01*
X-181250Y-700000D02*
X-225000Y-700000D01*
X-99984Y-250011D02*
X-124997Y-224999D01*
X-106564Y-669065D02*
X-90611Y-653112D01*
X-74998Y-593338D02*
X-74998Y-593349D01*
X-75028Y-345782D02*
X-75028Y-593235D01*
X-3200397Y175000D02*
X-4172602Y174997D01*
X-74999Y-345700D02*
X-75000Y-345705D01*
X-75028Y-345772D02*
X-75028Y-345767D01*
X-74998Y-593338D02*
X-74998Y-593335D01*
X-4710500Y-162500D02*
X-4698000Y-175000D01*
X-75027Y-345755D02*
X-75027Y-345752D01*
X-75027Y-345750D01*
X-75027Y-345750D01*
X-75028Y-593241D02*
X-75028Y-593235D01*
X-75024Y-345743D02*
X-75024Y-345742D01*
X-75024Y-345742D01*
X-75024Y-345742D01*
X-75025Y-345741D01*
X-75025Y-345741D01*
X-75025Y-345741D01*
X-75025Y-345740D01*
X-181250Y-700000D02*
G75*
G03*
X-106565Y-669064I0J105620D01*
G01*
X-74999Y-345690D02*
X-74999Y-345695D01*
X-2815622Y15621D02*
G75*
G03*
X-3200397Y174997I-384768J-384771D01*
G01*
X-75004Y-345719D02*
X-75003Y-345717D01*
X-75002Y-345715D01*
X-75001Y-345714D01*
X-74997Y-593335D02*
X-74998Y-593330D01*
X-74998Y-593325D02*
X-74998Y-593330D01*
X-75029Y-593274D02*
X-75030Y-593272D01*
X-75030Y-593270D01*
X-75030Y-593269D01*
X-75030Y-593268D01*
X-74998Y-593325D02*
X-74997Y-593319D01*
X-124997Y-224999D02*
G75*
G03*
X-245713Y-175000I-120713J-120721D01*
G01*
X-4172602Y174997D02*
G75*
G03*
X-4557380Y15619I2J-544167D01*
G01*
X-74999Y-345680D02*
X-74999Y-345675D01*
X-75027Y-593278D02*
X-75028Y-593277D01*
X-75028Y-593276D01*
X-75029Y-593276D01*
X-75029Y-593275D01*
X-75030Y-593274D01*
X-75030Y-593274D01*
X-75008Y-345722D02*
X-75006Y-345719D01*
X-75005Y-345718D01*
X-75015Y-345730D02*
X-75012Y-345726D01*
X-75012Y-345725D01*
X-74999Y-345685D02*
X-74999Y-345680D01*
X-75028Y-593246D02*
X-75028Y-593252D01*
X-75030Y-593268D02*
X-75029Y-593263D01*
X-74997Y-593309D02*
X-74997Y-593314D01*
X-75028Y-593257D02*
X-75029Y-593263D01*
X-75024Y-593282D02*
X-75019Y-593286D01*
X-75019Y-345733D02*
X-75016Y-345730D01*
X-75015Y-345730D01*
X-75027Y-345745D02*
X-75027Y-345750D01*
X-74999Y-345700D02*
X-74999Y-345695D01*
X-4710500Y-137500D02*
G75*
G03*
X-4710500Y-162500I12500J-12500D01*
G01*
X-99984Y-250011D02*
G75*
G02*
X-74998Y-310339I-60316J-60319D01*
G01*
X-2784379Y-15621D02*
G75*
G03*
X-2399604Y-175004I384779J384771D01*
G01*
X-74999Y-593304D02*
X-74998Y-593305D01*
X-74998Y-593306D01*
X-74997Y-593307D01*
X-74997Y-593308D01*
X-74997Y-593309D01*
X-75002Y-593300D02*
X-75006Y-593297D01*
X-75007Y-593296D01*
X-75002Y-593300D02*
X-75000Y-593302D01*
X-74998Y-593303D01*
X-74998Y-615422D02*
G75*
G02*
X-90611Y-653111I-53302J2D01*
G01*
X-75011Y-593293D02*
X-75007Y-593296D01*
X-75008Y-345722D02*
X-75012Y-345725D01*
X-74999Y-345690D02*
X-74999Y-345685D01*
X-75000Y-345710D02*
X-75000Y-345710D01*
X-75000Y-345710D01*
X-75000Y-345710D01*
X-75000Y-345710D01*
X-75000Y-345710D01*
X-75000Y-345710D01*
X-75000Y-345710D01*
X-75000Y-345710D01*
X-75000Y-345710D01*
X-75000Y-345710D01*
X-75000Y-345710D01*
X-75000Y-345710D01*
X-75000Y-345710D01*
X-75000Y-345710D01*
X-75000Y-345710D01*
X-75000Y-345710D01*
X-75000Y-345710D01*
X-75000Y-345710D01*
X-75000Y-345710D01*
X-75000Y-345710D01*
X-75000Y-345710D01*
X-75000Y-345710D01*
X-75011Y-593293D02*
X-75015Y-593289D01*
X-75023Y-345736D02*
X-75021Y-345735D01*
X-75020Y-345734D01*
X-75019Y-345733D01*
X-75025Y-593283D02*
X-75026Y-593282D01*
X-75027Y-593280D01*
X-75028Y-593279D01*
X-75028Y-593278D01*
X-75027Y-593246D02*
X-75028Y-593241D01*
X-75022Y-345737D02*
X-75025Y-345740D01*
X-75000Y-345710D02*
X-75000Y-345708D01*
X-75000Y-345707D01*
X-75000Y-345705D01*
X-74997Y-593319D02*
X-74997Y-593314D01*
X353032Y-424994D02*
X2558578Y-424996D01*
X2899998Y-790627D02*
X2899998Y-843750D01*
X262499Y-462497D02*
X225000Y-500000D01*
X2832050Y-557051D02*
X2799998Y-524998D01*
X2899999Y-928905D02*
X2899999Y-967967D01*
X2899999Y-967967D02*
X2899999Y-987498D01*
X2899998Y-843750D02*
X2899999Y-896874D01*
X2899999Y-928905D02*
X2899999Y-896874D01*
X2899997Y-721095D02*
X2899998Y-790627D01*
X2832050Y-557051D02*
G75*
G02*
X2900001Y-721095I-164050J-164049D01*
G01*
X2558578Y-424996D02*
G75*
G02*
X2800000Y-524997I2J-341414D01*
G01*
X353032Y-424994D02*
G75*
G03*
X262498Y-462496I-2J-128026D01*
G01*
X-262499Y-462497D02*
X-225000Y-500000D01*
X-2800001Y-524997D02*
X-2802776Y-527771D01*
X-353032Y-424994D02*
X-2558578Y-424994D01*
X-2900001Y-762500D02*
X-2900000Y-900000D01*
X-353032Y-424994D02*
G75*
G02*
X-262498Y-462496I3J-128026D01*
G01*
X-2802776Y-527771D02*
G75*
G03*
X-2900002Y-762500I234736J-234729D01*
G01*
X-2558578Y-424994D02*
G75*
G03*
X-2800002Y-524996I-2J-341416D01*
G01*
X2379000Y-1462000D02*
X2379000Y-1716000D01*
X2379000Y-1462000D02*
X2379000Y-1208000D01*
X2379000Y-954000D02*
X2379000Y-1208000D01*
X2379000Y-954000D02*
X2379000Y-700000D01*
X-2379000Y-1462000D02*
X-2379000Y-1716000D01*
X-2379000Y-1208000D02*
X-2379000Y-954000D01*
X-2379000Y-954000D02*
X-2379000Y-700000D01*
X-2379000Y-1208000D02*
X-2379000Y-1462000D01*
X948235Y498000D02*
X950000Y498000D01*
X948046Y498001D02*
X948078Y498001D01*
X947171Y497172D02*
X947160Y497161D01*
X947823Y497823D02*
X947779Y497780D01*
X948203Y498000D02*
X948172Y498000D01*
X947105Y497105D02*
X947116Y497116D01*
X947293Y497293D02*
X947237Y497238D01*
X946806Y496807D02*
X946541Y496542D01*
X947038Y497039D02*
X946994Y496995D01*
X947834Y497834D02*
X947823Y497823D01*
X946541Y496542D02*
X946232Y496232D01*
X947160Y497161D02*
X947116Y497116D01*
X947701Y497702D02*
X947646Y497647D01*
X946994Y496995D02*
X946884Y496884D01*
X947237Y497238D02*
X947171Y497172D01*
X948015Y498002D02*
X948046Y498001D01*
X947469Y497470D02*
X947293Y497293D01*
X946806Y496807D02*
X946884Y496884D01*
X948109Y498001D02*
X948141Y498000D01*
X947768Y497768D02*
X947701Y497702D01*
X947646Y497647D02*
X947469Y497470D01*
X947768Y497768D02*
X947779Y497780D01*
X948203Y498000D02*
G75*
G02*
X948235Y498000I8J-2503D01*
G01*
X948015Y498002D02*
G75*
G03*
X947987Y497992I-5J-32D01*
G01*
X947061Y497061D02*
G75*
G03*
X947038Y497039I1209J-1231D01*
G01*
X947900Y497900D02*
G75*
G03*
X947878Y497878I2440J-2451D01*
G01*
X948141Y498000D02*
X948172Y498000D01*
X947856Y497856D02*
G75*
G03*
X947834Y497834I2394J-2406D01*
G01*
X947105Y497105D02*
G75*
G03*
X947083Y497083I1205J-1235D01*
G01*
X947083Y497083D02*
X947061Y497061D01*
X947988Y497991D02*
G75*
G03*
X947966Y497968I1242J-1241D01*
G01*
X948109Y498001D02*
X948078Y498001D01*
X947966Y497968D02*
G75*
G03*
X947944Y497946I1234J-1228D01*
G01*
X947944Y497946D02*
G75*
G03*
X947922Y497923I2466J-2456D01*
G01*
X947922Y497923D02*
X947900Y497900D01*
X947878Y497878D02*
G75*
G03*
X947856Y497856I1192J-1208D01*
G01*
X-1539173Y1189171D02*
X-1471001Y1120999D01*
X-1546000Y1191999D02*
X-1550000Y1192000D01*
X-1299591Y1049999D02*
X-972192Y1049996D01*
X-956499Y1056498D02*
X-950000Y1063000D01*
X-972192Y1049996D02*
G75*
G03*
X-956497Y1056496I2J22194D01*
G01*
X-1471001Y1120999D02*
G75*
G03*
X-1299591Y1049999I171411J171411D01*
G01*
X-1546000Y1191999D02*
G75*
G02*
X-1539172Y1189172I1J-9659D01*
G01*
%TA.AperFunction,Conductor*%
G36*
X-2211551Y1947981D02*
G01*
X-2206976Y1942701D01*
X-2205981Y1935785D01*
X-2208884Y1929430D01*
X-2212055Y1926811D01*
X-2222433Y1920820D01*
X-2222434Y1920819D01*
X-2229807Y1915162D01*
X-2157403Y1842758D01*
X-2160526Y1841464D01*
X-2172810Y1833256D01*
X-2183256Y1822810D01*
X-2191464Y1810526D01*
X-2192758Y1807403D01*
X-2265162Y1879807D01*
X-2265162Y1879807D01*
X-2270819Y1872434D01*
X-2270820Y1872433D01*
X-2282289Y1852567D01*
X-2282290Y1852566D01*
X-2291068Y1831373D01*
X-2297006Y1809214D01*
X-2300000Y1786471D01*
X-2300000Y1786469D01*
X-2300000Y1763531D01*
X-2300000Y1763529D01*
X-2297006Y1740786D01*
X-2291068Y1718627D01*
X-2282290Y1697434D01*
X-2282289Y1697433D01*
X-2270820Y1677568D01*
X-2270820Y1677567D01*
X-2265162Y1670194D01*
X-2192758Y1742598D01*
X-2191464Y1739474D01*
X-2183256Y1727190D01*
X-2172810Y1716744D01*
X-2160526Y1708536D01*
X-2157403Y1707242D01*
X-2229807Y1634838D01*
X-2229807Y1634838D01*
X-2222433Y1629181D01*
X-2202567Y1617711D01*
X-2202566Y1617710D01*
X-2181373Y1608932D01*
X-2159214Y1602994D01*
X-2136471Y1600000D01*
X-2136469Y1600000D01*
X-2113531Y1600000D01*
X-2113529Y1600000D01*
X-2090786Y1602994D01*
X-2068627Y1608932D01*
X-2047434Y1617710D01*
X-2047433Y1617711D01*
X-2027567Y1629180D01*
X-2027566Y1629181D01*
X-2026024Y1630364D01*
X-2026024Y1630364D01*
X-2020194Y1634838D01*
X-2092597Y1707242D01*
X-2089474Y1708536D01*
X-2077190Y1716744D01*
X-2066744Y1727190D01*
X-2058536Y1739474D01*
X-2057242Y1742597D01*
X-1984838Y1670194D01*
X-1979181Y1677567D01*
X-1979180Y1677567D01*
X-1971745Y1690446D01*
X-1647000Y1690446D01*
X-1643272Y1671707D01*
X-1643272Y1671706D01*
X-1635960Y1654054D01*
X-1635960Y1654052D01*
X-1634095Y1651261D01*
X-1634094Y1651261D01*
X-1590000Y1695355D01*
X-1590000Y1694734D01*
X-1587274Y1684561D01*
X-1582008Y1675439D01*
X-1574561Y1667992D01*
X-1565439Y1662726D01*
X-1555266Y1660000D01*
X-1554645Y1660000D01*
X-1598739Y1615906D01*
X-1595947Y1614040D01*
X-1578294Y1606728D01*
X-1578293Y1606728D01*
X-1559554Y1603000D01*
X-1540446Y1603000D01*
X-1521707Y1606728D01*
X-1521706Y1606728D01*
X-1504053Y1614040D01*
X-1504053Y1614040D01*
X-1501261Y1615906D01*
X-1501261Y1615906D01*
X-1545355Y1660000D01*
X-1544734Y1660000D01*
X-1534561Y1662726D01*
X-1525439Y1667992D01*
X-1517992Y1675439D01*
X-1512726Y1684561D01*
X-1510000Y1694734D01*
X-1510000Y1695355D01*
X-1465906Y1651261D01*
X-1465906Y1651261D01*
X-1464040Y1654053D01*
X-1464040Y1654053D01*
X-1456728Y1671706D01*
X-1456728Y1671707D01*
X-1453000Y1690446D01*
X-1453000Y1709554D01*
X-1456728Y1728293D01*
X-1456728Y1728294D01*
X-1464040Y1745947D01*
X-1465906Y1748739D01*
X-1465906Y1748739D01*
X-1510000Y1704645D01*
X-1510000Y1705266D01*
X-1512726Y1715439D01*
X-1517992Y1724561D01*
X-1525439Y1732008D01*
X-1534561Y1737274D01*
X-1544734Y1740000D01*
X-1545355Y1740000D01*
X-1501261Y1784094D01*
X-1501261Y1784095D01*
X-1504052Y1785960D01*
X-1504054Y1785960D01*
X-1521706Y1793272D01*
X-1521707Y1793272D01*
X-1540446Y1797000D01*
X-1559554Y1797000D01*
X-1578293Y1793272D01*
X-1578294Y1793272D01*
X-1595947Y1785960D01*
X-1598739Y1784095D01*
X-1598739Y1784094D01*
X-1554645Y1740000D01*
X-1555266Y1740000D01*
X-1565439Y1737274D01*
X-1574561Y1732008D01*
X-1582008Y1724561D01*
X-1587274Y1715439D01*
X-1590000Y1705266D01*
X-1590000Y1704645D01*
X-1634094Y1748739D01*
X-1634095Y1748739D01*
X-1635960Y1745947D01*
X-1643272Y1728294D01*
X-1643272Y1728293D01*
X-1647000Y1709554D01*
X-1647000Y1690446D01*
X-1647000Y1690446D01*
X-1971745Y1690446D01*
X-1967711Y1697433D01*
X-1967710Y1697434D01*
X-1960472Y1714908D01*
X-1960472Y1714908D01*
X-1958932Y1718627D01*
X-1952994Y1740786D01*
X-1950000Y1763529D01*
X-1950000Y1763531D01*
X-1950000Y1786469D01*
X-1950000Y1786471D01*
X-1952994Y1809214D01*
X-1958932Y1831373D01*
X-1967710Y1852566D01*
X-1967711Y1852567D01*
X-1979181Y1872433D01*
X-1984838Y1879807D01*
X-1984838Y1879807D01*
X-2057242Y1807403D01*
X-2058536Y1810526D01*
X-2066744Y1822810D01*
X-2077190Y1833256D01*
X-2089474Y1841464D01*
X-2092598Y1842758D01*
X-2020194Y1915162D01*
X-2020194Y1915162D01*
X-2027567Y1920819D01*
X-2027568Y1920820D01*
X-2037945Y1926811D01*
X-2042766Y1931868D01*
X-2044089Y1938729D01*
X-2041492Y1945215D01*
X-2035800Y1949268D01*
X-2031745Y1949950D01*
X-1029405Y1949950D01*
X-1022701Y1947981D01*
X-1018125Y1942701D01*
X-1017131Y1935785D01*
X-1020033Y1929430D01*
X-1025071Y1925932D01*
X-1029233Y1924380D01*
X-1029234Y1924379D01*
X-1040754Y1915755D01*
X-1040755Y1915754D01*
X-1049379Y1904234D01*
X-1049380Y1904233D01*
X-1054409Y1890748D01*
X-1055050Y1884788D01*
X-1055050Y1884788D01*
X-1055050Y1884786D01*
X-1055050Y1765213D01*
X-1055050Y1765212D01*
X-1054409Y1759252D01*
X-1049380Y1745767D01*
X-1049379Y1745766D01*
X-1040755Y1734246D01*
X-1040754Y1734245D01*
X-1029234Y1725621D01*
X-1029233Y1725620D01*
X-1024738Y1723944D01*
X-1015748Y1720591D01*
X-1009787Y1719950D01*
X-942080Y1719950D01*
X-935377Y1717982D01*
X-933312Y1716318D01*
X-464011Y1247021D01*
X-464011Y1247021D01*
X-464011Y1247021D01*
X-464011Y1247020D01*
X-462462Y1245472D01*
X-462458Y1245464D01*
X-458830Y1241836D01*
X-458830Y1241836D01*
X-445455Y1228462D01*
X-416476Y1204146D01*
X-385488Y1182448D01*
X-352727Y1163533D01*
X-338091Y1156709D01*
X-318443Y1147547D01*
X-318442Y1147546D01*
X-318442Y1147546D01*
X-282894Y1134608D01*
X-282893Y1134608D01*
X-282892Y1134608D01*
X-271181Y1131470D01*
X-246353Y1124817D01*
X-225937Y1121217D01*
X-219677Y1118115D01*
X-217218Y1114868D01*
X-217207Y1114875D01*
X-217138Y1114762D01*
X-217042Y1114636D01*
X-216952Y1114460D01*
X-205383Y1098535D01*
X-191465Y1084617D01*
X-175540Y1073048D01*
X-167255Y1068826D01*
X-158003Y1064112D01*
X-158003Y1064112D01*
X-158003Y1064112D01*
X-147968Y1060851D01*
X-139283Y1058029D01*
X-119842Y1054950D01*
X-119842Y1054950D01*
X119842Y1054950D01*
X139283Y1058029D01*
X158003Y1064112D01*
X175540Y1073048D01*
X191465Y1084617D01*
X205383Y1098535D01*
X216952Y1114460D01*
X225888Y1131998D01*
X231971Y1150717D01*
X232867Y1156373D01*
X235050Y1170158D01*
X235050Y1189842D01*
X231971Y1209283D01*
X225888Y1228003D01*
X219693Y1240162D01*
X216952Y1245541D01*
X205383Y1261465D01*
X191465Y1275383D01*
X175540Y1286952D01*
X171424Y1289050D01*
X158003Y1295888D01*
X139283Y1301971D01*
X119842Y1305050D01*
X119842Y1305050D01*
X-119842Y1305050D01*
X-119842Y1305050D01*
X-139283Y1301971D01*
X-158003Y1295888D01*
X-175541Y1286952D01*
X-183519Y1281156D01*
X-191465Y1275383D01*
X-191465Y1275383D01*
X-191465Y1275383D01*
X-205383Y1261465D01*
X-205383Y1261464D01*
X-207933Y1257955D01*
X-209563Y1256699D01*
X-210847Y1255090D01*
X-212273Y1254608D01*
X-213466Y1253689D01*
X-215516Y1253513D01*
X-217466Y1252854D01*
X-220067Y1253122D01*
X-220427Y1253091D01*
X-220976Y1253216D01*
X-234882Y1256699D01*
X-239898Y1257955D01*
X-241063Y1258308D01*
X-267924Y1267919D01*
X-269048Y1268385D01*
X-294837Y1280582D01*
X-295910Y1281156D01*
X-320380Y1295822D01*
X-321392Y1296498D01*
X-344306Y1313492D01*
X-345245Y1314263D01*
X-366576Y1333596D01*
X-367014Y1334013D01*
X-841318Y1808313D01*
X-844667Y1814446D01*
X-844950Y1817081D01*
X-844950Y1884787D01*
X-844950Y1884788D01*
X-844950Y1884788D01*
X-845591Y1890748D01*
X-848369Y1898196D01*
X-850620Y1904233D01*
X-850621Y1904234D01*
X-859245Y1915754D01*
X-859246Y1915755D01*
X-870766Y1924379D01*
X-870767Y1924380D01*
X-874928Y1925932D01*
X-880522Y1930119D01*
X-882964Y1936665D01*
X-881478Y1943493D01*
X-876538Y1948433D01*
X-870595Y1949950D01*
X870595Y1949950D01*
X877299Y1947981D01*
X881875Y1942701D01*
X882869Y1935785D01*
X879966Y1929430D01*
X874928Y1925932D01*
X870767Y1924380D01*
X870766Y1924379D01*
X859245Y1915755D01*
X859245Y1915754D01*
X850621Y1904234D01*
X850620Y1904233D01*
X845591Y1890748D01*
X844950Y1884788D01*
X844950Y1884788D01*
X844950Y1884786D01*
X844950Y1765213D01*
X844950Y1765212D01*
X845591Y1759252D01*
X850620Y1745767D01*
X850621Y1745766D01*
X859245Y1734246D01*
X859245Y1734245D01*
X870766Y1725621D01*
X870767Y1725620D01*
X884252Y1720591D01*
X884252Y1720591D01*
X884944Y1720516D01*
X890213Y1719950D01*
X1009787Y1719950D01*
X1015748Y1720591D01*
X1029233Y1725620D01*
X1040755Y1734245D01*
X1049380Y1745767D01*
X1054409Y1759252D01*
X1055050Y1765213D01*
X1055050Y1884787D01*
X1054409Y1890748D01*
X1051631Y1898196D01*
X1049380Y1904233D01*
X1049379Y1904234D01*
X1040755Y1915754D01*
X1040754Y1915755D01*
X1029233Y1924379D01*
X1029233Y1924380D01*
X1025071Y1925932D01*
X1019478Y1930119D01*
X1017036Y1936665D01*
X1018521Y1943493D01*
X1023462Y1948433D01*
X1029405Y1949950D01*
X1405639Y1949950D01*
X1412343Y1947981D01*
X1416919Y1942701D01*
X1417913Y1935785D01*
X1417257Y1933217D01*
X1415591Y1928749D01*
X1415591Y1928748D01*
X1414950Y1922788D01*
X1414950Y1922787D01*
X1414950Y1743213D01*
X1414950Y1743212D01*
X1415591Y1737252D01*
X1415591Y1737251D01*
X1420620Y1723767D01*
X1420620Y1723767D01*
X1420620Y1723767D01*
X1429245Y1712245D01*
X1438568Y1705266D01*
X1440767Y1703620D01*
X1440767Y1703620D01*
X1442746Y1702882D01*
X1454252Y1698591D01*
X1460213Y1697950D01*
X1460213Y1697950D01*
X1639786Y1697950D01*
X1639787Y1697950D01*
X1645748Y1698591D01*
X1659233Y1703620D01*
X1670755Y1712245D01*
X1679380Y1723767D01*
X1684409Y1737252D01*
X1685050Y1743213D01*
X1685050Y1922787D01*
X1684409Y1928748D01*
X1683246Y1931868D01*
X1682743Y1933217D01*
X1682244Y1940186D01*
X1685593Y1946318D01*
X1691725Y1949667D01*
X1694361Y1949950D01*
X2031645Y1949950D01*
X2038349Y1947981D01*
X2042924Y1942701D01*
X2043919Y1935785D01*
X2041016Y1929430D01*
X2037845Y1926811D01*
X2036321Y1925932D01*
X2027538Y1920861D01*
X2009334Y1906892D01*
X1993108Y1890666D01*
X1979139Y1872462D01*
X1967666Y1852589D01*
X1967665Y1852588D01*
X1958884Y1831389D01*
X1952945Y1809224D01*
X1952945Y1809223D01*
X1949950Y1786474D01*
X1949950Y1763526D01*
X1952288Y1745766D01*
X1952945Y1740776D01*
X1957503Y1723767D01*
X1958884Y1718611D01*
X1967665Y1697412D01*
X1967666Y1697411D01*
X1979123Y1677567D01*
X1979139Y1677538D01*
X1993108Y1659334D01*
X1993109Y1659333D01*
X2009333Y1643109D01*
X2009334Y1643108D01*
X2027538Y1629139D01*
X2027538Y1629139D01*
X2027539Y1629139D01*
X2047411Y1617666D01*
X2047412Y1617665D01*
X2047412Y1617665D01*
X2052295Y1615642D01*
X2057736Y1611258D01*
X2059942Y1604629D01*
X2059950Y1604186D01*
X2059950Y1213279D01*
X2057981Y1206575D01*
X2052701Y1202000D01*
X2051883Y1201661D01*
X2045767Y1199380D01*
X2045766Y1199379D01*
X2034245Y1190755D01*
X2034245Y1190755D01*
X2025621Y1179234D01*
X2025620Y1179233D01*
X2020591Y1165748D01*
X2019950Y1159788D01*
X2019950Y1159788D01*
X2019950Y1159787D01*
X2019950Y1040213D01*
X2019950Y1040212D01*
X2020591Y1034252D01*
X2025620Y1020767D01*
X2025621Y1020766D01*
X2034245Y1009246D01*
X2034245Y1009245D01*
X2045766Y1000621D01*
X2045767Y1000620D01*
X2059252Y995591D01*
X2059252Y995591D01*
X2059944Y995516D01*
X2065213Y994950D01*
X2184787Y994950D01*
X2190748Y995591D01*
X2204233Y1000620D01*
X2215755Y1009245D01*
X2224380Y1020767D01*
X2229409Y1034252D01*
X2230050Y1040213D01*
X2230050Y1110342D01*
X2270000Y1110342D01*
X2270000Y1089658D01*
X2274035Y1069373D01*
X2274035Y1069373D01*
X2281950Y1050264D01*
X2285138Y1045493D01*
X2285138Y1045493D01*
X2335000Y1095356D01*
X2335000Y1094734D01*
X2337726Y1084561D01*
X2342992Y1075439D01*
X2350439Y1067992D01*
X2359561Y1062726D01*
X2369734Y1060000D01*
X2370355Y1060000D01*
X2320493Y1010138D01*
X2320493Y1010138D01*
X2325263Y1006950D01*
X2325264Y1006950D01*
X2344373Y999035D01*
X2344373Y999035D01*
X2364658Y995000D01*
X2364658Y995000D01*
X2385342Y995000D01*
X2385342Y995000D01*
X2405627Y999035D01*
X2405627Y999035D01*
X2424737Y1006950D01*
X2429507Y1010138D01*
X2429507Y1010138D01*
X2379645Y1060000D01*
X2380266Y1060000D01*
X2390439Y1062726D01*
X2399561Y1067992D01*
X2407008Y1075439D01*
X2412274Y1084561D01*
X2415000Y1094734D01*
X2415000Y1095355D01*
X2464862Y1045493D01*
X2464862Y1045493D01*
X2468050Y1050263D01*
X2475965Y1069373D01*
X2475965Y1069373D01*
X2480000Y1089658D01*
X2480000Y1089658D01*
X2480000Y1110342D01*
X2479776Y1111470D01*
X2925000Y1111470D01*
X2925000Y1088531D01*
X2925000Y1088529D01*
X2927994Y1065786D01*
X2933932Y1043627D01*
X2942710Y1022435D01*
X2942711Y1022433D01*
X2954180Y1002568D01*
X2954180Y1002567D01*
X2959838Y995194D01*
X3036069Y1071425D01*
X3037967Y1066843D01*
X3045627Y1055378D01*
X3055378Y1045627D01*
X3066843Y1037967D01*
X3071424Y1036069D01*
X2995193Y959838D01*
X2995193Y959838D01*
X3002567Y954181D01*
X3022433Y942711D01*
X3022434Y942710D01*
X3043627Y933932D01*
X3065786Y927994D01*
X3088529Y925000D01*
X3088531Y925000D01*
X3111469Y925000D01*
X3111471Y925000D01*
X3134214Y927994D01*
X3156373Y933932D01*
X3177566Y942710D01*
X3177567Y942711D01*
X3197433Y954180D01*
X3197433Y954181D01*
X3204806Y959838D01*
X3128576Y1036069D01*
X3133157Y1037967D01*
X3144622Y1045627D01*
X3154373Y1055378D01*
X3162033Y1066843D01*
X3163931Y1071424D01*
X3240162Y995194D01*
X3245819Y1002567D01*
X3245820Y1002567D01*
X3257289Y1022433D01*
X3257290Y1022435D01*
X3266068Y1043627D01*
X3272006Y1065786D01*
X3275000Y1088529D01*
X3275000Y1088531D01*
X3275000Y1111470D01*
X3274999Y1111474D01*
X4547950Y1111474D01*
X4547950Y1088526D01*
X4550327Y1070471D01*
X4550945Y1065776D01*
X4554452Y1052690D01*
X4556884Y1043611D01*
X4565665Y1022412D01*
X4565666Y1022411D01*
X4566615Y1020767D01*
X4577123Y1002567D01*
X4577139Y1002538D01*
X4591108Y984334D01*
X4591109Y984333D01*
X4607333Y968109D01*
X4607334Y968108D01*
X4625538Y954139D01*
X4625539Y954139D01*
X4625539Y954139D01*
X4645411Y942666D01*
X4645412Y942665D01*
X4645412Y942665D01*
X4654548Y938881D01*
X4666611Y933884D01*
X4688776Y927945D01*
X4711527Y924950D01*
X4711527Y924950D01*
X4734473Y924950D01*
X4734473Y924950D01*
X4757224Y927945D01*
X4779389Y933884D01*
X4800589Y942666D01*
X4820461Y954139D01*
X4838666Y968108D01*
X4838667Y968109D01*
X4838667Y968109D01*
X4854891Y984333D01*
X4854891Y984333D01*
X4854892Y984334D01*
X4868861Y1002539D01*
X4880334Y1022411D01*
X4889116Y1043611D01*
X4895055Y1065776D01*
X4898050Y1088527D01*
X4898050Y1111473D01*
X4895055Y1134224D01*
X4889116Y1156389D01*
X4883412Y1170158D01*
X4880335Y1177588D01*
X4880335Y1177588D01*
X4880334Y1177589D01*
X4868861Y1197461D01*
X4868861Y1197462D01*
X4868861Y1197462D01*
X4854892Y1215666D01*
X4854891Y1215667D01*
X4838667Y1231891D01*
X4838666Y1231892D01*
X4820462Y1245861D01*
X4800589Y1257334D01*
X4800588Y1257335D01*
X4779389Y1266116D01*
X4757224Y1272055D01*
X4753422Y1272555D01*
X4734474Y1275050D01*
X4734473Y1275050D01*
X4711527Y1275050D01*
X4711526Y1275050D01*
X4689872Y1272199D01*
X4688776Y1272055D01*
X4679408Y1269545D01*
X4666611Y1266116D01*
X4645412Y1257335D01*
X4645411Y1257334D01*
X4625538Y1245861D01*
X4607334Y1231892D01*
X4591108Y1215666D01*
X4577139Y1197462D01*
X4565666Y1177589D01*
X4565665Y1177588D01*
X4556884Y1156389D01*
X4550945Y1134224D01*
X4550945Y1134223D01*
X4547950Y1111474D01*
X3274999Y1111474D01*
X3272006Y1134214D01*
X3266068Y1156373D01*
X3257290Y1177566D01*
X3257289Y1177567D01*
X3245819Y1197433D01*
X3240162Y1204807D01*
X3240162Y1204807D01*
X3163931Y1128576D01*
X3162033Y1133157D01*
X3154373Y1144622D01*
X3144622Y1154373D01*
X3133157Y1162033D01*
X3128575Y1163931D01*
X3204806Y1240162D01*
X3204806Y1240162D01*
X3197433Y1245820D01*
X3197432Y1245820D01*
X3177567Y1257289D01*
X3177566Y1257290D01*
X3156373Y1266068D01*
X3134214Y1272006D01*
X3111471Y1275000D01*
X3111469Y1275000D01*
X3088531Y1275000D01*
X3088529Y1275000D01*
X3065786Y1272006D01*
X3043627Y1266068D01*
X3022434Y1257290D01*
X3022433Y1257289D01*
X3002567Y1245820D01*
X3002566Y1245819D01*
X2995193Y1240162D01*
X3071424Y1163931D01*
X3066843Y1162033D01*
X3055378Y1154373D01*
X3045627Y1144622D01*
X3037967Y1133157D01*
X3036069Y1128576D01*
X2959838Y1204807D01*
X2954181Y1197434D01*
X2954180Y1197433D01*
X2942711Y1177567D01*
X2942710Y1177566D01*
X2933932Y1156373D01*
X2927994Y1134214D01*
X2925000Y1111471D01*
X2925000Y1111470D01*
X2479776Y1111470D01*
X2475965Y1130627D01*
X2475965Y1130628D01*
X2468050Y1149736D01*
X2468050Y1149737D01*
X2464862Y1154507D01*
X2464862Y1154507D01*
X2415000Y1104645D01*
X2415000Y1105266D01*
X2412274Y1115439D01*
X2407008Y1124561D01*
X2399561Y1132008D01*
X2390439Y1137274D01*
X2380266Y1140000D01*
X2379645Y1140000D01*
X2429507Y1189862D01*
X2429507Y1189862D01*
X2424736Y1193050D01*
X2405627Y1200965D01*
X2405627Y1200965D01*
X2385342Y1205000D01*
X2364658Y1205000D01*
X2344373Y1200965D01*
X2344373Y1200965D01*
X2325264Y1193050D01*
X2325263Y1193050D01*
X2320493Y1189862D01*
X2320493Y1189862D01*
X2370355Y1140000D01*
X2369734Y1140000D01*
X2359561Y1137274D01*
X2350439Y1132008D01*
X2342992Y1124561D01*
X2337726Y1115439D01*
X2335000Y1105266D01*
X2335000Y1104645D01*
X2285138Y1154507D01*
X2285138Y1154507D01*
X2281951Y1149737D01*
X2281950Y1149736D01*
X2274035Y1130628D01*
X2274035Y1130627D01*
X2270000Y1110342D01*
X2230050Y1110342D01*
X2230050Y1159787D01*
X2229409Y1165748D01*
X2228944Y1166997D01*
X2224380Y1179233D01*
X2224380Y1179233D01*
X2215755Y1190755D01*
X2215754Y1190755D01*
X2204234Y1199379D01*
X2204233Y1199380D01*
X2198117Y1201661D01*
X2196344Y1202988D01*
X2194330Y1203908D01*
X2193602Y1205041D01*
X2192523Y1205848D01*
X2191749Y1207923D01*
X2190552Y1209786D01*
X2190237Y1211977D01*
X2190082Y1212394D01*
X2190050Y1213279D01*
X2190050Y1235367D01*
X2190050Y1305050D01*
X2190050Y1604187D01*
X2192019Y1610890D01*
X2197299Y1615466D01*
X2197702Y1615641D01*
X2202589Y1617666D01*
X2222461Y1629139D01*
X2240666Y1643108D01*
X2240667Y1643109D01*
X2240667Y1643109D01*
X2256891Y1659333D01*
X2256891Y1659333D01*
X2256892Y1659334D01*
X2270861Y1677539D01*
X2282334Y1697411D01*
X2291116Y1718611D01*
X2297055Y1740776D01*
X2300050Y1763527D01*
X2300050Y1786473D01*
X2297055Y1809224D01*
X2291116Y1831389D01*
X2284601Y1847118D01*
X2282335Y1852588D01*
X2282335Y1852588D01*
X2282334Y1852589D01*
X2270861Y1872461D01*
X2270861Y1872461D01*
X2270861Y1872462D01*
X2256892Y1890666D01*
X2256891Y1890667D01*
X2240667Y1906891D01*
X2240666Y1906892D01*
X2222462Y1920861D01*
X2216367Y1924380D01*
X2212155Y1926811D01*
X2207334Y1931868D01*
X2206011Y1938729D01*
X2208608Y1945215D01*
X2214300Y1949268D01*
X2218355Y1949950D01*
X4793411Y1949950D01*
X4799557Y1949950D01*
X4800442Y1949918D01*
X4820456Y1948487D01*
X4822206Y1948235D01*
X4841380Y1944064D01*
X4843076Y1943567D01*
X4856046Y1938729D01*
X4861461Y1936709D01*
X4863070Y1935974D01*
X4880290Y1926571D01*
X4881778Y1925615D01*
X4895742Y1915162D01*
X4897487Y1913856D01*
X4898824Y1912697D01*
X4912697Y1898824D01*
X4913856Y1897487D01*
X4918962Y1890666D01*
X4925615Y1881779D01*
X4926571Y1880290D01*
X4935974Y1863070D01*
X4936709Y1861461D01*
X4943566Y1843076D01*
X4944065Y1841379D01*
X4948235Y1822207D01*
X4948487Y1820456D01*
X4949918Y1800442D01*
X4949950Y1799557D01*
X4949950Y-799557D01*
X4949918Y-800442D01*
X4948487Y-820456D01*
X4948235Y-822207D01*
X4944065Y-841379D01*
X4943566Y-843076D01*
X4936709Y-861461D01*
X4935974Y-863070D01*
X4926571Y-880290D01*
X4925615Y-881779D01*
X4913856Y-897487D01*
X4912697Y-898824D01*
X4898824Y-912697D01*
X4897487Y-913856D01*
X4881779Y-925615D01*
X4880290Y-926571D01*
X4863070Y-935974D01*
X4861461Y-936709D01*
X4843076Y-943566D01*
X4841379Y-944065D01*
X4822207Y-948235D01*
X4820456Y-948487D01*
X4802378Y-949780D01*
X4800442Y-949918D01*
X4799557Y-949950D01*
X3384875Y-949950D01*
X3369860Y-951773D01*
X3354845Y-953596D01*
X3342960Y-956525D01*
X3325473Y-960836D01*
X3297188Y-971563D01*
X3270403Y-985621D01*
X3270403Y-985621D01*
X3245508Y-1002805D01*
X3245507Y-1002805D01*
X3222865Y-1022865D01*
X3222865Y-1022865D01*
X3202805Y-1045507D01*
X3202805Y-1045508D01*
X3185621Y-1070403D01*
X3185621Y-1070404D01*
X3171563Y-1097188D01*
X3160836Y-1125473D01*
X3158165Y-1136307D01*
X3153596Y-1154845D01*
X3153213Y-1158000D01*
X3149950Y-1184875D01*
X3149950Y-1799557D01*
X3149918Y-1800442D01*
X3149918Y-1800442D01*
X3148487Y-1820456D01*
X3148235Y-1822207D01*
X3144065Y-1841379D01*
X3143566Y-1843076D01*
X3136709Y-1861461D01*
X3135974Y-1863070D01*
X3126571Y-1880290D01*
X3125615Y-1881779D01*
X3113856Y-1897487D01*
X3112697Y-1898824D01*
X3098824Y-1912697D01*
X3097487Y-1913856D01*
X3081779Y-1925615D01*
X3080290Y-1926571D01*
X3063070Y-1935974D01*
X3061461Y-1936709D01*
X3043076Y-1943566D01*
X3041379Y-1944065D01*
X3022207Y-1948235D01*
X3020456Y-1948487D01*
X3002378Y-1949780D01*
X3000442Y-1949918D01*
X2999557Y-1949950D01*
X2000443Y-1949950D01*
X1999558Y-1949918D01*
X1997362Y-1949761D01*
X1979544Y-1948487D01*
X1977793Y-1948235D01*
X1958621Y-1944065D01*
X1956924Y-1943566D01*
X1938539Y-1936709D01*
X1936930Y-1935974D01*
X1919709Y-1926571D01*
X1918221Y-1925615D01*
X1902513Y-1913856D01*
X1901176Y-1912697D01*
X1887303Y-1898824D01*
X1886144Y-1897487D01*
X1874385Y-1881778D01*
X1873429Y-1880290D01*
X1864026Y-1863070D01*
X1863291Y-1861461D01*
X1861249Y-1855987D01*
X1856433Y-1843075D01*
X1855935Y-1841380D01*
X1851765Y-1822206D01*
X1851513Y-1820456D01*
X1851333Y-1817941D01*
X1850082Y-1800442D01*
X1850050Y-1799557D01*
X1850050Y-784874D01*
X1848237Y-769947D01*
X1846404Y-754845D01*
X1839164Y-725473D01*
X1839164Y-725473D01*
X1839164Y-725473D01*
X1829824Y-700844D01*
X1828437Y-697189D01*
X1827068Y-694579D01*
X1825367Y-691339D01*
X2014950Y-691339D01*
X2014950Y-708661D01*
X2014983Y-708869D01*
X2016892Y-720920D01*
X2017660Y-725770D01*
X2023013Y-742244D01*
X2030877Y-757679D01*
X2041059Y-771693D01*
X2053307Y-783941D01*
X2054592Y-784875D01*
X2054838Y-785054D01*
X2059105Y-790587D01*
X2059950Y-795086D01*
X2059950Y-858914D01*
X2057981Y-865618D01*
X2054839Y-868946D01*
X2053307Y-870058D01*
X2041059Y-882307D01*
X2041059Y-882307D01*
X2041059Y-882307D01*
X2036686Y-888326D01*
X2030877Y-896321D01*
X2023013Y-911755D01*
X2017660Y-928230D01*
X2014950Y-945339D01*
X2014950Y-962661D01*
X2017242Y-977135D01*
X2017660Y-979770D01*
X2023013Y-996244D01*
X2030877Y-1011679D01*
X2041059Y-1025693D01*
X2041059Y-1025693D01*
X2053307Y-1037941D01*
X2053308Y-1037942D01*
X2054838Y-1039054D01*
X2059105Y-1044587D01*
X2059950Y-1049086D01*
X2059950Y-1112914D01*
X2057981Y-1119618D01*
X2054839Y-1122946D01*
X2053307Y-1124059D01*
X2041059Y-1136307D01*
X2041059Y-1136307D01*
X2041059Y-1136307D01*
X2040040Y-1137709D01*
X2030877Y-1150321D01*
X2023013Y-1165755D01*
X2017660Y-1182230D01*
X2016635Y-1188701D01*
X2014950Y-1199339D01*
X2014950Y-1216661D01*
X2017660Y-1233770D01*
X2023013Y-1250245D01*
X2030877Y-1265679D01*
X2041059Y-1279693D01*
X2041059Y-1279693D01*
X2053307Y-1291941D01*
X2053308Y-1291942D01*
X2054838Y-1293054D01*
X2059105Y-1298587D01*
X2059950Y-1303086D01*
X2059950Y-1366914D01*
X2057981Y-1373618D01*
X2054839Y-1376946D01*
X2053307Y-1378059D01*
X2041059Y-1390307D01*
X2041059Y-1390307D01*
X2041059Y-1390307D01*
X2040262Y-1391403D01*
X2030877Y-1404321D01*
X2023013Y-1419755D01*
X2017660Y-1436230D01*
X2016635Y-1442701D01*
X2014950Y-1453339D01*
X2014950Y-1470661D01*
X2017660Y-1487770D01*
X2023013Y-1504244D01*
X2030877Y-1519679D01*
X2041059Y-1533693D01*
X2041059Y-1533693D01*
X2053307Y-1545941D01*
X2053308Y-1545942D01*
X2054838Y-1547054D01*
X2059105Y-1552587D01*
X2059950Y-1557086D01*
X2059950Y-1620914D01*
X2057981Y-1627618D01*
X2054839Y-1630946D01*
X2053307Y-1632058D01*
X2041059Y-1644307D01*
X2041059Y-1644307D01*
X2041059Y-1644307D01*
X2036686Y-1650326D01*
X2030877Y-1658321D01*
X2023013Y-1673755D01*
X2017660Y-1690230D01*
X2014950Y-1707339D01*
X2014950Y-1724661D01*
X2017660Y-1741769D01*
X2017660Y-1741770D01*
X2022287Y-1756010D01*
X2023013Y-1758245D01*
X2026964Y-1766000D01*
X2030877Y-1773679D01*
X2041059Y-1787693D01*
X2053307Y-1799941D01*
X2067321Y-1810123D01*
X2082755Y-1817987D01*
X2099230Y-1823340D01*
X2116339Y-1826050D01*
X2116339Y-1826050D01*
X2133661Y-1826050D01*
X2133661Y-1826050D01*
X2150770Y-1823340D01*
X2167245Y-1817987D01*
X2182679Y-1810123D01*
X2196693Y-1799941D01*
X2208941Y-1787693D01*
X2219123Y-1773679D01*
X2226987Y-1758244D01*
X2232340Y-1741770D01*
X2235050Y-1724661D01*
X2235050Y-1707339D01*
X2232340Y-1690230D01*
X2226987Y-1673755D01*
X2219123Y-1658321D01*
X2208941Y-1644307D01*
X2196693Y-1632059D01*
X2195161Y-1630946D01*
X2190895Y-1625413D01*
X2190050Y-1620914D01*
X2190050Y-1557086D01*
X2192019Y-1550382D01*
X2195162Y-1547054D01*
X2196693Y-1545941D01*
X2208941Y-1533693D01*
X2219123Y-1519679D01*
X2226987Y-1504244D01*
X2232340Y-1487770D01*
X2235050Y-1470661D01*
X2235050Y-1453339D01*
X2232340Y-1436230D01*
X2226987Y-1419755D01*
X2219123Y-1404321D01*
X2208941Y-1390307D01*
X2196693Y-1378059D01*
X2195161Y-1376946D01*
X2190895Y-1371413D01*
X2190050Y-1366914D01*
X2190050Y-1303086D01*
X2192019Y-1296382D01*
X2195162Y-1293054D01*
X2196693Y-1291941D01*
X2208941Y-1279693D01*
X2219123Y-1265679D01*
X2226987Y-1250245D01*
X2232340Y-1233770D01*
X2235050Y-1216661D01*
X2235050Y-1199339D01*
X2232340Y-1182230D01*
X2226987Y-1165756D01*
X2219123Y-1150321D01*
X2208941Y-1136307D01*
X2196693Y-1124059D01*
X2195161Y-1122946D01*
X2190895Y-1117413D01*
X2190050Y-1112914D01*
X2190050Y-1049086D01*
X2192019Y-1042382D01*
X2195162Y-1039054D01*
X2196693Y-1037941D01*
X2208941Y-1025693D01*
X2219123Y-1011679D01*
X2226987Y-996244D01*
X2232340Y-979770D01*
X2235050Y-962661D01*
X2235050Y-945339D01*
X2232340Y-928230D01*
X2226987Y-911755D01*
X2219123Y-896321D01*
X2208941Y-882307D01*
X2196693Y-870059D01*
X2195161Y-868946D01*
X2190895Y-863413D01*
X2190050Y-858914D01*
X2190050Y-795086D01*
X2192019Y-788382D01*
X2195162Y-785054D01*
X2196693Y-783941D01*
X2208941Y-771693D01*
X2219123Y-757679D01*
X2226987Y-742244D01*
X2232340Y-725770D01*
X2235050Y-708661D01*
X2235050Y-691339D01*
X2232340Y-674230D01*
X2226987Y-657756D01*
X2219123Y-642321D01*
X2208941Y-628307D01*
X2196693Y-616059D01*
X2191839Y-612532D01*
X2268950Y-612532D01*
X2268950Y-787468D01*
X2270403Y-794773D01*
X2270403Y-794774D01*
X2271990Y-797148D01*
X2275940Y-803060D01*
X2284155Y-808549D01*
X2284226Y-808597D01*
X2284226Y-808597D01*
X2291532Y-810050D01*
X2291532Y-810050D01*
X2291533Y-810050D01*
X2301550Y-810050D01*
X2308254Y-812018D01*
X2312829Y-817299D01*
X2313950Y-822450D01*
X2313950Y-858914D01*
X2311982Y-865618D01*
X2308839Y-868946D01*
X2307307Y-870058D01*
X2295059Y-882307D01*
X2295059Y-882307D01*
X2295059Y-882307D01*
X2290686Y-888326D01*
X2284877Y-896321D01*
X2277013Y-911755D01*
X2271660Y-928230D01*
X2268950Y-945339D01*
X2268950Y-962661D01*
X2271242Y-977135D01*
X2271660Y-979770D01*
X2277013Y-996244D01*
X2284877Y-1011679D01*
X2295059Y-1025693D01*
X2295059Y-1025693D01*
X2307307Y-1037941D01*
X2307308Y-1037942D01*
X2308838Y-1039054D01*
X2313105Y-1044587D01*
X2313950Y-1049086D01*
X2313950Y-1112914D01*
X2311982Y-1119618D01*
X2308839Y-1122946D01*
X2307307Y-1124059D01*
X2295059Y-1136307D01*
X2295059Y-1136307D01*
X2295059Y-1136307D01*
X2294041Y-1137709D01*
X2284877Y-1150321D01*
X2277013Y-1165755D01*
X2271660Y-1182230D01*
X2270635Y-1188701D01*
X2268950Y-1199339D01*
X2268950Y-1216661D01*
X2271660Y-1233770D01*
X2277013Y-1250245D01*
X2284877Y-1265679D01*
X2295059Y-1279693D01*
X2295059Y-1279693D01*
X2307307Y-1291941D01*
X2307308Y-1291942D01*
X2308838Y-1293054D01*
X2313105Y-1298587D01*
X2313950Y-1303086D01*
X2313950Y-1366914D01*
X2311982Y-1373618D01*
X2308839Y-1376946D01*
X2307307Y-1378059D01*
X2295059Y-1390307D01*
X2295059Y-1390307D01*
X2295059Y-1390307D01*
X2294262Y-1391403D01*
X2284877Y-1404321D01*
X2277013Y-1419755D01*
X2271660Y-1436230D01*
X2270635Y-1442701D01*
X2268950Y-1453339D01*
X2268950Y-1470661D01*
X2271660Y-1487770D01*
X2277013Y-1504244D01*
X2284877Y-1519679D01*
X2295059Y-1533693D01*
X2295059Y-1533693D01*
X2307307Y-1545941D01*
X2307308Y-1545942D01*
X2308838Y-1547054D01*
X2313105Y-1552587D01*
X2313950Y-1557086D01*
X2313950Y-1620914D01*
X2311982Y-1627618D01*
X2308839Y-1630946D01*
X2307307Y-1632058D01*
X2295059Y-1644307D01*
X2295059Y-1644307D01*
X2295059Y-1644307D01*
X2290686Y-1650326D01*
X2284877Y-1658321D01*
X2277013Y-1673755D01*
X2271660Y-1690230D01*
X2268950Y-1707339D01*
X2268950Y-1724661D01*
X2271660Y-1741769D01*
X2271660Y-1741770D01*
X2276287Y-1756010D01*
X2277013Y-1758245D01*
X2280964Y-1766000D01*
X2284877Y-1773679D01*
X2295059Y-1787693D01*
X2307307Y-1799941D01*
X2321321Y-1810123D01*
X2336756Y-1817987D01*
X2353230Y-1823340D01*
X2370339Y-1826050D01*
X2370339Y-1826050D01*
X2387661Y-1826050D01*
X2387661Y-1826050D01*
X2404770Y-1823340D01*
X2421245Y-1817987D01*
X2436679Y-1810123D01*
X2450693Y-1799941D01*
X2462941Y-1787693D01*
X2473123Y-1773679D01*
X2480987Y-1758244D01*
X2485181Y-1745339D01*
X2789950Y-1745339D01*
X2789950Y-1762661D01*
X2791789Y-1774274D01*
X2792660Y-1779770D01*
X2798013Y-1796244D01*
X2805877Y-1811679D01*
X2816059Y-1825693D01*
X2828307Y-1837941D01*
X2842321Y-1848123D01*
X2857755Y-1855987D01*
X2874230Y-1861340D01*
X2891339Y-1864050D01*
X2891339Y-1864050D01*
X2908661Y-1864050D01*
X2908661Y-1864050D01*
X2925770Y-1861340D01*
X2942244Y-1855987D01*
X2957679Y-1848123D01*
X2971693Y-1837941D01*
X2983941Y-1825693D01*
X2994123Y-1811679D01*
X3001987Y-1796244D01*
X3007340Y-1779770D01*
X3010050Y-1762661D01*
X3010050Y-1745339D01*
X3007340Y-1728230D01*
X3001987Y-1711755D01*
X2994123Y-1696321D01*
X2983941Y-1682307D01*
X2971693Y-1670059D01*
X2957679Y-1659877D01*
X2942244Y-1652013D01*
X2925770Y-1646660D01*
X2925770Y-1646660D01*
X2925770Y-1646660D01*
X2912627Y-1644578D01*
X2908661Y-1643950D01*
X2891339Y-1643950D01*
X2887373Y-1644578D01*
X2874230Y-1646660D01*
X2857755Y-1652013D01*
X2842321Y-1659877D01*
X2834326Y-1665686D01*
X2828307Y-1670059D01*
X2828307Y-1670059D01*
X2828307Y-1670059D01*
X2816059Y-1682307D01*
X2816059Y-1682307D01*
X2816059Y-1682307D01*
X2813885Y-1685299D01*
X2805877Y-1696321D01*
X2798013Y-1711755D01*
X2792660Y-1728230D01*
X2789950Y-1745339D01*
X2485181Y-1745339D01*
X2486340Y-1741770D01*
X2489050Y-1724661D01*
X2489050Y-1707339D01*
X2486340Y-1690230D01*
X2480987Y-1673755D01*
X2473123Y-1658321D01*
X2462941Y-1644307D01*
X2450693Y-1632059D01*
X2449161Y-1630946D01*
X2444895Y-1625413D01*
X2444050Y-1620914D01*
X2444050Y-1557086D01*
X2446019Y-1550382D01*
X2449162Y-1547054D01*
X2450693Y-1545941D01*
X2462941Y-1533693D01*
X2473123Y-1519679D01*
X2480987Y-1504244D01*
X2486340Y-1487770D01*
X2489050Y-1470661D01*
X2489050Y-1453339D01*
X2486340Y-1436230D01*
X2480987Y-1419755D01*
X2480987Y-1419755D01*
X2480987Y-1419755D01*
X2479865Y-1417553D01*
X2479865Y-1417553D01*
X2477307Y-1412532D01*
X2789950Y-1412532D01*
X2789950Y-1587468D01*
X2791403Y-1594773D01*
X2791403Y-1594774D01*
X2791403Y-1594774D01*
X2796940Y-1603060D01*
X2805226Y-1608597D01*
X2805226Y-1608597D01*
X2812532Y-1610050D01*
X2812532Y-1610050D01*
X2812533Y-1610050D01*
X2987468Y-1610050D01*
X2987468Y-1610050D01*
X2994774Y-1608597D01*
X3003060Y-1603060D01*
X3008597Y-1594774D01*
X3010050Y-1587467D01*
X3010050Y-1412533D01*
X3010050Y-1412532D01*
X3010050Y-1412532D01*
X3008597Y-1405226D01*
X3008597Y-1405226D01*
X3007594Y-1403726D01*
X3003060Y-1396940D01*
X2994774Y-1391403D01*
X2994774Y-1391403D01*
X2994773Y-1391403D01*
X2987468Y-1389950D01*
X2987467Y-1389950D01*
X2812533Y-1389950D01*
X2812532Y-1389950D01*
X2805226Y-1391403D01*
X2805226Y-1391403D01*
X2796940Y-1396940D01*
X2791403Y-1405226D01*
X2791403Y-1405226D01*
X2789950Y-1412532D01*
X2477307Y-1412532D01*
X2473123Y-1404321D01*
X2471594Y-1402216D01*
X2462941Y-1390307D01*
X2450693Y-1378059D01*
X2449161Y-1376946D01*
X2444895Y-1371413D01*
X2444050Y-1366914D01*
X2444050Y-1303086D01*
X2446019Y-1296382D01*
X2449162Y-1293054D01*
X2450693Y-1291941D01*
X2462941Y-1279693D01*
X2473123Y-1265679D01*
X2480987Y-1250245D01*
X2486340Y-1233770D01*
X2489050Y-1216661D01*
X2489050Y-1199339D01*
X2486340Y-1182230D01*
X2480987Y-1165756D01*
X2473123Y-1150321D01*
X2462941Y-1136307D01*
X2450693Y-1124059D01*
X2449161Y-1122946D01*
X2444895Y-1117413D01*
X2444050Y-1112914D01*
X2444050Y-1049086D01*
X2446019Y-1042382D01*
X2449162Y-1039054D01*
X2450693Y-1037941D01*
X2462941Y-1025693D01*
X2473123Y-1011679D01*
X2480987Y-996244D01*
X2486340Y-979770D01*
X2489050Y-962661D01*
X2489050Y-945339D01*
X2486340Y-928230D01*
X2480987Y-911755D01*
X2473123Y-896321D01*
X2462941Y-882307D01*
X2450693Y-870059D01*
X2449161Y-868946D01*
X2444895Y-863413D01*
X2444050Y-858914D01*
X2444050Y-822450D01*
X2446019Y-815746D01*
X2451299Y-811171D01*
X2456450Y-810050D01*
X2466468Y-810050D01*
X2466468Y-810050D01*
X2473774Y-808597D01*
X2482060Y-803060D01*
X2487597Y-794774D01*
X2489050Y-787467D01*
X2489050Y-612533D01*
X2489050Y-612532D01*
X2489050Y-612532D01*
X2487597Y-605226D01*
X2487597Y-605226D01*
X2486861Y-604125D01*
X2482060Y-596940D01*
X2475340Y-592450D01*
X2473774Y-591403D01*
X2473774Y-591403D01*
X2466468Y-589950D01*
X2466467Y-589950D01*
X2291533Y-589950D01*
X2291532Y-589950D01*
X2284226Y-591403D01*
X2284226Y-591403D01*
X2275940Y-596940D01*
X2270403Y-605226D01*
X2270403Y-605226D01*
X2268950Y-612532D01*
X2191839Y-612532D01*
X2182679Y-605877D01*
X2167245Y-598013D01*
X2150770Y-592660D01*
X2150770Y-592660D01*
X2150770Y-592660D01*
X2137145Y-590502D01*
X2133661Y-589950D01*
X2116339Y-589950D01*
X2112855Y-590502D01*
X2099230Y-592660D01*
X2082755Y-598013D01*
X2067321Y-605877D01*
X2059326Y-611686D01*
X2053307Y-616059D01*
X2053307Y-616059D01*
X2053307Y-616059D01*
X2041059Y-628307D01*
X2041059Y-628307D01*
X2041059Y-628307D01*
X2036799Y-634170D01*
X2030877Y-642321D01*
X2023013Y-657755D01*
X2017660Y-674230D01*
X2014983Y-691130D01*
X2014950Y-691339D01*
X1825367Y-691339D01*
X1814379Y-670404D01*
X1814379Y-670403D01*
X1797195Y-645508D01*
X1797195Y-645507D01*
X1777135Y-622865D01*
X1777135Y-622865D01*
X1754493Y-602805D01*
X1754492Y-602805D01*
X1729597Y-585621D01*
X1729596Y-585621D01*
X1702812Y-571563D01*
X1674527Y-560836D01*
X1662982Y-557990D01*
X1645155Y-553596D01*
X1627137Y-551409D01*
X1615125Y-549950D01*
X1615125Y-549950D01*
X1606589Y-549950D01*
X606589Y-549950D01*
X600000Y-549950D01*
X584875Y-549950D01*
X584875Y-549950D01*
X569860Y-551773D01*
X554845Y-553596D01*
X542960Y-556526D01*
X525473Y-560836D01*
X497188Y-571563D01*
X470403Y-585621D01*
X470403Y-585621D01*
X445508Y-602805D01*
X445507Y-602805D01*
X422865Y-622865D01*
X422865Y-622865D01*
X402805Y-645507D01*
X402805Y-645508D01*
X385621Y-670403D01*
X385621Y-670404D01*
X371563Y-697188D01*
X360836Y-725473D01*
X358178Y-736257D01*
X353596Y-754845D01*
X352357Y-765050D01*
X349950Y-784874D01*
X349950Y-899557D01*
X349918Y-900442D01*
X349918Y-900442D01*
X348487Y-920456D01*
X348235Y-922207D01*
X344065Y-941379D01*
X343566Y-943076D01*
X336709Y-961461D01*
X335974Y-963070D01*
X326571Y-980290D01*
X325615Y-981779D01*
X313856Y-997487D01*
X312697Y-998824D01*
X298824Y-1012697D01*
X297487Y-1013856D01*
X281779Y-1025615D01*
X280290Y-1026571D01*
X263070Y-1035974D01*
X261461Y-1036709D01*
X243076Y-1043566D01*
X241379Y-1044065D01*
X222207Y-1048235D01*
X220456Y-1048487D01*
X202378Y-1049780D01*
X200442Y-1049918D01*
X199557Y-1049950D01*
X-199557Y-1049950D01*
X-200442Y-1049918D01*
X-202638Y-1049761D01*
X-220456Y-1048487D01*
X-222207Y-1048235D01*
X-241379Y-1044065D01*
X-243076Y-1043566D01*
X-261461Y-1036709D01*
X-263070Y-1035974D01*
X-280291Y-1026571D01*
X-281779Y-1025615D01*
X-285452Y-1022865D01*
X-297487Y-1013856D01*
X-298824Y-1012697D01*
X-312697Y-998824D01*
X-313856Y-997487D01*
X-313875Y-997461D01*
X-325615Y-981778D01*
X-326571Y-980290D01*
X-335974Y-963070D01*
X-336709Y-961461D01*
X-338222Y-957404D01*
X-343567Y-943075D01*
X-344065Y-941380D01*
X-348235Y-922206D01*
X-348487Y-920456D01*
X-349109Y-911755D01*
X-349918Y-900442D01*
X-349950Y-899557D01*
X-349950Y-784874D01*
X-351763Y-769947D01*
X-353596Y-754845D01*
X-360836Y-725473D01*
X-360836Y-725473D01*
X-360836Y-725473D01*
X-371563Y-697188D01*
X-385621Y-670404D01*
X-385621Y-670403D01*
X-402805Y-645508D01*
X-402805Y-645507D01*
X-422865Y-622865D01*
X-422865Y-622865D01*
X-445507Y-602805D01*
X-445508Y-602805D01*
X-470403Y-585621D01*
X-470404Y-585621D01*
X-497188Y-571563D01*
X-525473Y-560836D01*
X-537018Y-557990D01*
X-554845Y-553596D01*
X-572863Y-551409D01*
X-584875Y-549950D01*
X-584875Y-549950D01*
X-593411Y-549950D01*
X-1593411Y-549950D01*
X-1600000Y-549950D01*
X-1615125Y-549950D01*
X-1615125Y-549950D01*
X-1630140Y-551773D01*
X-1645155Y-553596D01*
X-1657040Y-556526D01*
X-1674527Y-560836D01*
X-1702812Y-571563D01*
X-1729596Y-585621D01*
X-1729597Y-585621D01*
X-1754492Y-602805D01*
X-1754493Y-602805D01*
X-1777135Y-622865D01*
X-1777135Y-622865D01*
X-1797195Y-645507D01*
X-1797195Y-645508D01*
X-1814379Y-670403D01*
X-1814379Y-670404D01*
X-1828437Y-697188D01*
X-1839164Y-725473D01*
X-1841822Y-736257D01*
X-1846404Y-754845D01*
X-1847643Y-765050D01*
X-1850050Y-784874D01*
X-1850050Y-1799557D01*
X-1850082Y-1800442D01*
X-1850082Y-1800442D01*
X-1851513Y-1820456D01*
X-1851765Y-1822207D01*
X-1855935Y-1841379D01*
X-1856434Y-1843076D01*
X-1863291Y-1861461D01*
X-1864026Y-1863070D01*
X-1873429Y-1880290D01*
X-1874385Y-1881779D01*
X-1886144Y-1897487D01*
X-1887303Y-1898824D01*
X-1901176Y-1912697D01*
X-1902513Y-1913856D01*
X-1918221Y-1925615D01*
X-1919710Y-1926571D01*
X-1936930Y-1935974D01*
X-1938539Y-1936709D01*
X-1956924Y-1943566D01*
X-1958621Y-1944065D01*
X-1977793Y-1948235D01*
X-1979544Y-1948487D01*
X-1997622Y-1949780D01*
X-1999558Y-1949918D01*
X-2000443Y-1949950D01*
X-2999557Y-1949950D01*
X-3000442Y-1949918D01*
X-3002638Y-1949761D01*
X-3020456Y-1948487D01*
X-3022207Y-1948235D01*
X-3041379Y-1944065D01*
X-3043076Y-1943566D01*
X-3061461Y-1936709D01*
X-3063070Y-1935974D01*
X-3080290Y-1926571D01*
X-3081779Y-1925615D01*
X-3097487Y-1913856D01*
X-3098824Y-1912697D01*
X-3112697Y-1898824D01*
X-3113856Y-1897487D01*
X-3125615Y-1881778D01*
X-3126571Y-1880290D01*
X-3135974Y-1863070D01*
X-3136709Y-1861461D01*
X-3138751Y-1855987D01*
X-3143567Y-1843075D01*
X-3144064Y-1841380D01*
X-3148235Y-1822206D01*
X-3148487Y-1820456D01*
X-3148667Y-1817941D01*
X-3149918Y-1800442D01*
X-3149950Y-1799557D01*
X-3149950Y-1745339D01*
X-3010050Y-1745339D01*
X-3010050Y-1762661D01*
X-3008211Y-1774274D01*
X-3007340Y-1779770D01*
X-3001987Y-1796244D01*
X-2994123Y-1811679D01*
X-2983941Y-1825693D01*
X-2971693Y-1837941D01*
X-2957679Y-1848123D01*
X-2942244Y-1855987D01*
X-2925770Y-1861340D01*
X-2908661Y-1864050D01*
X-2908661Y-1864050D01*
X-2891339Y-1864050D01*
X-2891339Y-1864050D01*
X-2874230Y-1861340D01*
X-2857755Y-1855987D01*
X-2842321Y-1848123D01*
X-2828307Y-1837941D01*
X-2816059Y-1825693D01*
X-2805877Y-1811679D01*
X-2798013Y-1796244D01*
X-2792660Y-1779770D01*
X-2789950Y-1762661D01*
X-2789950Y-1745339D01*
X-2792660Y-1728230D01*
X-2798013Y-1711755D01*
X-2805877Y-1696321D01*
X-2816059Y-1682307D01*
X-2828307Y-1670059D01*
X-2842321Y-1659877D01*
X-2857755Y-1652013D01*
X-2874230Y-1646660D01*
X-2874230Y-1646660D01*
X-2874230Y-1646660D01*
X-2887373Y-1644578D01*
X-2891339Y-1643950D01*
X-2908661Y-1643950D01*
X-2912627Y-1644578D01*
X-2925770Y-1646660D01*
X-2942245Y-1652013D01*
X-2957679Y-1659877D01*
X-2965674Y-1665686D01*
X-2971693Y-1670059D01*
X-2971693Y-1670059D01*
X-2971693Y-1670059D01*
X-2983941Y-1682307D01*
X-2983941Y-1682307D01*
X-2983941Y-1682307D01*
X-2986115Y-1685299D01*
X-2994123Y-1696321D01*
X-3001987Y-1711755D01*
X-3007340Y-1728230D01*
X-3010050Y-1745339D01*
X-3149950Y-1745339D01*
X-3149950Y-1412532D01*
X-3010050Y-1412532D01*
X-3010050Y-1587468D01*
X-3008597Y-1594773D01*
X-3008597Y-1594774D01*
X-3008597Y-1594774D01*
X-3003060Y-1603060D01*
X-2994774Y-1608597D01*
X-2994774Y-1608597D01*
X-2987468Y-1610050D01*
X-2987468Y-1610050D01*
X-2987467Y-1610050D01*
X-2812532Y-1610050D01*
X-2812532Y-1610050D01*
X-2805226Y-1608597D01*
X-2796940Y-1603060D01*
X-2791403Y-1594774D01*
X-2789950Y-1587467D01*
X-2789950Y-1412533D01*
X-2789950Y-1412532D01*
X-2789950Y-1412532D01*
X-2791403Y-1405226D01*
X-2791403Y-1405226D01*
X-2792406Y-1403726D01*
X-2796940Y-1396940D01*
X-2805226Y-1391403D01*
X-2805226Y-1391403D01*
X-2805226Y-1391403D01*
X-2812532Y-1389950D01*
X-2812533Y-1389950D01*
X-2987467Y-1389950D01*
X-2987468Y-1389950D01*
X-2994774Y-1391403D01*
X-2994774Y-1391403D01*
X-3003060Y-1396940D01*
X-3008597Y-1405226D01*
X-3008597Y-1405226D01*
X-3010050Y-1412532D01*
X-3149950Y-1412532D01*
X-3149950Y-1184875D01*
X-3152000Y-1167990D01*
X-3153596Y-1154845D01*
X-3160836Y-1125473D01*
X-3160836Y-1125473D01*
X-3160836Y-1125473D01*
X-3171563Y-1097188D01*
X-3185621Y-1070404D01*
X-3185621Y-1070403D01*
X-3202805Y-1045508D01*
X-3202805Y-1045507D01*
X-3222865Y-1022865D01*
X-3222865Y-1022865D01*
X-3245507Y-1002805D01*
X-3245508Y-1002805D01*
X-3270403Y-985621D01*
X-3270404Y-985621D01*
X-3297188Y-971563D01*
X-3325473Y-960836D01*
X-3337018Y-957990D01*
X-3354845Y-953596D01*
X-3372863Y-951408D01*
X-3384875Y-949950D01*
X-3384875Y-949950D01*
X-3393411Y-949950D01*
X-4799557Y-949950D01*
X-4800442Y-949918D01*
X-4802638Y-949761D01*
X-4820456Y-948487D01*
X-4822207Y-948235D01*
X-4841379Y-944065D01*
X-4843076Y-943566D01*
X-4861461Y-936709D01*
X-4863070Y-935974D01*
X-4880291Y-926571D01*
X-4881779Y-925615D01*
X-4884872Y-923299D01*
X-4897487Y-913856D01*
X-4898824Y-912697D01*
X-4912697Y-898824D01*
X-4913856Y-897487D01*
X-4914728Y-896321D01*
X-4925615Y-881778D01*
X-4926571Y-880290D01*
X-4935974Y-863070D01*
X-4936709Y-861461D01*
X-4938244Y-857346D01*
X-4943567Y-843075D01*
X-4944065Y-841380D01*
X-4948235Y-822206D01*
X-4948487Y-820456D01*
X-4948505Y-820199D01*
X-4949918Y-800442D01*
X-4949950Y-799557D01*
X-4949950Y-138526D01*
X-4898050Y-138526D01*
X-4898050Y-161474D01*
X-4895658Y-179642D01*
X-4895055Y-184224D01*
X-4892426Y-194035D01*
X-4889116Y-206389D01*
X-4880335Y-227588D01*
X-4880334Y-227589D01*
X-4869384Y-246556D01*
X-4868861Y-247462D01*
X-4854892Y-265666D01*
X-4854891Y-265667D01*
X-4838667Y-281891D01*
X-4838666Y-281892D01*
X-4820462Y-295861D01*
X-4820462Y-295861D01*
X-4820461Y-295861D01*
X-4800589Y-307334D01*
X-4800588Y-307335D01*
X-4800588Y-307335D01*
X-4793352Y-310332D01*
X-4779389Y-316116D01*
X-4757224Y-322055D01*
X-4734473Y-325050D01*
X-4734473Y-325050D01*
X-4711527Y-325050D01*
X-4711527Y-325050D01*
X-4688776Y-322055D01*
X-4666611Y-316116D01*
X-4645411Y-307334D01*
X-4625539Y-295861D01*
X-4607334Y-281892D01*
X-4607334Y-281891D01*
X-4607333Y-281891D01*
X-4591109Y-265667D01*
X-4591109Y-265667D01*
X-4591108Y-265666D01*
X-4577139Y-247461D01*
X-4565666Y-227589D01*
X-4556884Y-206389D01*
X-4550945Y-184224D01*
X-4547950Y-161473D01*
X-4547950Y-138527D01*
X-4547950Y-138526D01*
X-3275050Y-138526D01*
X-3275050Y-161474D01*
X-3272658Y-179642D01*
X-3272055Y-184224D01*
X-3269426Y-194035D01*
X-3266116Y-206389D01*
X-3257335Y-227588D01*
X-3257334Y-227589D01*
X-3246384Y-246556D01*
X-3245861Y-247462D01*
X-3231892Y-265666D01*
X-3231891Y-265667D01*
X-3215667Y-281891D01*
X-3215666Y-281892D01*
X-3197462Y-295861D01*
X-3197461Y-295861D01*
X-3197461Y-295861D01*
X-3177589Y-307334D01*
X-3177588Y-307335D01*
X-3177588Y-307335D01*
X-3170352Y-310332D01*
X-3156389Y-316116D01*
X-3134224Y-322055D01*
X-3111473Y-325050D01*
X-3111473Y-325050D01*
X-3088527Y-325050D01*
X-3088527Y-325050D01*
X-3065776Y-322055D01*
X-3043611Y-316116D01*
X-3022411Y-307334D01*
X-3002539Y-295861D01*
X-2984334Y-281892D01*
X-2984333Y-281891D01*
X-2984333Y-281891D01*
X-2968109Y-265667D01*
X-2968109Y-265667D01*
X-2968108Y-265666D01*
X-2954139Y-247461D01*
X-2942666Y-227589D01*
X-2933884Y-206389D01*
X-2927945Y-184224D01*
X-2924950Y-161473D01*
X-2924950Y-138527D01*
X-2927945Y-115776D01*
X-2933884Y-93611D01*
X-2939077Y-81074D01*
X-2942665Y-72412D01*
X-2942665Y-72412D01*
X-2942666Y-72411D01*
X-2954139Y-52539D01*
X-2954139Y-52538D01*
X-2954139Y-52538D01*
X-2968108Y-34334D01*
X-2968109Y-34333D01*
X-2984333Y-18109D01*
X-2984334Y-18108D01*
X-3002538Y-4139D01*
X-3022411Y7334D01*
X-3022412Y7335D01*
X-3043611Y16116D01*
X-3046091Y16780D01*
X-3065776Y22055D01*
X-3069578Y22555D01*
X-3088526Y25050D01*
X-3088527Y25050D01*
X-3111473Y25050D01*
X-3111474Y25050D01*
X-3133128Y22199D01*
X-3134224Y22055D01*
X-3143592Y19545D01*
X-3156389Y16116D01*
X-3177588Y7335D01*
X-3177589Y7334D01*
X-3197462Y-4139D01*
X-3215666Y-18108D01*
X-3231892Y-34334D01*
X-3245861Y-52538D01*
X-3257334Y-72411D01*
X-3257335Y-72412D01*
X-3266116Y-93611D01*
X-3267103Y-97295D01*
X-3271525Y-113800D01*
X-3272055Y-115776D01*
X-3272055Y-115777D01*
X-3275050Y-138526D01*
X-4547950Y-138526D01*
X-4550945Y-115776D01*
X-4556884Y-93611D01*
X-4558907Y-88728D01*
X-4559654Y-81782D01*
X-4556526Y-75534D01*
X-4556221Y-75217D01*
X-4511555Y-30551D01*
X-4511206Y-30216D01*
X-4511130Y-30146D01*
X-4484114Y-5173D01*
X-4483377Y-4544D01*
X-4454596Y18145D01*
X-4453810Y18716D01*
X-4423338Y39076D01*
X-4422511Y39583D01*
X-4390537Y57489D01*
X-4389669Y57931D01*
X-4389656Y57937D01*
X-4356389Y73273D01*
X-4355493Y73645D01*
X-4321110Y86329D01*
X-4320187Y86629D01*
X-4284913Y96577D01*
X-4283970Y96803D01*
X-4248028Y103953D01*
X-4247068Y104105D01*
X-4210674Y108412D01*
X-4209707Y108488D01*
X-4191118Y109219D01*
X-4172821Y109938D01*
X-4172335Y109947D01*
X-4165272Y109947D01*
X-4165272Y109947D01*
X-3207725Y109950D01*
X-3207725Y109950D01*
X-3202317Y109950D01*
X-3200638Y109950D01*
X-3200151Y109941D01*
X-3163292Y108493D01*
X-3162324Y108417D01*
X-3125931Y104110D01*
X-3124970Y103958D01*
X-3089028Y96809D01*
X-3088082Y96582D01*
X-3052812Y86635D01*
X-3051887Y86335D01*
X-3017506Y73651D01*
X-3016608Y73279D01*
X-2991315Y61619D01*
X-2983328Y57937D01*
X-2982461Y57495D01*
X-2955981Y42666D01*
X-2950489Y39590D01*
X-2949659Y39082D01*
X-2928509Y24950D01*
X-2919189Y18723D01*
X-2918402Y18151D01*
X-2890127Y-4139D01*
X-2889623Y-4536D01*
X-2888883Y-5168D01*
X-2874225Y-18718D01*
X-2861863Y-30146D01*
X-2861512Y-30483D01*
X-2834503Y-57492D01*
X-2825434Y-66561D01*
X-2825378Y-66612D01*
X-2814989Y-77000D01*
X-2791569Y-97295D01*
X-2782102Y-105498D01*
X-2747268Y-131575D01*
X-2747268Y-131575D01*
X-2747268Y-131575D01*
X-2747267Y-131576D01*
X-2710660Y-155102D01*
X-2672468Y-175957D01*
X-2637397Y-191974D01*
X-2632884Y-194035D01*
X-2606266Y-203963D01*
X-2592113Y-209242D01*
X-2550361Y-221502D01*
X-2522387Y-227588D01*
X-2507840Y-230752D01*
X-2507840Y-230752D01*
X-2507840Y-230752D01*
X-2464767Y-236946D01*
X-2424467Y-239828D01*
X-2421363Y-240050D01*
X-2421363Y-240050D01*
X-2406011Y-240050D01*
X-2406011Y-240050D01*
X-2400268Y-240050D01*
X-2399605Y-240050D01*
X-2399604Y-240050D01*
X-2387140Y-240050D01*
X-2387140Y-240050D01*
X-253042Y-240048D01*
X-253041Y-240048D01*
X-246253Y-240048D01*
X-246199Y-240048D01*
X-245227Y-240086D01*
X-230155Y-241272D01*
X-228233Y-241576D01*
X-214006Y-244992D01*
X-212157Y-245593D01*
X-209831Y-246556D01*
X-198640Y-251191D01*
X-196906Y-252074D01*
X-184432Y-259718D01*
X-182858Y-260861D01*
X-171384Y-270661D01*
X-170669Y-271322D01*
X-151163Y-290827D01*
X-151163Y-290827D01*
X-146555Y-295435D01*
X-145485Y-296654D01*
X-143755Y-298909D01*
X-142137Y-301713D01*
X-141363Y-303581D01*
X-140525Y-306708D01*
X-140153Y-309538D01*
X-140047Y-311157D01*
X-140047Y-318216D01*
X-140047Y-318222D01*
X-140048Y-337696D01*
X-140048Y-337716D01*
X-140050Y-338380D01*
X-140050Y-338381D01*
X-140050Y-338489D01*
X-140051Y-338493D01*
X-140109Y-339683D01*
X-140137Y-339967D01*
X-140161Y-339964D01*
X-140166Y-340023D01*
X-140119Y-340027D01*
X-140128Y-340140D01*
X-140138Y-340214D01*
X-140145Y-340314D01*
X-140169Y-340605D01*
X-140188Y-340808D01*
X-140201Y-340840D01*
X-140238Y-341368D01*
X-140258Y-341550D01*
X-140309Y-342412D01*
X-140312Y-342484D01*
X-140314Y-342512D01*
X-140316Y-342540D01*
X-140317Y-342540D01*
X-140419Y-343651D01*
X-140462Y-343953D01*
X-140462Y-343954D01*
X-140378Y-344937D01*
X-140335Y-346150D01*
X-140340Y-346556D01*
X-140379Y-347056D01*
X-140350Y-347302D01*
X-140357Y-347817D01*
X-140356Y-347849D01*
X-140370Y-349034D01*
X-140375Y-349107D01*
X-140375Y-349109D01*
X-140312Y-349490D01*
X-140184Y-350536D01*
X-140183Y-350552D01*
X-140183Y-350553D01*
X-140180Y-350591D01*
X-140166Y-350761D01*
X-140166Y-350763D01*
X-140166Y-350766D01*
X-140118Y-351366D01*
X-140119Y-351369D01*
X-140078Y-352367D01*
X-140078Y-427636D01*
X-142046Y-434340D01*
X-147326Y-438916D01*
X-154242Y-439910D01*
X-160598Y-437008D01*
X-161246Y-436404D01*
X-167596Y-430054D01*
X-167597Y-430053D01*
X-182345Y-420199D01*
X-182346Y-420198D01*
X-198733Y-413411D01*
X-198734Y-413410D01*
X-216131Y-409950D01*
X-216131Y-409950D01*
X-218111Y-409950D01*
X-224815Y-407981D01*
X-225660Y-407387D01*
X-245528Y-392142D01*
X-267448Y-379485D01*
X-267449Y-379484D01*
X-290832Y-369799D01*
X-290833Y-369798D01*
X-315283Y-363247D01*
X-340378Y-359943D01*
X-340378Y-359943D01*
X-353034Y-359944D01*
X-2565592Y-359944D01*
X-2565602Y-359944D01*
X-2576325Y-359944D01*
X-2611685Y-363038D01*
X-2646639Y-369201D01*
X-2646640Y-369201D01*
X-2665013Y-374124D01*
X-2680924Y-378388D01*
X-2680925Y-378388D01*
X-2680925Y-378388D01*
X-2714278Y-390528D01*
X-2746446Y-405528D01*
X-2746446Y-405528D01*
X-2777186Y-423276D01*
X-2806261Y-443635D01*
X-2833450Y-466450D01*
X-2841468Y-474468D01*
X-2841468Y-474469D01*
X-2841469Y-474469D01*
X-2841469Y-474470D01*
X-2853304Y-486305D01*
X-2853307Y-486308D01*
X-2853707Y-486709D01*
X-2853707Y-486709D01*
X-2853707Y-486709D01*
X-2861029Y-494031D01*
X-2861030Y-494033D01*
X-2883312Y-520588D01*
X-2903197Y-548987D01*
X-2920530Y-579009D01*
X-2920530Y-579009D01*
X-2935180Y-610427D01*
X-2935181Y-610429D01*
X-2947037Y-643004D01*
X-2947037Y-643006D01*
X-2956009Y-676490D01*
X-2956010Y-676492D01*
X-2962029Y-710630D01*
X-2962029Y-710630D01*
X-2963696Y-729687D01*
X-2966242Y-736194D01*
X-2971304Y-740062D01*
X-2977589Y-742666D01*
X-2977590Y-742666D01*
X-2997462Y-754139D01*
X-3015666Y-768108D01*
X-3031892Y-784334D01*
X-3045861Y-802538D01*
X-3057334Y-822411D01*
X-3057335Y-822412D01*
X-3065550Y-842246D01*
X-3066116Y-843611D01*
X-3071909Y-865232D01*
X-3072055Y-865776D01*
X-3072055Y-865777D01*
X-3075050Y-888526D01*
X-3075050Y-911474D01*
X-3073118Y-926146D01*
X-3072055Y-934224D01*
X-3067849Y-949918D01*
X-3066116Y-956389D01*
X-3057335Y-977588D01*
X-3057334Y-977589D01*
X-3045861Y-997462D01*
X-3031892Y-1015666D01*
X-3031891Y-1015667D01*
X-3015667Y-1031891D01*
X-3015666Y-1031892D01*
X-2997462Y-1045861D01*
X-2997461Y-1045861D01*
X-2997461Y-1045861D01*
X-2977589Y-1057334D01*
X-2977588Y-1057335D01*
X-2977588Y-1057335D01*
X-2968452Y-1061119D01*
X-2956389Y-1066116D01*
X-2934224Y-1072055D01*
X-2911473Y-1075050D01*
X-2911473Y-1075050D01*
X-2888527Y-1075050D01*
X-2888527Y-1075050D01*
X-2865776Y-1072055D01*
X-2843611Y-1066116D01*
X-2822411Y-1057334D01*
X-2802539Y-1045861D01*
X-2784334Y-1031892D01*
X-2784334Y-1031891D01*
X-2784333Y-1031891D01*
X-2768109Y-1015667D01*
X-2768109Y-1015666D01*
X-2768108Y-1015666D01*
X-2754139Y-997461D01*
X-2742666Y-977589D01*
X-2733884Y-956389D01*
X-2727945Y-934224D01*
X-2724950Y-911473D01*
X-2724950Y-888527D01*
X-2727945Y-865776D01*
X-2733884Y-843611D01*
X-2742666Y-822411D01*
X-2754139Y-802539D01*
X-2754139Y-802538D01*
X-2754139Y-802538D01*
X-2765707Y-787463D01*
X-2768108Y-784334D01*
X-2768108Y-784334D01*
X-2768109Y-784333D01*
X-2784333Y-768109D01*
X-2784334Y-768108D01*
X-2802538Y-754139D01*
X-2822411Y-742666D01*
X-2822412Y-742665D01*
X-2825018Y-741586D01*
X-2827359Y-739699D01*
X-2829848Y-738008D01*
X-2830052Y-737529D01*
X-2830458Y-737202D01*
X-2831408Y-734348D01*
X-2832587Y-731581D01*
X-2832569Y-730860D01*
X-2832664Y-730572D01*
X-2832497Y-728053D01*
X-2831634Y-722971D01*
X-2828375Y-703793D01*
X-2828066Y-702440D01*
X-2824868Y-691339D01*
X-2489050Y-691339D01*
X-2489050Y-708661D01*
X-2489017Y-708869D01*
X-2487108Y-720920D01*
X-2486340Y-725770D01*
X-2480987Y-742244D01*
X-2473123Y-757679D01*
X-2462941Y-771693D01*
X-2450693Y-783941D01*
X-2449408Y-784875D01*
X-2449162Y-785054D01*
X-2444895Y-790587D01*
X-2444050Y-795086D01*
X-2444050Y-858914D01*
X-2446019Y-865618D01*
X-2449161Y-868946D01*
X-2450693Y-870058D01*
X-2462941Y-882307D01*
X-2462941Y-882307D01*
X-2462941Y-882307D01*
X-2467314Y-888326D01*
X-2473123Y-896321D01*
X-2480987Y-911755D01*
X-2486340Y-928230D01*
X-2489050Y-945339D01*
X-2489050Y-962661D01*
X-2486758Y-977135D01*
X-2486340Y-979770D01*
X-2480987Y-996244D01*
X-2473123Y-1011679D01*
X-2462941Y-1025693D01*
X-2462941Y-1025693D01*
X-2450693Y-1037941D01*
X-2450692Y-1037942D01*
X-2449162Y-1039054D01*
X-2444895Y-1044587D01*
X-2444050Y-1049086D01*
X-2444050Y-1112914D01*
X-2446019Y-1119618D01*
X-2449161Y-1122946D01*
X-2450693Y-1124059D01*
X-2462941Y-1136307D01*
X-2462941Y-1136307D01*
X-2462941Y-1136307D01*
X-2463960Y-1137709D01*
X-2473123Y-1150321D01*
X-2480987Y-1165755D01*
X-2486340Y-1182230D01*
X-2487365Y-1188701D01*
X-2489050Y-1199339D01*
X-2489050Y-1216661D01*
X-2486340Y-1233770D01*
X-2480987Y-1250245D01*
X-2473123Y-1265679D01*
X-2462941Y-1279693D01*
X-2462941Y-1279693D01*
X-2450693Y-1291941D01*
X-2450692Y-1291942D01*
X-2449162Y-1293054D01*
X-2444895Y-1298587D01*
X-2444050Y-1303086D01*
X-2444050Y-1366914D01*
X-2446019Y-1373618D01*
X-2449161Y-1376946D01*
X-2450693Y-1378059D01*
X-2462941Y-1390307D01*
X-2462941Y-1390307D01*
X-2462941Y-1390307D01*
X-2463738Y-1391403D01*
X-2473123Y-1404321D01*
X-2480987Y-1419755D01*
X-2486340Y-1436230D01*
X-2487365Y-1442701D01*
X-2489050Y-1453339D01*
X-2489050Y-1470661D01*
X-2486340Y-1487770D01*
X-2480987Y-1504244D01*
X-2473123Y-1519679D01*
X-2462941Y-1533693D01*
X-2462941Y-1533693D01*
X-2450693Y-1545941D01*
X-2450692Y-1545942D01*
X-2449162Y-1547054D01*
X-2444895Y-1552587D01*
X-2444050Y-1557086D01*
X-2444050Y-1620914D01*
X-2446019Y-1627618D01*
X-2449161Y-1630946D01*
X-2450693Y-1632058D01*
X-2462941Y-1644307D01*
X-2462941Y-1644307D01*
X-2462941Y-1644307D01*
X-2467314Y-1650326D01*
X-2473123Y-1658321D01*
X-2480987Y-1673755D01*
X-2486340Y-1690230D01*
X-2489050Y-1707339D01*
X-2489050Y-1724661D01*
X-2486340Y-1741769D01*
X-2486340Y-1741770D01*
X-2481713Y-1756010D01*
X-2480987Y-1758245D01*
X-2477036Y-1766000D01*
X-2473123Y-1773679D01*
X-2462941Y-1787693D01*
X-2450693Y-1799941D01*
X-2436679Y-1810123D01*
X-2421245Y-1817987D01*
X-2404770Y-1823340D01*
X-2387661Y-1826050D01*
X-2387661Y-1826050D01*
X-2370339Y-1826050D01*
X-2370339Y-1826050D01*
X-2353230Y-1823340D01*
X-2336756Y-1817987D01*
X-2321321Y-1810123D01*
X-2307307Y-1799941D01*
X-2295059Y-1787693D01*
X-2284877Y-1773679D01*
X-2277013Y-1758244D01*
X-2271660Y-1741770D01*
X-2268950Y-1724661D01*
X-2268950Y-1707343D01*
X-2235000Y-1707343D01*
X-2235000Y-1724657D01*
X-2232292Y-1741758D01*
X-2226941Y-1758226D01*
X-2219080Y-1773652D01*
X-2218629Y-1774274D01*
X-2218629Y-1774274D01*
X-2173296Y-1728941D01*
X-2171593Y-1735299D01*
X-2165010Y-1746701D01*
X-2155701Y-1756010D01*
X-2144299Y-1762592D01*
X-2137941Y-1764296D01*
X-2183274Y-1809629D01*
X-2183274Y-1809629D01*
X-2182653Y-1810080D01*
X-2167226Y-1817941D01*
X-2150759Y-1823291D01*
X-2133657Y-1826000D01*
X-2116343Y-1826000D01*
X-2099242Y-1823291D01*
X-2082774Y-1817941D01*
X-2067347Y-1810080D01*
X-2066726Y-1809629D01*
X-2066726Y-1809629D01*
X-2112059Y-1764296D01*
X-2105701Y-1762592D01*
X-2094299Y-1756010D01*
X-2084990Y-1746701D01*
X-2078407Y-1735299D01*
X-2076704Y-1728941D01*
X-2031371Y-1774274D01*
X-2030920Y-1773652D01*
X-2023059Y-1758226D01*
X-2017709Y-1741758D01*
X-2015000Y-1724657D01*
X-2015000Y-1707343D01*
X-2017709Y-1690241D01*
X-2023059Y-1673774D01*
X-2030920Y-1658347D01*
X-2031371Y-1657726D01*
X-2031371Y-1657726D01*
X-2076704Y-1703059D01*
X-2078407Y-1696701D01*
X-2084990Y-1685299D01*
X-2094299Y-1675990D01*
X-2105701Y-1669407D01*
X-2112059Y-1667704D01*
X-2066726Y-1622371D01*
X-2067347Y-1621920D01*
X-2082774Y-1614059D01*
X-2099242Y-1608708D01*
X-2116343Y-1606000D01*
X-2133657Y-1606000D01*
X-2150759Y-1608708D01*
X-2167226Y-1614059D01*
X-2182652Y-1621919D01*
X-2182654Y-1621920D01*
X-2183274Y-1622371D01*
X-2183274Y-1622371D01*
X-2137941Y-1667704D01*
X-2144299Y-1669407D01*
X-2155701Y-1675990D01*
X-2165010Y-1685299D01*
X-2171593Y-1696701D01*
X-2173296Y-1703059D01*
X-2218629Y-1657726D01*
X-2218629Y-1657726D01*
X-2219080Y-1658346D01*
X-2219081Y-1658348D01*
X-2226941Y-1673774D01*
X-2232292Y-1690241D01*
X-2235000Y-1707343D01*
X-2268950Y-1707343D01*
X-2268950Y-1707339D01*
X-2271660Y-1690230D01*
X-2277013Y-1673755D01*
X-2284877Y-1658321D01*
X-2295059Y-1644307D01*
X-2307307Y-1632059D01*
X-2309382Y-1630551D01*
X-2309880Y-1630099D01*
X-2311366Y-1627668D01*
X-2313105Y-1625413D01*
X-2313265Y-1624561D01*
X-2313524Y-1624138D01*
X-2313505Y-1623287D01*
X-2313950Y-1620914D01*
X-2313950Y-1557086D01*
X-2311982Y-1550382D01*
X-2308838Y-1547054D01*
X-2307307Y-1545941D01*
X-2295059Y-1533693D01*
X-2284877Y-1519679D01*
X-2277013Y-1504244D01*
X-2271660Y-1487770D01*
X-2268950Y-1470661D01*
X-2268950Y-1453343D01*
X-2235000Y-1453343D01*
X-2235000Y-1470657D01*
X-2232292Y-1487758D01*
X-2226941Y-1504226D01*
X-2219080Y-1519652D01*
X-2218629Y-1520274D01*
X-2218629Y-1520274D01*
X-2173296Y-1474941D01*
X-2171593Y-1481299D01*
X-2165010Y-1492701D01*
X-2155701Y-1502010D01*
X-2144299Y-1508592D01*
X-2137941Y-1510296D01*
X-2183274Y-1555629D01*
X-2183274Y-1555629D01*
X-2182653Y-1556080D01*
X-2167226Y-1563941D01*
X-2150759Y-1569291D01*
X-2133657Y-1572000D01*
X-2116343Y-1572000D01*
X-2099242Y-1569291D01*
X-2082774Y-1563941D01*
X-2067347Y-1556080D01*
X-2066726Y-1555629D01*
X-2066726Y-1555629D01*
X-2112059Y-1510296D01*
X-2105701Y-1508592D01*
X-2094299Y-1502010D01*
X-2084990Y-1492701D01*
X-2078407Y-1481299D01*
X-2076704Y-1474941D01*
X-2031371Y-1520274D01*
X-2030920Y-1519652D01*
X-2023059Y-1504226D01*
X-2017709Y-1487758D01*
X-2015000Y-1470657D01*
X-2015000Y-1453343D01*
X-2017709Y-1436241D01*
X-2023059Y-1419774D01*
X-2030920Y-1404347D01*
X-2031371Y-1403726D01*
X-2031371Y-1403726D01*
X-2076704Y-1449059D01*
X-2078407Y-1442701D01*
X-2084990Y-1431299D01*
X-2094299Y-1421990D01*
X-2105701Y-1415407D01*
X-2112059Y-1413704D01*
X-2066726Y-1368371D01*
X-2067347Y-1367920D01*
X-2082774Y-1360059D01*
X-2099242Y-1354709D01*
X-2116343Y-1352000D01*
X-2133657Y-1352000D01*
X-2150759Y-1354709D01*
X-2167226Y-1360059D01*
X-2182652Y-1367919D01*
X-2182654Y-1367920D01*
X-2183274Y-1368371D01*
X-2183274Y-1368371D01*
X-2137941Y-1413704D01*
X-2144299Y-1415407D01*
X-2155701Y-1421990D01*
X-2165010Y-1431299D01*
X-2171593Y-1442701D01*
X-2173296Y-1449059D01*
X-2218629Y-1403726D01*
X-2218629Y-1403726D01*
X-2219080Y-1404346D01*
X-2219081Y-1404348D01*
X-2226941Y-1419774D01*
X-2232292Y-1436241D01*
X-2235000Y-1453343D01*
X-2268950Y-1453343D01*
X-2268950Y-1453339D01*
X-2271660Y-1436230D01*
X-2277013Y-1419755D01*
X-2284877Y-1404321D01*
X-2295059Y-1390307D01*
X-2307307Y-1378059D01*
X-2309382Y-1376551D01*
X-2309880Y-1376099D01*
X-2311366Y-1373669D01*
X-2313105Y-1371413D01*
X-2313265Y-1370561D01*
X-2313524Y-1370138D01*
X-2313505Y-1369287D01*
X-2313950Y-1366914D01*
X-2313950Y-1303086D01*
X-2311982Y-1296382D01*
X-2308838Y-1293054D01*
X-2307307Y-1291941D01*
X-2295059Y-1279693D01*
X-2284877Y-1265679D01*
X-2277013Y-1250245D01*
X-2271660Y-1233770D01*
X-2268950Y-1216661D01*
X-2268950Y-1199343D01*
X-2235000Y-1199343D01*
X-2235000Y-1216657D01*
X-2232292Y-1233758D01*
X-2226941Y-1250226D01*
X-2219080Y-1265653D01*
X-2218629Y-1266274D01*
X-2218629Y-1266274D01*
X-2173296Y-1220941D01*
X-2171593Y-1227299D01*
X-2165010Y-1238701D01*
X-2155701Y-1248010D01*
X-2144299Y-1254593D01*
X-2137941Y-1256296D01*
X-2183274Y-1301629D01*
X-2183274Y-1301629D01*
X-2182653Y-1302080D01*
X-2167226Y-1309941D01*
X-2150759Y-1315291D01*
X-2133657Y-1318000D01*
X-2116343Y-1318000D01*
X-2099242Y-1315291D01*
X-2082774Y-1309941D01*
X-2067347Y-1302080D01*
X-2066726Y-1301629D01*
X-2066726Y-1301629D01*
X-2112059Y-1256296D01*
X-2105701Y-1254593D01*
X-2094299Y-1248010D01*
X-2084990Y-1238701D01*
X-2078407Y-1227299D01*
X-2076704Y-1220941D01*
X-2031371Y-1266274D01*
X-2030920Y-1265653D01*
X-2023059Y-1250226D01*
X-2017709Y-1233758D01*
X-2015000Y-1216657D01*
X-2015000Y-1199343D01*
X-2017709Y-1182242D01*
X-2023059Y-1165774D01*
X-2030920Y-1150347D01*
X-2031371Y-1149726D01*
X-2031371Y-1149726D01*
X-2076704Y-1195059D01*
X-2078407Y-1188701D01*
X-2084990Y-1177299D01*
X-2094299Y-1167990D01*
X-2105701Y-1161408D01*
X-2112059Y-1159704D01*
X-2066726Y-1114371D01*
X-2067347Y-1113920D01*
X-2082774Y-1106059D01*
X-2099242Y-1100709D01*
X-2116343Y-1098000D01*
X-2133657Y-1098000D01*
X-2150759Y-1100709D01*
X-2167226Y-1106059D01*
X-2182652Y-1113919D01*
X-2182654Y-1113920D01*
X-2183274Y-1114371D01*
X-2183274Y-1114371D01*
X-2137941Y-1159704D01*
X-2144299Y-1161408D01*
X-2155701Y-1167990D01*
X-2165010Y-1177299D01*
X-2171593Y-1188701D01*
X-2173296Y-1195059D01*
X-2218629Y-1149726D01*
X-2218629Y-1149726D01*
X-2219080Y-1150346D01*
X-2219081Y-1150348D01*
X-2226941Y-1165774D01*
X-2232292Y-1182242D01*
X-2235000Y-1199343D01*
X-2268950Y-1199343D01*
X-2268950Y-1199339D01*
X-2271660Y-1182230D01*
X-2277013Y-1165756D01*
X-2284877Y-1150321D01*
X-2295059Y-1136307D01*
X-2307307Y-1124059D01*
X-2309382Y-1122551D01*
X-2309880Y-1122099D01*
X-2311366Y-1119669D01*
X-2313105Y-1117413D01*
X-2313265Y-1116561D01*
X-2313524Y-1116138D01*
X-2313505Y-1115287D01*
X-2313950Y-1112914D01*
X-2313950Y-1049086D01*
X-2311982Y-1042382D01*
X-2308838Y-1039054D01*
X-2307307Y-1037941D01*
X-2295059Y-1025693D01*
X-2284877Y-1011679D01*
X-2277013Y-996244D01*
X-2271660Y-979770D01*
X-2268950Y-962661D01*
X-2268950Y-945343D01*
X-2235000Y-945343D01*
X-2235000Y-962657D01*
X-2232292Y-979758D01*
X-2226941Y-996226D01*
X-2219080Y-1011652D01*
X-2218629Y-1012274D01*
X-2218629Y-1012274D01*
X-2173296Y-966941D01*
X-2171593Y-973299D01*
X-2165010Y-984701D01*
X-2155701Y-994010D01*
X-2144299Y-1000592D01*
X-2137941Y-1002296D01*
X-2183274Y-1047629D01*
X-2183274Y-1047629D01*
X-2182653Y-1048080D01*
X-2167226Y-1055941D01*
X-2150759Y-1061291D01*
X-2133657Y-1064000D01*
X-2116343Y-1064000D01*
X-2099242Y-1061291D01*
X-2082774Y-1055941D01*
X-2067347Y-1048080D01*
X-2066726Y-1047629D01*
X-2066726Y-1047629D01*
X-2112059Y-1002296D01*
X-2105701Y-1000592D01*
X-2094299Y-994010D01*
X-2084990Y-984701D01*
X-2078407Y-973299D01*
X-2076704Y-966941D01*
X-2031371Y-1012274D01*
X-2030920Y-1011652D01*
X-2023059Y-996226D01*
X-2017709Y-979758D01*
X-2015000Y-962657D01*
X-2015000Y-945343D01*
X-2017709Y-928241D01*
X-2023059Y-911774D01*
X-2030920Y-896347D01*
X-2031371Y-895726D01*
X-2031371Y-895726D01*
X-2076704Y-941059D01*
X-2078407Y-934701D01*
X-2084990Y-923299D01*
X-2094299Y-913990D01*
X-2105701Y-907407D01*
X-2112059Y-905704D01*
X-2066726Y-860371D01*
X-2067347Y-859920D01*
X-2082774Y-852059D01*
X-2099242Y-846708D01*
X-2116343Y-844000D01*
X-2133657Y-844000D01*
X-2150759Y-846708D01*
X-2167226Y-852059D01*
X-2182652Y-859919D01*
X-2182654Y-859920D01*
X-2183274Y-860371D01*
X-2183274Y-860371D01*
X-2137941Y-905704D01*
X-2144299Y-907407D01*
X-2155701Y-913990D01*
X-2165010Y-923299D01*
X-2171593Y-934701D01*
X-2173296Y-941059D01*
X-2218629Y-895726D01*
X-2218629Y-895726D01*
X-2219080Y-896346D01*
X-2219081Y-896348D01*
X-2226941Y-911774D01*
X-2232292Y-928241D01*
X-2235000Y-945343D01*
X-2268950Y-945343D01*
X-2268950Y-945339D01*
X-2271660Y-928230D01*
X-2277013Y-911755D01*
X-2284877Y-896321D01*
X-2295059Y-882307D01*
X-2307307Y-870059D01*
X-2309382Y-868551D01*
X-2309880Y-868099D01*
X-2311366Y-865668D01*
X-2313105Y-863413D01*
X-2313265Y-862561D01*
X-2313524Y-862138D01*
X-2313505Y-861287D01*
X-2313950Y-858914D01*
X-2313950Y-795086D01*
X-2311982Y-788382D01*
X-2308838Y-785054D01*
X-2307307Y-783941D01*
X-2295059Y-771693D01*
X-2284877Y-757679D01*
X-2277013Y-742244D01*
X-2271660Y-725770D01*
X-2268950Y-708661D01*
X-2268950Y-691339D01*
X-2271660Y-674230D01*
X-2277013Y-657756D01*
X-2284877Y-642321D01*
X-2295059Y-628307D01*
X-2307307Y-616059D01*
X-2312154Y-612537D01*
X-2235000Y-612537D01*
X-2235000Y-675000D01*
X-2168301Y-675000D01*
X-2171593Y-680701D01*
X-2175000Y-693417D01*
X-2175000Y-706583D01*
X-2171593Y-719299D01*
X-2168301Y-725000D01*
X-2235000Y-725000D01*
X-2235000Y-787463D01*
X-2233550Y-794754D01*
X-2233550Y-794754D01*
X-2228024Y-803024D01*
X-2219755Y-808549D01*
X-2219754Y-808550D01*
X-2212463Y-810000D01*
X-2212463Y-810000D01*
X-2150000Y-810000D01*
X-2150000Y-743301D01*
X-2144299Y-746592D01*
X-2131583Y-750000D01*
X-2118417Y-750000D01*
X-2105701Y-746592D01*
X-2100000Y-743301D01*
X-2100000Y-810000D01*
X-2037537Y-810000D01*
X-2037537Y-810000D01*
X-2030246Y-808550D01*
X-2030246Y-808549D01*
X-2021976Y-803024D01*
X-2016451Y-794754D01*
X-2016450Y-794754D01*
X-2015000Y-787463D01*
X-2015000Y-787463D01*
X-2015000Y-725000D01*
X-2081699Y-725000D01*
X-2078407Y-719299D01*
X-2075000Y-706583D01*
X-2075000Y-693417D01*
X-2078407Y-680701D01*
X-2081699Y-675000D01*
X-2015000Y-675000D01*
X-2015000Y-612537D01*
X-2015000Y-612537D01*
X-2016450Y-605246D01*
X-2016451Y-605246D01*
X-2021976Y-596976D01*
X-2030246Y-591451D01*
X-2030246Y-591450D01*
X-2037537Y-590000D01*
X-2100000Y-590000D01*
X-2100000Y-656699D01*
X-2105701Y-653408D01*
X-2118417Y-650000D01*
X-2131583Y-650000D01*
X-2144299Y-653408D01*
X-2150000Y-656699D01*
X-2150000Y-590000D01*
X-2212463Y-590000D01*
X-2219754Y-591450D01*
X-2219755Y-591451D01*
X-2228024Y-596976D01*
X-2233550Y-605246D01*
X-2233550Y-605246D01*
X-2235000Y-612537D01*
X-2312154Y-612537D01*
X-2321321Y-605877D01*
X-2336756Y-598013D01*
X-2353230Y-592660D01*
X-2353230Y-592660D01*
X-2353230Y-592660D01*
X-2366855Y-590502D01*
X-2370339Y-589950D01*
X-2387661Y-589950D01*
X-2391145Y-590502D01*
X-2404770Y-592660D01*
X-2421245Y-598013D01*
X-2436679Y-605877D01*
X-2444674Y-611686D01*
X-2450693Y-616059D01*
X-2450693Y-616059D01*
X-2450693Y-616059D01*
X-2462941Y-628307D01*
X-2462941Y-628307D01*
X-2462941Y-628307D01*
X-2467201Y-634170D01*
X-2473123Y-642321D01*
X-2480987Y-657755D01*
X-2486340Y-674230D01*
X-2489017Y-691130D01*
X-2489050Y-691339D01*
X-2824868Y-691339D01*
X-2820165Y-675014D01*
X-2819707Y-673704D01*
X-2808785Y-647336D01*
X-2808183Y-646085D01*
X-2794377Y-621105D01*
X-2793639Y-619930D01*
X-2777124Y-596653D01*
X-2776259Y-595569D01*
X-2756995Y-574012D01*
X-2756519Y-573508D01*
X-2754219Y-571209D01*
X-2753780Y-570791D01*
X-2734358Y-553187D01*
X-2733419Y-552416D01*
X-2712611Y-536984D01*
X-2711603Y-536310D01*
X-2689381Y-522990D01*
X-2688310Y-522418D01*
X-2664891Y-511341D01*
X-2663771Y-510877D01*
X-2639379Y-502150D01*
X-2638216Y-501797D01*
X-2613086Y-495502D01*
X-2611894Y-495265D01*
X-2586270Y-491464D01*
X-2585060Y-491345D01*
X-2559784Y-490103D01*
X-2558872Y-490059D01*
X-2558263Y-490044D01*
X-2551249Y-490044D01*
X-360361Y-490044D01*
X-360361Y-490044D01*
X-353640Y-490044D01*
X-352425Y-490103D01*
X-341960Y-491134D01*
X-339575Y-491608D01*
X-330098Y-494483D01*
X-327852Y-495413D01*
X-321583Y-498765D01*
X-316598Y-503661D01*
X-315088Y-508484D01*
X-315050Y-508869D01*
X-311590Y-526266D01*
X-311589Y-526267D01*
X-304802Y-542654D01*
X-304801Y-542655D01*
X-294947Y-557403D01*
X-294946Y-557404D01*
X-282404Y-569946D01*
X-282404Y-569946D01*
X-267655Y-579801D01*
X-267654Y-579802D01*
X-255364Y-584892D01*
X-251267Y-586589D01*
X-250372Y-586767D01*
X-244988Y-587838D01*
X-238797Y-591077D01*
X-235340Y-597148D01*
X-235714Y-604125D01*
X-239800Y-609793D01*
X-244988Y-612162D01*
X-251266Y-613410D01*
X-251267Y-613411D01*
X-267654Y-620198D01*
X-267655Y-620199D01*
X-282404Y-630054D01*
X-282404Y-630054D01*
X-294946Y-642596D01*
X-294947Y-642597D01*
X-304801Y-657345D01*
X-304802Y-657346D01*
X-311589Y-673733D01*
X-311590Y-673734D01*
X-315050Y-691130D01*
X-315050Y-708869D01*
X-311590Y-726266D01*
X-311589Y-726267D01*
X-304802Y-742654D01*
X-304801Y-742655D01*
X-294947Y-757403D01*
X-294946Y-757404D01*
X-282404Y-769946D01*
X-282404Y-769946D01*
X-267655Y-779801D01*
X-267654Y-779802D01*
X-257660Y-783941D01*
X-251267Y-786589D01*
X-249241Y-786992D01*
X-244988Y-787838D01*
X-238797Y-791077D01*
X-235340Y-797148D01*
X-235714Y-804125D01*
X-239800Y-809792D01*
X-244988Y-812162D01*
X-251266Y-813410D01*
X-251267Y-813411D01*
X-267654Y-820198D01*
X-267655Y-820199D01*
X-282404Y-830053D01*
X-282404Y-830054D01*
X-294946Y-842596D01*
X-294947Y-842596D01*
X-304801Y-857345D01*
X-304802Y-857346D01*
X-311589Y-873733D01*
X-311590Y-873734D01*
X-315050Y-891130D01*
X-315050Y-908869D01*
X-311590Y-926266D01*
X-311589Y-926267D01*
X-304802Y-942654D01*
X-304801Y-942655D01*
X-294947Y-957403D01*
X-294946Y-957404D01*
X-282404Y-969946D01*
X-282404Y-969946D01*
X-267655Y-979801D01*
X-267654Y-979802D01*
X-255826Y-984701D01*
X-251267Y-986589D01*
X-251266Y-986589D01*
X-251266Y-986590D01*
X-233870Y-990050D01*
X-233869Y-990050D01*
X-233869Y-990050D01*
X-216131Y-990050D01*
X-216131Y-990050D01*
X-210332Y-988896D01*
X-198734Y-986590D01*
X-198734Y-986589D01*
X-198733Y-986589D01*
X-182345Y-979801D01*
X-167597Y-969946D01*
X-155054Y-957403D01*
X-145199Y-942655D01*
X-138411Y-926267D01*
X-137820Y-923299D01*
X-135528Y-911774D01*
X-134950Y-908869D01*
X-134950Y-891131D01*
X-134950Y-891131D01*
X-134950Y-891130D01*
X-138410Y-873734D01*
X-138411Y-873733D01*
X-145198Y-857346D01*
X-145199Y-857345D01*
X-155054Y-842596D01*
X-155054Y-842596D01*
X-167596Y-830054D01*
X-167597Y-830053D01*
X-182345Y-820199D01*
X-182346Y-820198D01*
X-198733Y-813411D01*
X-198734Y-813410D01*
X-205012Y-812162D01*
X-211203Y-808923D01*
X-214660Y-802852D01*
X-214286Y-795875D01*
X-210200Y-790207D01*
X-205012Y-787838D01*
X-198734Y-786590D01*
X-198734Y-786589D01*
X-198733Y-786589D01*
X-182345Y-779801D01*
X-167597Y-769946D01*
X-164561Y-766911D01*
X-158429Y-763562D01*
X-157413Y-763385D01*
X-147882Y-762131D01*
X-126271Y-756340D01*
X-105601Y-747778D01*
X-86226Y-736591D01*
X-68476Y-722971D01*
X-60566Y-715061D01*
X-60566Y-715061D01*
X-59492Y-713987D01*
X-46349Y-700844D01*
X-44615Y-699110D01*
X-44615Y-699110D01*
X-40084Y-694579D01*
X-40083Y-694579D01*
X-39631Y-694127D01*
X-39625Y-694120D01*
X-38029Y-692524D01*
X-27078Y-677453D01*
X-18621Y-660855D01*
X-12863Y-643138D01*
X-12429Y-640396D01*
X-9436Y-634083D01*
X-3505Y-630390D01*
X3481Y-630490D01*
X9305Y-634351D01*
X12112Y-640718D01*
X12551Y-644052D01*
X12551Y-644053D01*
X17653Y-663096D01*
X25198Y-681311D01*
X25198Y-681311D01*
X35056Y-698386D01*
X44451Y-710631D01*
X47057Y-714027D01*
X48533Y-715503D01*
X48533Y-715503D01*
X54027Y-720998D01*
X54027Y-720998D01*
X54028Y-720998D01*
X58503Y-725473D01*
X59695Y-726666D01*
X59715Y-726684D01*
X60999Y-727968D01*
X75880Y-739387D01*
X76640Y-739970D01*
X93714Y-749828D01*
X111929Y-757373D01*
X128720Y-761873D01*
X129682Y-762131D01*
X130972Y-762476D01*
X150519Y-765050D01*
X153107Y-765050D01*
X153971Y-765050D01*
X153972Y-765050D01*
X157565Y-765050D01*
X161150Y-766103D01*
X164268Y-767019D01*
X164268Y-767019D01*
X164268Y-767019D01*
X164269Y-767019D01*
X166332Y-768682D01*
X167596Y-769946D01*
X167597Y-769946D01*
X182345Y-779801D01*
X182346Y-779802D01*
X192340Y-783941D01*
X198733Y-786589D01*
X200759Y-786992D01*
X205012Y-787838D01*
X211203Y-791077D01*
X214660Y-797148D01*
X214286Y-804125D01*
X210200Y-809792D01*
X205012Y-812162D01*
X198734Y-813410D01*
X198733Y-813411D01*
X182346Y-820198D01*
X182345Y-820199D01*
X167597Y-830053D01*
X167596Y-830054D01*
X155054Y-842596D01*
X155054Y-842596D01*
X145199Y-857345D01*
X145198Y-857346D01*
X138411Y-873733D01*
X138410Y-873734D01*
X134950Y-891130D01*
X134950Y-908869D01*
X138410Y-926266D01*
X138411Y-926267D01*
X145198Y-942654D01*
X145199Y-942655D01*
X155054Y-957403D01*
X155054Y-957404D01*
X167596Y-969946D01*
X167597Y-969946D01*
X182345Y-979801D01*
X182346Y-979802D01*
X194174Y-984701D01*
X198733Y-986589D01*
X198734Y-986589D01*
X198734Y-986590D01*
X216130Y-990050D01*
X216131Y-990050D01*
X216131Y-990050D01*
X233869Y-990050D01*
X233869Y-990050D01*
X239668Y-988896D01*
X251266Y-986590D01*
X251266Y-986589D01*
X251267Y-986589D01*
X267655Y-979801D01*
X282404Y-969946D01*
X294946Y-957403D01*
X304801Y-942655D01*
X311589Y-926267D01*
X312180Y-923299D01*
X314472Y-911774D01*
X315050Y-908869D01*
X315050Y-891131D01*
X315050Y-891131D01*
X315050Y-891130D01*
X311590Y-873734D01*
X311589Y-873733D01*
X304802Y-857346D01*
X304801Y-857345D01*
X294946Y-842596D01*
X294946Y-842596D01*
X282404Y-830054D01*
X282403Y-830053D01*
X267655Y-820199D01*
X267654Y-820198D01*
X251267Y-813411D01*
X251266Y-813410D01*
X244988Y-812162D01*
X238797Y-808923D01*
X235340Y-802852D01*
X235714Y-795875D01*
X239800Y-790207D01*
X244988Y-787838D01*
X251266Y-786590D01*
X251266Y-786589D01*
X251267Y-786589D01*
X267655Y-779801D01*
X282404Y-769946D01*
X294946Y-757403D01*
X304669Y-742853D01*
X304801Y-742655D01*
X304801Y-742655D01*
X304801Y-742655D01*
X311589Y-726267D01*
X311606Y-726184D01*
X315050Y-708869D01*
X315050Y-708869D01*
X315050Y-691131D01*
X315050Y-691130D01*
X311590Y-673734D01*
X311589Y-673733D01*
X310210Y-670403D01*
X309753Y-669299D01*
X304802Y-657346D01*
X304801Y-657345D01*
X294946Y-642597D01*
X294946Y-642596D01*
X282404Y-630054D01*
X282403Y-630054D01*
X267655Y-620199D01*
X267654Y-620198D01*
X251267Y-613411D01*
X251266Y-613410D01*
X244988Y-612162D01*
X238797Y-608923D01*
X235340Y-602852D01*
X235714Y-595875D01*
X239800Y-590208D01*
X244988Y-587838D01*
X251266Y-586590D01*
X251266Y-586589D01*
X251267Y-586589D01*
X267655Y-579801D01*
X282404Y-569946D01*
X294946Y-557404D01*
X304801Y-542655D01*
X311589Y-526267D01*
X314558Y-511342D01*
X315050Y-508870D01*
X315087Y-508489D01*
X315163Y-508302D01*
X315169Y-508272D01*
X315175Y-508273D01*
X315385Y-507752D01*
X315335Y-506959D01*
X316674Y-504558D01*
X317703Y-502010D01*
X318438Y-501395D01*
X318738Y-500857D01*
X321582Y-498767D01*
X327853Y-495415D01*
X330098Y-494485D01*
X334837Y-493047D01*
X339576Y-491610D01*
X341959Y-491136D01*
X350391Y-490305D01*
X352436Y-490104D01*
X353651Y-490044D01*
X360360Y-490044D01*
X360361Y-490044D01*
X2551249Y-490046D01*
X2551249Y-490046D01*
X2558273Y-490046D01*
X2558882Y-490061D01*
X2585060Y-491346D01*
X2586270Y-491466D01*
X2611894Y-495267D01*
X2613085Y-495504D01*
X2638215Y-501798D01*
X2639377Y-502151D01*
X2663769Y-510878D01*
X2664890Y-511343D01*
X2688308Y-522419D01*
X2689381Y-522992D01*
X2711600Y-536310D01*
X2712612Y-536986D01*
X2733417Y-552417D01*
X2734357Y-553188D01*
X2747315Y-564933D01*
X2753748Y-570763D01*
X2754189Y-571183D01*
X2779659Y-596655D01*
X2780870Y-597865D01*
X2780870Y-597866D01*
X2785765Y-602761D01*
X2785765Y-602761D01*
X2786320Y-603353D01*
X2791966Y-609792D01*
X2799063Y-617884D01*
X2799915Y-618855D01*
X2800902Y-620142D01*
X2802721Y-622865D01*
X2812131Y-636948D01*
X2812942Y-638352D01*
X2821882Y-656481D01*
X2822503Y-657979D01*
X2829000Y-677118D01*
X2829420Y-678685D01*
X2833363Y-698509D01*
X2833575Y-700117D01*
X2834921Y-720637D01*
X2834947Y-721449D01*
X2834947Y-729187D01*
X2832979Y-735891D01*
X2827698Y-740467D01*
X2827293Y-740643D01*
X2822411Y-742666D01*
X2822410Y-742666D01*
X2802538Y-754139D01*
X2784334Y-768108D01*
X2768108Y-784334D01*
X2754139Y-802538D01*
X2742666Y-822411D01*
X2742665Y-822412D01*
X2734450Y-842246D01*
X2733884Y-843611D01*
X2728091Y-865232D01*
X2727945Y-865776D01*
X2727945Y-865777D01*
X2724950Y-888526D01*
X2724950Y-911474D01*
X2726882Y-926146D01*
X2727945Y-934224D01*
X2732151Y-949918D01*
X2733884Y-956389D01*
X2742665Y-977588D01*
X2742666Y-977589D01*
X2754139Y-997462D01*
X2768108Y-1015666D01*
X2768109Y-1015667D01*
X2784333Y-1031891D01*
X2784334Y-1031892D01*
X2802538Y-1045861D01*
X2802538Y-1045861D01*
X2802539Y-1045861D01*
X2822411Y-1057334D01*
X2822412Y-1057335D01*
X2822412Y-1057335D01*
X2831548Y-1061119D01*
X2843611Y-1066116D01*
X2865776Y-1072055D01*
X2888527Y-1075050D01*
X2888527Y-1075050D01*
X2911473Y-1075050D01*
X2911473Y-1075050D01*
X2934224Y-1072055D01*
X2956389Y-1066116D01*
X2977589Y-1057334D01*
X2997461Y-1045861D01*
X3015666Y-1031892D01*
X3015666Y-1031891D01*
X3015667Y-1031891D01*
X3031891Y-1015667D01*
X3031891Y-1015666D01*
X3031892Y-1015666D01*
X3045861Y-997461D01*
X3057334Y-977589D01*
X3066116Y-956389D01*
X3072055Y-934224D01*
X3075050Y-911473D01*
X3075050Y-888527D01*
X3072055Y-865776D01*
X3066116Y-843611D01*
X3057334Y-822411D01*
X3045861Y-802539D01*
X3045861Y-802538D01*
X3045861Y-802538D01*
X3034293Y-787463D01*
X3031892Y-784334D01*
X3031892Y-784334D01*
X3031891Y-784333D01*
X3015667Y-768109D01*
X3015666Y-768108D01*
X2997462Y-754139D01*
X2977589Y-742666D01*
X2977588Y-742665D01*
X2972702Y-740641D01*
X2971146Y-739387D01*
X2969327Y-738557D01*
X2968481Y-737239D01*
X2967262Y-736257D01*
X2966630Y-734360D01*
X2965550Y-732679D01*
X2965153Y-729922D01*
X2965055Y-729628D01*
X2965047Y-729185D01*
X2965047Y-728423D01*
X2965047Y-728423D01*
X2965047Y-726233D01*
X2965051Y-726221D01*
X2965051Y-721093D01*
X2965051Y-721093D01*
X2965050Y-706501D01*
X2962189Y-677456D01*
X2956495Y-648831D01*
X2954768Y-643138D01*
X2951157Y-631237D01*
X2948022Y-620903D01*
X2946938Y-618285D01*
X2941073Y-604125D01*
X2936853Y-593939D01*
X2923095Y-568200D01*
X2915882Y-557404D01*
X2906881Y-543934D01*
X2906880Y-543933D01*
X2900624Y-536309D01*
X2888366Y-521372D01*
X2878047Y-511054D01*
X2877424Y-510431D01*
X2849725Y-482730D01*
X2849721Y-482724D01*
X2833449Y-466451D01*
X2833449Y-466451D01*
X2806259Y-443636D01*
X2777184Y-423277D01*
X2746446Y-405530D01*
X2714277Y-390529D01*
X2714277Y-390529D01*
X2714277Y-390529D01*
X2680923Y-378389D01*
X2659188Y-372565D01*
X2646639Y-369202D01*
X2646638Y-369202D01*
X2611684Y-363039D01*
X2576325Y-359946D01*
X2576325Y-359946D01*
X2559181Y-359946D01*
X353320Y-359944D01*
X353033Y-359944D01*
X346625Y-359944D01*
X346057Y-359944D01*
X346036Y-359945D01*
X340377Y-359945D01*
X315282Y-363249D01*
X290833Y-369800D01*
X267449Y-379486D01*
X267448Y-379487D01*
X245528Y-392143D01*
X225663Y-407387D01*
X219146Y-409907D01*
X218114Y-409950D01*
X216131Y-409950D01*
X198734Y-413410D01*
X198733Y-413411D01*
X182346Y-420198D01*
X182345Y-420199D01*
X167597Y-430053D01*
X161245Y-436405D01*
X155112Y-439754D01*
X148143Y-439255D01*
X142550Y-435068D01*
X140108Y-428522D01*
X140077Y-427639D01*
X140077Y-341147D01*
X140115Y-340174D01*
X140120Y-340109D01*
X141300Y-325110D01*
X141605Y-323190D01*
X145018Y-308972D01*
X145619Y-307121D01*
X145791Y-306708D01*
X151215Y-293612D01*
X152098Y-291880D01*
X159738Y-279413D01*
X160882Y-277839D01*
X163048Y-275302D01*
X170382Y-266715D01*
X171757Y-265340D01*
X182871Y-255848D01*
X184444Y-254706D01*
X196912Y-247066D01*
X198644Y-246183D01*
X212153Y-240587D01*
X214003Y-239986D01*
X228222Y-236573D01*
X230141Y-236269D01*
X241544Y-235372D01*
X245230Y-235082D01*
X246203Y-235044D01*
X246944Y-235044D01*
X253021Y-235044D01*
X253021Y-235044D01*
X2929186Y-235049D01*
X2935890Y-237018D01*
X2940466Y-242298D01*
X2940641Y-242702D01*
X2942613Y-247462D01*
X2942666Y-247589D01*
X2942666Y-247590D01*
X2950931Y-261905D01*
X2953708Y-266716D01*
X2954139Y-267462D01*
X2968108Y-285666D01*
X2968109Y-285667D01*
X2984333Y-301891D01*
X2984334Y-301892D01*
X3002538Y-315861D01*
X3002538Y-315861D01*
X3002539Y-315861D01*
X3022411Y-327334D01*
X3022412Y-327335D01*
X3022412Y-327335D01*
X3031548Y-331119D01*
X3043611Y-336116D01*
X3065776Y-342055D01*
X3087431Y-344906D01*
X3087665Y-344937D01*
X3088527Y-345050D01*
X3088527Y-345050D01*
X3111473Y-345050D01*
X3111473Y-345050D01*
X3134224Y-342055D01*
X3156389Y-336116D01*
X3177589Y-327334D01*
X3197461Y-315861D01*
X3215666Y-301892D01*
X3215666Y-301891D01*
X3215667Y-301891D01*
X3231891Y-285667D01*
X3231891Y-285667D01*
X3231892Y-285666D01*
X3245861Y-267461D01*
X3257334Y-247589D01*
X3266116Y-226389D01*
X3272055Y-204224D01*
X3275050Y-181473D01*
X3275050Y-158527D01*
X3275050Y-158526D01*
X4547950Y-158526D01*
X4547950Y-181474D01*
X4550445Y-200421D01*
X4550945Y-204224D01*
X4550945Y-204224D01*
X4556884Y-226389D01*
X4565665Y-247588D01*
X4565666Y-247589D01*
X4576709Y-266716D01*
X4577139Y-267462D01*
X4591108Y-285666D01*
X4591109Y-285667D01*
X4607333Y-301891D01*
X4607334Y-301892D01*
X4625538Y-315861D01*
X4625539Y-315861D01*
X4625539Y-315861D01*
X4645411Y-327334D01*
X4645412Y-327335D01*
X4645412Y-327335D01*
X4654548Y-331119D01*
X4666611Y-336116D01*
X4688776Y-342055D01*
X4710431Y-344906D01*
X4710665Y-344937D01*
X4711527Y-345050D01*
X4711527Y-345050D01*
X4734473Y-345050D01*
X4734473Y-345050D01*
X4757224Y-342055D01*
X4779389Y-336116D01*
X4800589Y-327334D01*
X4820461Y-315861D01*
X4838666Y-301892D01*
X4838667Y-301891D01*
X4838667Y-301891D01*
X4854891Y-285667D01*
X4854891Y-285667D01*
X4854892Y-285666D01*
X4868861Y-267461D01*
X4880334Y-247589D01*
X4889116Y-226389D01*
X4895055Y-204224D01*
X4898050Y-181473D01*
X4898050Y-158527D01*
X4895055Y-135776D01*
X4889116Y-113611D01*
X4882061Y-96580D01*
X4880335Y-92412D01*
X4880335Y-92412D01*
X4880334Y-92411D01*
X4868861Y-72539D01*
X4868861Y-72539D01*
X4868861Y-72538D01*
X4854892Y-54334D01*
X4854891Y-54333D01*
X4838667Y-38109D01*
X4838666Y-38108D01*
X4820462Y-24139D01*
X4800589Y-12666D01*
X4800588Y-12665D01*
X4779389Y-3884D01*
X4757224Y2055D01*
X4753422Y2555D01*
X4734474Y5050D01*
X4734473Y5050D01*
X4711527Y5050D01*
X4711526Y5050D01*
X4689872Y2199D01*
X4688776Y2055D01*
X4679408Y-455D01*
X4666611Y-3884D01*
X4645412Y-12665D01*
X4645411Y-12666D01*
X4625538Y-24139D01*
X4607334Y-38108D01*
X4591108Y-54334D01*
X4577139Y-72538D01*
X4565666Y-92411D01*
X4565665Y-92412D01*
X4556884Y-113611D01*
X4556304Y-115776D01*
X4552071Y-131575D01*
X4550945Y-135776D01*
X4550945Y-135777D01*
X4547950Y-158526D01*
X3275050Y-158526D01*
X3272055Y-135776D01*
X3266116Y-113611D01*
X3259061Y-96580D01*
X3257335Y-92412D01*
X3257335Y-92412D01*
X3257334Y-92411D01*
X3245861Y-72539D01*
X3245861Y-72539D01*
X3245861Y-72538D01*
X3231892Y-54334D01*
X3231891Y-54333D01*
X3215667Y-38109D01*
X3215666Y-38108D01*
X3197462Y-24139D01*
X3177589Y-12666D01*
X3177588Y-12665D01*
X3156389Y-3884D01*
X3134224Y2055D01*
X3130421Y2555D01*
X3111474Y5050D01*
X3111473Y5050D01*
X3088527Y5050D01*
X3088526Y5050D01*
X3066871Y2199D01*
X3065776Y2055D01*
X3056408Y-455D01*
X3043611Y-3884D01*
X3022412Y-12665D01*
X3022411Y-12666D01*
X3002538Y-24139D01*
X2984334Y-38108D01*
X2968108Y-54334D01*
X2954139Y-72538D01*
X2942666Y-92410D01*
X2942666Y-92411D01*
X2940642Y-97295D01*
X2936258Y-102735D01*
X2929629Y-104942D01*
X2929186Y-104949D01*
X246947Y-104944D01*
X245693Y-104944D01*
X239286Y-104944D01*
X238698Y-104944D01*
X238661Y-104945D01*
X232455Y-104945D01*
X206148Y-107909D01*
X206146Y-107909D01*
X180337Y-113800D01*
X180336Y-113800D01*
X155347Y-122544D01*
X155347Y-122544D01*
X131493Y-134031D01*
X109076Y-148116D01*
X88377Y-164623D01*
X84201Y-168799D01*
X84200Y-168799D01*
X84200Y-168800D01*
X84200Y-168800D01*
X79017Y-173983D01*
X73834Y-179165D01*
X73832Y-179169D01*
X73359Y-179642D01*
X69657Y-183344D01*
X53150Y-204042D01*
X39064Y-226459D01*
X27576Y-250313D01*
X18833Y-275302D01*
X18832Y-275302D01*
X13846Y-297148D01*
X10435Y-303246D01*
X4269Y-306532D01*
X-2695Y-305962D01*
X-8245Y-301718D01*
X-10537Y-296007D01*
X-12519Y-280945D01*
X-17619Y-261905D01*
X-18525Y-259718D01*
X-25162Y-243694D01*
X-25162Y-243693D01*
X-25162Y-243693D01*
X-35018Y-226621D01*
X-35142Y-226459D01*
X-38946Y-221502D01*
X-47018Y-210982D01*
X-48958Y-209042D01*
X-48960Y-209040D01*
X-72798Y-185203D01*
X-72798Y-185203D01*
X-73819Y-184182D01*
X-73819Y-184182D01*
X-75446Y-182555D01*
X-75450Y-182548D01*
X-82041Y-175957D01*
X-88363Y-169636D01*
X-88363Y-169636D01*
X-100194Y-160202D01*
X-109067Y-153126D01*
X-131489Y-139038D01*
X-133188Y-138220D01*
X-155348Y-127549D01*
X-180343Y-118804D01*
X-206160Y-112912D01*
X-232474Y-109948D01*
X-232475Y-109948D01*
X-245715Y-109948D01*
X-245974Y-109948D01*
X-2399362Y-109950D01*
X-2399848Y-109941D01*
X-2436707Y-108492D01*
X-2437678Y-108416D01*
X-2474068Y-104108D01*
X-2475030Y-103956D01*
X-2510970Y-96807D01*
X-2511917Y-96580D01*
X-2547186Y-86633D01*
X-2548112Y-86332D01*
X-2573409Y-76999D01*
X-2582491Y-73648D01*
X-2583390Y-73275D01*
X-2616669Y-57934D01*
X-2617536Y-57492D01*
X-2649508Y-39586D01*
X-2650338Y-39078D01*
X-2680807Y-18718D01*
X-2681595Y-18146D01*
X-2710373Y4542D01*
X-2711113Y5174D01*
X-2738272Y30279D01*
X-2738622Y30617D01*
X-2743564Y35558D01*
X-2743564Y35559D01*
X-2744271Y36265D01*
X-2744271Y36266D01*
X-2765940Y57934D01*
X-2765946Y57945D01*
X-2769622Y61621D01*
X-2769622Y61621D01*
X-2785007Y77007D01*
X-2785008Y77008D01*
X-2785010Y77009D01*
X-2817894Y105502D01*
X-2817894Y105503D01*
X-2817894Y105503D01*
X-2852731Y131581D01*
X-2871450Y143611D01*
X-2889338Y155107D01*
X-2908877Y165776D01*
X-2927531Y175962D01*
X-2967115Y194038D01*
X-2967115Y194039D01*
X-2967117Y194039D01*
X-3007885Y209245D01*
X-3007890Y209246D01*
X-3049639Y221505D01*
X-3049642Y221505D01*
X-3092161Y230754D01*
X-3135235Y236947D01*
X-3178639Y240051D01*
X-3178639Y240051D01*
X-3200397Y240050D01*
X-3202319Y240050D01*
X-4179586Y240047D01*
X-4179606Y240046D01*
X-4194360Y240046D01*
X-4237765Y236942D01*
X-4280838Y230749D01*
X-4323358Y221499D01*
X-4323360Y221499D01*
X-4365109Y209240D01*
X-4365111Y209240D01*
X-4365111Y209239D01*
X-4405883Y194032D01*
X-4417938Y188527D01*
X-4445466Y175956D01*
X-4483659Y155101D01*
X-4520267Y131575D01*
X-4520267Y131575D01*
X-4555103Y105498D01*
X-4587991Y77001D01*
X-4587993Y76999D01*
X-4598846Y66147D01*
X-4598846Y66146D01*
X-4604846Y60146D01*
X-4608559Y56434D01*
X-4608559Y56433D01*
X-4608559Y56433D01*
X-4608559Y56433D01*
X-4648213Y16780D01*
X-4654345Y13432D01*
X-4661314Y13930D01*
X-4661726Y14092D01*
X-4666610Y16115D01*
X-4666611Y16116D01*
X-4666611Y16116D01*
X-4688776Y22055D01*
X-4692579Y22555D01*
X-4711526Y25050D01*
X-4711527Y25050D01*
X-4734473Y25050D01*
X-4734474Y25050D01*
X-4756129Y22199D01*
X-4757224Y22055D01*
X-4766592Y19545D01*
X-4779389Y16116D01*
X-4800588Y7335D01*
X-4800589Y7334D01*
X-4820462Y-4139D01*
X-4838666Y-18108D01*
X-4854892Y-34334D01*
X-4868861Y-52538D01*
X-4880334Y-72411D01*
X-4880335Y-72412D01*
X-4889116Y-93611D01*
X-4890103Y-97295D01*
X-4894525Y-113800D01*
X-4895055Y-115776D01*
X-4895055Y-115777D01*
X-4898050Y-138526D01*
X-4949950Y-138526D01*
X-4949950Y496474D01*
X-4898050Y496474D01*
X-4898050Y473526D01*
X-4896866Y464529D01*
X-4895055Y450776D01*
X-4890017Y431976D01*
X-4889116Y428611D01*
X-4880335Y407412D01*
X-4880334Y407411D01*
X-4868861Y387538D01*
X-4854892Y369334D01*
X-4854891Y369333D01*
X-4838667Y353109D01*
X-4838666Y353108D01*
X-4820462Y339139D01*
X-4820462Y339139D01*
X-4820461Y339139D01*
X-4800589Y327666D01*
X-4800588Y327665D01*
X-4800588Y327665D01*
X-4791452Y323881D01*
X-4779389Y318884D01*
X-4757224Y312945D01*
X-4734473Y309950D01*
X-4734473Y309950D01*
X-4711527Y309950D01*
X-4711527Y309950D01*
X-4688776Y312945D01*
X-4666611Y318884D01*
X-4645411Y327666D01*
X-4625539Y339139D01*
X-4607334Y353108D01*
X-4607334Y353109D01*
X-4607333Y353109D01*
X-4591109Y369333D01*
X-4591109Y369333D01*
X-4591108Y369334D01*
X-4577139Y387539D01*
X-4565666Y407411D01*
X-4556884Y428611D01*
X-4550945Y450776D01*
X-4547950Y473527D01*
X-4547950Y496473D01*
X-4547950Y496474D01*
X-3275050Y496474D01*
X-3275050Y473526D01*
X-3273865Y464529D01*
X-3272055Y450776D01*
X-3267017Y431976D01*
X-3266116Y428611D01*
X-3257335Y407412D01*
X-3257334Y407411D01*
X-3245861Y387538D01*
X-3231892Y369334D01*
X-3231891Y369333D01*
X-3215667Y353109D01*
X-3215666Y353108D01*
X-3197462Y339139D01*
X-3197461Y339139D01*
X-3197461Y339139D01*
X-3177589Y327666D01*
X-3177588Y327665D01*
X-3177588Y327665D01*
X-3168452Y323881D01*
X-3156389Y318884D01*
X-3134224Y312945D01*
X-3111473Y309950D01*
X-3111473Y309950D01*
X-3088527Y309950D01*
X-3088527Y309950D01*
X-3065776Y312945D01*
X-3043611Y318884D01*
X-3022411Y327666D01*
X-3002539Y339139D01*
X-2984334Y353108D01*
X-2984333Y353109D01*
X-2984333Y353109D01*
X-2968109Y369333D01*
X-2968109Y369333D01*
X-2968108Y369334D01*
X-2954139Y387539D01*
X-2942666Y407411D01*
X-2933884Y428611D01*
X-2927945Y450776D01*
X-2926380Y462661D01*
X-2487550Y462661D01*
X-2487550Y445339D01*
X-2485244Y430777D01*
X-2484840Y428230D01*
X-2479487Y411755D01*
X-2471623Y396321D01*
X-2461441Y382307D01*
X-2461441Y382307D01*
X-2449193Y370059D01*
X-2449192Y370058D01*
X-2447662Y368946D01*
X-2443395Y363413D01*
X-2442550Y358914D01*
X-2442550Y322450D01*
X-2444519Y315746D01*
X-2449799Y311171D01*
X-2454950Y310050D01*
X-2464968Y310050D01*
X-2472274Y308597D01*
X-2472274Y308597D01*
X-2480560Y303060D01*
X-2486097Y294774D01*
X-2486097Y294774D01*
X-2487550Y287468D01*
X-2487550Y112532D01*
X-2486097Y105226D01*
X-2486097Y105226D01*
X-2485249Y103958D01*
X-2480560Y96940D01*
X-2472274Y91403D01*
X-2472274Y91403D01*
X-2464968Y89950D01*
X-2464968Y89950D01*
X-2464967Y89950D01*
X-2290032Y89950D01*
X-2290032Y89950D01*
X-2282726Y91403D01*
X-2274440Y96940D01*
X-2268903Y105226D01*
X-2267450Y112533D01*
X-2267450Y211474D01*
X-1500050Y211474D01*
X-1500050Y188526D01*
X-1498396Y175962D01*
X-1497055Y165776D01*
X-1494196Y155107D01*
X-1491116Y143611D01*
X-1482335Y122412D01*
X-1482334Y122411D01*
X-1471677Y103953D01*
X-1470861Y102538D01*
X-1456892Y84334D01*
X-1456891Y84333D01*
X-1440667Y68109D01*
X-1440666Y68108D01*
X-1422462Y54139D01*
X-1422461Y54139D01*
X-1422461Y54139D01*
X-1402589Y42666D01*
X-1402588Y42665D01*
X-1402588Y42665D01*
X-1395164Y39590D01*
X-1381389Y33884D01*
X-1359224Y27945D01*
X-1336473Y24950D01*
X-1336473Y24950D01*
X-1313527Y24950D01*
X-1313527Y24950D01*
X-1290776Y27945D01*
X-1268611Y33884D01*
X-1247411Y42666D01*
X-1227539Y54139D01*
X-1209334Y68108D01*
X-1209334Y68109D01*
X-1209333Y68109D01*
X-1193109Y84333D01*
X-1193109Y84334D01*
X-1193108Y84334D01*
X-1179139Y102539D01*
X-1167666Y122411D01*
X-1158884Y143611D01*
X-1152945Y165776D01*
X-1149950Y188527D01*
X-1149950Y211473D01*
X-1152945Y234224D01*
X-1158884Y256389D01*
X-1167666Y277589D01*
X-1179139Y297461D01*
X-1179139Y297462D01*
X-1179139Y297462D01*
X-1193108Y315666D01*
X-1193109Y315667D01*
X-1209333Y331891D01*
X-1209334Y331892D01*
X-1227538Y345861D01*
X-1247411Y357334D01*
X-1247412Y357335D01*
X-1268611Y366116D01*
X-1273922Y367539D01*
X-1290776Y372055D01*
X-1294579Y372555D01*
X-1313526Y375050D01*
X-1313527Y375050D01*
X-1336473Y375050D01*
X-1336474Y375050D01*
X-1358129Y372199D01*
X-1359224Y372055D01*
X-1366674Y370059D01*
X-1381389Y366116D01*
X-1402588Y357335D01*
X-1402589Y357334D01*
X-1422462Y345861D01*
X-1440666Y331892D01*
X-1456892Y315666D01*
X-1470861Y297462D01*
X-1482334Y277589D01*
X-1482335Y277588D01*
X-1491116Y256389D01*
X-1491116Y256389D01*
X-1495495Y240046D01*
X-1497055Y234224D01*
X-1497055Y234223D01*
X-1500050Y211474D01*
X-2267450Y211474D01*
X-2267450Y287467D01*
X-2267450Y287468D01*
X-2267450Y287468D01*
X-2268903Y294774D01*
X-2268903Y294774D01*
X-2270699Y297462D01*
X-2274440Y303060D01*
X-2282726Y308597D01*
X-2282726Y308597D01*
X-2282727Y308597D01*
X-2290032Y310050D01*
X-2290033Y310050D01*
X-2300050Y310050D01*
X-2306754Y312019D01*
X-2311329Y317299D01*
X-2312450Y322450D01*
X-2312450Y358914D01*
X-2310482Y365618D01*
X-2307338Y368946D01*
X-2305807Y370059D01*
X-2293559Y382307D01*
X-2283377Y396321D01*
X-2275513Y411755D01*
X-2270160Y428230D01*
X-2267450Y445339D01*
X-2267450Y462661D01*
X-2267746Y464530D01*
X-2266851Y471459D01*
X-2264267Y475237D01*
X-2200721Y538782D01*
X-2200721Y538782D01*
X-2200615Y538888D01*
X-2200286Y539218D01*
X-2200253Y539252D01*
X-2200250Y539253D01*
X-2200248Y539255D01*
X-2200238Y539267D01*
X-2191469Y548035D01*
X-2166151Y577678D01*
X-2143237Y609216D01*
X-2122868Y642454D01*
X-2105170Y677189D01*
X-2091437Y710342D01*
X-1736000Y710342D01*
X-1736000Y689658D01*
X-1731965Y669373D01*
X-1731965Y669373D01*
X-1724050Y650264D01*
X-1720862Y645493D01*
X-1720862Y645493D01*
X-1675214Y691142D01*
X-1672933Y682631D01*
X-1667009Y672369D01*
X-1658631Y663991D01*
X-1648369Y658067D01*
X-1639858Y655786D01*
X-1685507Y610138D01*
X-1685507Y610138D01*
X-1680737Y606951D01*
X-1680736Y606950D01*
X-1661627Y599035D01*
X-1661627Y599035D01*
X-1641342Y595000D01*
X-1641342Y595000D01*
X-1620658Y595000D01*
X-1620658Y595000D01*
X-1600373Y599035D01*
X-1600373Y599035D01*
X-1581263Y606951D01*
X-1576493Y610138D01*
X-1576493Y610138D01*
X-1622141Y655786D01*
X-1613631Y658067D01*
X-1603369Y663991D01*
X-1594991Y672369D01*
X-1589067Y682631D01*
X-1586786Y691142D01*
X-1541138Y645493D01*
X-1541138Y645493D01*
X-1537950Y650263D01*
X-1530035Y669373D01*
X-1530035Y669373D01*
X-1526000Y689658D01*
X-1526000Y689658D01*
X-1526000Y710342D01*
X-1526000Y710342D01*
X-1526001Y710347D01*
X-974050Y710347D01*
X-974050Y689653D01*
X-970013Y669359D01*
X-970013Y669358D01*
X-963486Y653600D01*
X-962094Y650240D01*
X-956812Y642334D01*
X-950598Y633034D01*
X-935966Y618403D01*
X-935965Y618402D01*
X-918760Y606906D01*
X-899642Y598987D01*
X-879598Y595000D01*
X-879347Y594950D01*
X-879347Y594950D01*
X-879346Y594950D01*
X-858653Y594950D01*
X-858653Y594950D01*
X-838358Y598987D01*
X-819240Y606906D01*
X-802034Y618402D01*
X-787402Y633035D01*
X-775906Y650240D01*
X-767987Y669358D01*
X-763950Y689654D01*
X-763950Y710346D01*
X-767987Y730642D01*
X-775906Y749760D01*
X-787402Y766965D01*
X-787402Y766966D01*
X-802034Y781598D01*
X-811898Y788188D01*
X-819240Y793094D01*
X-838358Y801013D01*
X-838359Y801013D01*
X-858653Y805050D01*
X-858653Y805050D01*
X-879346Y805050D01*
X-879347Y805050D01*
X-899641Y801013D01*
X-899642Y801013D01*
X-918760Y793094D01*
X-935966Y781598D01*
X-950598Y766966D01*
X-962094Y749760D01*
X-970013Y730642D01*
X-970013Y730641D01*
X-974050Y710347D01*
X-1526001Y710347D01*
X-1530035Y730627D01*
X-1530035Y730627D01*
X-1537950Y749736D01*
X-1537950Y749737D01*
X-1541138Y754507D01*
X-1541138Y754507D01*
X-1586786Y708859D01*
X-1589067Y717369D01*
X-1594991Y727631D01*
X-1603369Y736009D01*
X-1613631Y741933D01*
X-1622142Y744214D01*
X-1576493Y789862D01*
X-1576493Y789862D01*
X-1581264Y793050D01*
X-1600373Y800965D01*
X-1600373Y800965D01*
X-1620658Y805000D01*
X-1641342Y805000D01*
X-1661627Y800965D01*
X-1661627Y800965D01*
X-1680736Y793050D01*
X-1680737Y793049D01*
X-1685507Y789862D01*
X-1685507Y789862D01*
X-1639858Y744214D01*
X-1648369Y741933D01*
X-1658631Y736009D01*
X-1667009Y727631D01*
X-1672933Y717369D01*
X-1675214Y708858D01*
X-1720862Y754507D01*
X-1720862Y754507D01*
X-1724049Y749737D01*
X-1724050Y749736D01*
X-1731965Y730627D01*
X-1731965Y730627D01*
X-1736000Y710342D01*
X-2091437Y710342D01*
X-2090251Y713205D01*
X-2078205Y750280D01*
X-2069104Y788186D01*
X-2069104Y788188D01*
X-2069104Y788188D01*
X-2063006Y826689D01*
X-2063006Y826690D01*
X-2059948Y865553D01*
X-2059948Y885045D01*
X-2059949Y986721D01*
X-2057981Y993425D01*
X-2052700Y998001D01*
X-2051882Y998339D01*
X-2045767Y1000620D01*
X-2045767Y1000620D01*
X-2045767Y1000620D01*
X-2034245Y1009245D01*
X-2025620Y1020767D01*
X-2020591Y1034252D01*
X-2019950Y1040213D01*
X-2019950Y1107919D01*
X-2017982Y1114623D01*
X-2016319Y1116687D01*
X-1950564Y1182441D01*
X-1647050Y1182441D01*
X-1643321Y1163692D01*
X-1643320Y1163691D01*
X-1636005Y1146030D01*
X-1625384Y1130134D01*
X-1611866Y1116617D01*
X-1595970Y1105995D01*
X-1578309Y1098680D01*
X-1578308Y1098680D01*
X-1578308Y1098680D01*
X-1578308Y1098680D01*
X-1559559Y1094950D01*
X-1542082Y1094950D01*
X-1535379Y1092982D01*
X-1533315Y1091319D01*
X-1512467Y1070471D01*
X-1512467Y1070471D01*
X-1512036Y1070040D01*
X-1512033Y1070038D01*
X-1506317Y1064322D01*
X-1482965Y1045157D01*
X-1457848Y1028374D01*
X-1457847Y1028373D01*
X-1457847Y1028373D01*
X-1431206Y1014134D01*
X-1431206Y1014134D01*
X-1431206Y1014134D01*
X-1403296Y1002573D01*
X-1374388Y993804D01*
X-1344760Y987910D01*
X-1314696Y984949D01*
X-1302613Y984949D01*
X-1299592Y984949D01*
X-1299592Y984949D01*
X-1295367Y984949D01*
X-1025646Y984946D01*
X-1018942Y982978D01*
X-1017448Y981774D01*
X-1017436Y981789D01*
X-1016966Y981402D01*
X-1016965Y981402D01*
X-999760Y969906D01*
X-980642Y961987D01*
X-960347Y957950D01*
X-960347Y957950D01*
X-960346Y957950D01*
X-939653Y957950D01*
X-939653Y957950D01*
X-930140Y959842D01*
X-605050Y959842D01*
X-605050Y720158D01*
X-601971Y700717D01*
X-595888Y681997D01*
X-589449Y669359D01*
X-586952Y664460D01*
X-575383Y648535D01*
X-561465Y634617D01*
X-545541Y623048D01*
X-543066Y621787D01*
X-528003Y614112D01*
X-528003Y614112D01*
X-528003Y614112D01*
X-517998Y610861D01*
X-509283Y608029D01*
X-489842Y604950D01*
X-489842Y604950D01*
X-470158Y604950D01*
X-450717Y608029D01*
X-431997Y614112D01*
X-414459Y623048D01*
X-398535Y634617D01*
X-384617Y648535D01*
X-381764Y652463D01*
X-255000Y652463D01*
X-255000Y575000D01*
X-173301Y575000D01*
X-176592Y569299D01*
X-180000Y556583D01*
X-180000Y543417D01*
X-176592Y530701D01*
X-173301Y525000D01*
X-255000Y525000D01*
X-255000Y447537D01*
X-253550Y440246D01*
X-253549Y440246D01*
X-248024Y431976D01*
X-239754Y426451D01*
X-239754Y426450D01*
X-232463Y425000D01*
X-232463Y425000D01*
X-25000Y425000D01*
X-25000Y500000D01*
X25000Y500000D01*
X25000Y425000D01*
X232463Y425000D01*
X232463Y425000D01*
X239754Y426450D01*
X239754Y426451D01*
X248024Y431976D01*
X253549Y440246D01*
X253550Y440246D01*
X255000Y447537D01*
X255000Y447537D01*
X255000Y525000D01*
X173301Y525000D01*
X176592Y530701D01*
X180000Y543417D01*
X180000Y556583D01*
X176592Y569299D01*
X173301Y575000D01*
X255000Y575000D01*
X255000Y652463D01*
X255000Y652463D01*
X253550Y659754D01*
X253549Y659755D01*
X248024Y668024D01*
X239754Y673550D01*
X239754Y673550D01*
X232463Y675000D01*
X25000Y675000D01*
X25000Y600000D01*
X-25000Y600000D01*
X-25000Y675000D01*
X-232463Y675000D01*
X-239754Y673550D01*
X-239754Y673550D01*
X-248024Y668024D01*
X-253549Y659755D01*
X-253550Y659754D01*
X-255000Y652463D01*
X-381764Y652463D01*
X-373048Y664460D01*
X-364112Y681998D01*
X-358029Y700717D01*
X-356902Y707836D01*
X-354950Y720158D01*
X-354950Y761055D01*
X834950Y761055D01*
X834950Y742945D01*
X837783Y725059D01*
X843379Y707836D01*
X843379Y707836D01*
X848966Y696870D01*
X851504Y691891D01*
X851601Y691700D01*
X862244Y677051D01*
X862244Y677050D01*
X875050Y664245D01*
X875050Y664244D01*
X884946Y657055D01*
X889701Y653600D01*
X897967Y649388D01*
X905836Y645379D01*
X905836Y645379D01*
X914448Y642581D01*
X923059Y639783D01*
X929777Y638719D01*
X936227Y637697D01*
X942540Y634704D01*
X946233Y628773D01*
X946133Y621787D01*
X942272Y615964D01*
X935876Y613152D01*
X934287Y613050D01*
X857532Y613050D01*
X850226Y611597D01*
X850226Y611597D01*
X841940Y606060D01*
X836403Y597774D01*
X836403Y597774D01*
X834950Y590468D01*
X834950Y405532D01*
X836403Y398226D01*
X836403Y398226D01*
X836403Y398226D01*
X841940Y389940D01*
X850226Y384403D01*
X850226Y384403D01*
X857532Y382950D01*
X857532Y382950D01*
X857533Y382950D01*
X1042468Y382950D01*
X1042468Y382950D01*
X1049774Y384403D01*
X1058060Y389940D01*
X1063597Y398226D01*
X1065050Y405533D01*
X1065050Y476474D01*
X2924950Y476474D01*
X2924950Y453526D01*
X2926698Y440246D01*
X2927945Y430776D01*
X2929104Y426450D01*
X2933884Y408611D01*
X2942665Y387412D01*
X2942666Y387411D01*
X2954139Y367538D01*
X2968108Y349334D01*
X2968109Y349333D01*
X2984333Y333109D01*
X2984334Y333108D01*
X3002538Y319139D01*
X3002538Y319139D01*
X3002539Y319139D01*
X3022411Y307666D01*
X3022412Y307665D01*
X3022412Y307665D01*
X3031548Y303881D01*
X3043611Y298884D01*
X3065776Y292945D01*
X3088527Y289950D01*
X3088527Y289950D01*
X3111473Y289950D01*
X3111473Y289950D01*
X3134224Y292945D01*
X3156389Y298884D01*
X3177589Y307666D01*
X3197461Y319139D01*
X3215666Y333108D01*
X3215666Y333109D01*
X3215667Y333109D01*
X3231891Y349333D01*
X3231891Y349334D01*
X3231892Y349334D01*
X3245861Y367539D01*
X3257334Y387411D01*
X3266116Y408611D01*
X3272055Y430776D01*
X3275050Y453527D01*
X3275050Y476473D01*
X3275050Y476474D01*
X4547950Y476474D01*
X4547950Y453526D01*
X4549699Y440246D01*
X4550945Y430776D01*
X4552104Y426450D01*
X4556884Y408611D01*
X4565665Y387412D01*
X4565666Y387411D01*
X4577139Y367538D01*
X4591108Y349334D01*
X4591109Y349333D01*
X4607333Y333109D01*
X4607334Y333108D01*
X4625538Y319139D01*
X4625539Y319139D01*
X4625539Y319139D01*
X4645411Y307666D01*
X4645412Y307665D01*
X4645412Y307665D01*
X4654548Y303881D01*
X4666611Y298884D01*
X4688776Y292945D01*
X4711527Y289950D01*
X4711527Y289950D01*
X4734473Y289950D01*
X4734473Y289950D01*
X4757224Y292945D01*
X4779389Y298884D01*
X4800589Y307666D01*
X4820461Y319139D01*
X4838666Y333108D01*
X4838667Y333109D01*
X4838667Y333109D01*
X4854891Y349333D01*
X4854891Y349334D01*
X4854892Y349334D01*
X4868861Y367539D01*
X4880334Y387411D01*
X4889116Y408611D01*
X4895055Y430776D01*
X4898050Y453527D01*
X4898050Y476473D01*
X4895055Y499224D01*
X4889116Y521389D01*
X4881911Y538782D01*
X4880335Y542588D01*
X4880335Y542588D01*
X4880334Y542589D01*
X4868861Y562461D01*
X4868861Y562462D01*
X4868861Y562462D01*
X4857185Y577678D01*
X4854892Y580666D01*
X4854892Y580666D01*
X4854891Y580667D01*
X4838667Y596891D01*
X4838666Y596892D01*
X4820462Y610861D01*
X4814831Y614112D01*
X4802788Y621065D01*
X4800589Y622334D01*
X4800588Y622335D01*
X4779389Y631116D01*
X4757224Y637055D01*
X4753422Y637555D01*
X4734474Y640050D01*
X4734473Y640050D01*
X4711527Y640050D01*
X4711526Y640050D01*
X4689872Y637199D01*
X4688776Y637055D01*
X4688385Y636950D01*
X4666611Y631116D01*
X4645412Y622335D01*
X4645411Y622334D01*
X4625538Y610861D01*
X4607334Y596892D01*
X4591108Y580666D01*
X4577139Y562462D01*
X4565666Y542589D01*
X4565665Y542588D01*
X4556884Y521389D01*
X4550945Y499224D01*
X4550945Y499223D01*
X4547950Y476474D01*
X3275050Y476474D01*
X3272055Y499224D01*
X3266116Y521389D01*
X3258911Y538782D01*
X3257335Y542588D01*
X3257335Y542588D01*
X3257334Y542589D01*
X3245861Y562461D01*
X3245861Y562462D01*
X3245861Y562462D01*
X3234185Y577678D01*
X3231892Y580666D01*
X3231892Y580666D01*
X3231891Y580667D01*
X3215667Y596891D01*
X3215666Y596892D01*
X3197462Y610861D01*
X3191831Y614112D01*
X3179788Y621065D01*
X3177589Y622334D01*
X3177588Y622335D01*
X3156389Y631116D01*
X3134224Y637055D01*
X3130421Y637555D01*
X3111474Y640050D01*
X3111473Y640050D01*
X3088527Y640050D01*
X3088526Y640050D01*
X3066871Y637199D01*
X3065776Y637055D01*
X3065385Y636950D01*
X3043611Y631116D01*
X3022412Y622335D01*
X3022411Y622334D01*
X3002538Y610861D01*
X2984334Y596892D01*
X2968108Y580666D01*
X2954139Y562462D01*
X2942666Y542589D01*
X2942665Y542588D01*
X2933884Y521389D01*
X2927945Y499224D01*
X2927945Y499223D01*
X2924950Y476474D01*
X1065050Y476474D01*
X1065050Y590467D01*
X1065050Y590468D01*
X1065050Y590468D01*
X1063597Y597774D01*
X1063597Y597774D01*
X1062754Y599035D01*
X1058060Y606060D01*
X1051957Y610138D01*
X1049774Y611597D01*
X1049774Y611597D01*
X1042468Y613050D01*
X1042467Y613050D01*
X965713Y613050D01*
X959009Y615019D01*
X954434Y620299D01*
X953439Y627215D01*
X956342Y633570D01*
X962220Y637348D01*
X963773Y637697D01*
X969541Y638611D01*
X976941Y639783D01*
X994164Y645379D01*
X1010299Y653600D01*
X1024950Y664245D01*
X1037755Y677050D01*
X1048400Y691701D01*
X1056621Y707836D01*
X1058365Y713204D01*
X1058634Y714031D01*
X1058634Y714031D01*
X1058878Y714782D01*
X1062217Y725059D01*
X1063099Y730627D01*
X1065050Y742945D01*
X1065050Y761055D01*
X1063160Y772989D01*
X1062217Y778941D01*
X1058669Y789862D01*
X1056621Y796164D01*
X1056621Y796164D01*
X1048400Y812299D01*
X1042560Y820337D01*
X1042560Y820337D01*
X1037755Y826950D01*
X1037081Y827625D01*
X1415000Y827625D01*
X1415000Y806375D01*
X1418324Y785387D01*
X1418324Y785387D01*
X1424890Y765178D01*
X1434537Y746245D01*
X1438473Y740828D01*
X1497621Y799977D01*
X1498748Y795771D01*
X1505989Y783229D01*
X1516229Y772989D01*
X1528771Y765748D01*
X1532976Y764621D01*
X1473828Y705473D01*
X1473828Y705473D01*
X1479245Y701538D01*
X1498178Y691891D01*
X1518387Y685324D01*
X1539375Y682000D01*
X1560625Y682000D01*
X1581613Y685324D01*
X1581613Y685324D01*
X1601822Y691891D01*
X1620755Y701538D01*
X1626172Y705473D01*
X1626172Y705473D01*
X1567023Y764621D01*
X1571229Y765748D01*
X1583771Y772989D01*
X1594011Y783229D01*
X1601252Y795771D01*
X1602379Y799977D01*
X1661527Y740828D01*
X1661527Y740828D01*
X1665462Y746245D01*
X1675109Y765178D01*
X1681676Y785387D01*
X1681676Y785387D01*
X1685000Y806375D01*
X1685000Y827625D01*
X1681676Y848613D01*
X1681676Y848613D01*
X1675109Y868822D01*
X1665462Y887755D01*
X1661527Y893172D01*
X1661527Y893172D01*
X1602379Y834023D01*
X1601252Y838229D01*
X1594011Y850771D01*
X1583771Y861011D01*
X1571229Y868252D01*
X1567023Y869379D01*
X1626172Y928527D01*
X1620755Y932462D01*
X1601822Y942110D01*
X1581613Y948676D01*
X1560625Y952000D01*
X1539375Y952000D01*
X1518387Y948676D01*
X1518387Y948676D01*
X1498178Y942110D01*
X1479244Y932462D01*
X1473828Y928527D01*
X1473828Y928527D01*
X1532977Y869379D01*
X1528771Y868252D01*
X1516229Y861011D01*
X1505989Y850771D01*
X1498748Y838229D01*
X1497621Y834023D01*
X1438473Y893172D01*
X1438473Y893172D01*
X1434538Y887756D01*
X1424890Y868822D01*
X1418324Y848613D01*
X1418324Y848613D01*
X1415000Y827625D01*
X1037081Y827625D01*
X1028419Y836287D01*
X1028172Y836565D01*
X1026836Y839403D01*
X1025333Y842156D01*
X1025272Y842729D01*
X1025197Y842887D01*
X1025229Y843128D01*
X1025050Y844792D01*
X1025050Y984351D01*
X1027018Y991054D01*
X1028681Y993118D01*
X1031598Y996034D01*
X1043094Y1013240D01*
X1051013Y1032358D01*
X1055050Y1052654D01*
X1055050Y1073347D01*
X1051013Y1093642D01*
X1043094Y1112760D01*
X1031598Y1129966D01*
X1031597Y1129966D01*
X1016966Y1144598D01*
X1007807Y1150717D01*
X999760Y1156094D01*
X999086Y1156373D01*
X980642Y1164013D01*
X980641Y1164013D01*
X960347Y1168050D01*
X960346Y1168050D01*
X939653Y1168050D01*
X939653Y1168050D01*
X919359Y1164013D01*
X919358Y1164013D01*
X900240Y1156094D01*
X883034Y1144598D01*
X868402Y1129966D01*
X856906Y1112760D01*
X848987Y1093642D01*
X848987Y1093641D01*
X844950Y1073347D01*
X844950Y1052653D01*
X848987Y1032359D01*
X848987Y1032358D01*
X856906Y1013240D01*
X866862Y998339D01*
X868402Y996034D01*
X871318Y993119D01*
X874667Y986987D01*
X874950Y984351D01*
X874950Y844792D01*
X872981Y838088D01*
X871318Y836023D01*
X862244Y826950D01*
X862244Y826949D01*
X851601Y812300D01*
X843379Y796164D01*
X843379Y796164D01*
X837783Y778941D01*
X834950Y761055D01*
X-354950Y761055D01*
X-354950Y959842D01*
X-358029Y979283D01*
X-361345Y989487D01*
X-364112Y998002D01*
X-364112Y998003D01*
X-364112Y998003D01*
X-370295Y1010138D01*
X-373048Y1015540D01*
X-384617Y1031465D01*
X-398535Y1045383D01*
X-414459Y1056952D01*
X-416450Y1057967D01*
X-431997Y1065888D01*
X-450717Y1071971D01*
X-470158Y1075050D01*
X-470158Y1075050D01*
X-489842Y1075050D01*
X-489842Y1075050D01*
X-509283Y1071971D01*
X-528003Y1065888D01*
X-545541Y1056952D01*
X-554626Y1050352D01*
X-561465Y1045383D01*
X-561465Y1045383D01*
X-561465Y1045383D01*
X-575383Y1031465D01*
X-575383Y1031465D01*
X-575383Y1031465D01*
X-577629Y1028373D01*
X-586952Y1015541D01*
X-595888Y998003D01*
X-601971Y979283D01*
X-605050Y959842D01*
X-930140Y959842D01*
X-919358Y961987D01*
X-900240Y969906D01*
X-883034Y981402D01*
X-868402Y996034D01*
X-856906Y1013240D01*
X-848987Y1032358D01*
X-844950Y1052654D01*
X-844950Y1073347D01*
X-848987Y1093642D01*
X-856906Y1112760D01*
X-868402Y1129966D01*
X-868402Y1129966D01*
X-883034Y1144598D01*
X-892193Y1150717D01*
X-900240Y1156094D01*
X-900914Y1156373D01*
X-919358Y1164013D01*
X-919359Y1164013D01*
X-939653Y1168050D01*
X-939653Y1168050D01*
X-960346Y1168050D01*
X-960347Y1168050D01*
X-980641Y1164013D01*
X-980642Y1164013D01*
X-999760Y1156094D01*
X-1016966Y1144598D01*
X-1031597Y1129966D01*
X-1031598Y1129966D01*
X-1037884Y1120558D01*
X-1043245Y1116077D01*
X-1048194Y1115047D01*
X-1292262Y1115049D01*
X-1292262Y1115049D01*
X-1295366Y1115049D01*
X-1299187Y1115049D01*
X-1299997Y1115076D01*
X-1321930Y1116513D01*
X-1323538Y1116725D01*
X-1344698Y1120934D01*
X-1346265Y1121354D01*
X-1366694Y1128289D01*
X-1368193Y1128909D01*
X-1387542Y1138452D01*
X-1388947Y1139263D01*
X-1406885Y1151249D01*
X-1408172Y1152236D01*
X-1424702Y1166733D01*
X-1425294Y1167287D01*
X-1430186Y1172179D01*
X-1449318Y1191311D01*
X-1452667Y1197444D01*
X-1452950Y1200079D01*
X-1452950Y1201559D01*
X-1456679Y1220308D01*
X-1456680Y1220308D01*
X-1456680Y1220308D01*
X-1458543Y1224807D01*
X-1463995Y1237970D01*
X-1474616Y1253866D01*
X-1488134Y1267384D01*
X-1504030Y1278005D01*
X-1521691Y1285320D01*
X-1521692Y1285321D01*
X-1540441Y1289050D01*
X-1540441Y1289050D01*
X-1559559Y1289050D01*
X-1559559Y1289050D01*
X-1578308Y1285321D01*
X-1578309Y1285320D01*
X-1595970Y1278005D01*
X-1611866Y1267384D01*
X-1625384Y1253866D01*
X-1636005Y1237970D01*
X-1643320Y1220309D01*
X-1643321Y1220308D01*
X-1647050Y1201559D01*
X-1647050Y1201559D01*
X-1647050Y1182441D01*
X-1647050Y1182441D01*
X-1647050Y1182441D01*
X-1950564Y1182441D01*
X-1814212Y1318794D01*
X-1813710Y1319268D01*
X-1796810Y1334370D01*
X-1795724Y1335236D01*
X-1777528Y1348147D01*
X-1776350Y1348887D01*
X-1769488Y1352680D01*
X-1756822Y1359680D01*
X-1755570Y1360283D01*
X-1734957Y1368821D01*
X-1733646Y1369280D01*
X-1712203Y1375457D01*
X-1710850Y1375766D01*
X-1688852Y1379504D01*
X-1687473Y1379659D01*
X-1672669Y1380490D01*
X-1664830Y1380931D01*
X-1664135Y1380950D01*
X-1657170Y1380950D01*
X-1627336Y1380950D01*
X-1620632Y1378982D01*
X-1618568Y1377319D01*
X-1611866Y1370617D01*
X-1611866Y1370616D01*
X-1595970Y1359995D01*
X-1578309Y1352680D01*
X-1578308Y1352680D01*
X-1578308Y1352680D01*
X-1578308Y1352680D01*
X-1559559Y1348950D01*
X-1559559Y1348950D01*
X-1540441Y1348950D01*
X-1527827Y1351459D01*
X-1521692Y1352680D01*
X-1504791Y1359680D01*
X-1504030Y1359995D01*
X-1504030Y1359995D01*
X-1504030Y1359995D01*
X-1488134Y1370616D01*
X-1474616Y1384134D01*
X-1463995Y1400030D01*
X-1456680Y1417692D01*
X-1452950Y1436441D01*
X-1452950Y1455559D01*
X-1452950Y1455559D01*
X-1456679Y1474308D01*
X-1456680Y1474308D01*
X-1456680Y1474308D01*
X-1456680Y1474309D01*
X-1463995Y1491970D01*
X-1474616Y1507866D01*
X-1488134Y1521384D01*
X-1504030Y1532005D01*
X-1521691Y1539320D01*
X-1521692Y1539321D01*
X-1540441Y1543050D01*
X-1540441Y1543050D01*
X-1559559Y1543050D01*
X-1559559Y1543050D01*
X-1578308Y1539321D01*
X-1578309Y1539320D01*
X-1595970Y1532005D01*
X-1611866Y1521384D01*
X-1615217Y1518033D01*
X-1618568Y1514682D01*
X-1624700Y1511333D01*
X-1627336Y1511050D01*
X-1671510Y1511050D01*
X-1671528Y1511049D01*
X-1681275Y1511049D01*
X-1689415Y1510247D01*
X-1714664Y1507761D01*
X-1714664Y1507761D01*
X-1747571Y1501215D01*
X-1779679Y1491476D01*
X-1810675Y1478637D01*
X-1810676Y1478636D01*
X-1840265Y1462821D01*
X-1840266Y1462820D01*
X-1868162Y1444181D01*
X-1868163Y1444180D01*
X-1894098Y1422896D01*
X-1901230Y1415765D01*
X-1901239Y1415756D01*
X-2108313Y1208682D01*
X-2114445Y1205333D01*
X-2117081Y1205050D01*
X-2184787Y1205050D01*
X-2184788Y1205050D01*
X-2190748Y1204409D01*
X-2204233Y1199380D01*
X-2204234Y1199379D01*
X-2215755Y1190755D01*
X-2215755Y1190755D01*
X-2224379Y1179234D01*
X-2224380Y1179233D01*
X-2229409Y1165748D01*
X-2230050Y1159788D01*
X-2230050Y1159788D01*
X-2230050Y1159787D01*
X-2230050Y1040213D01*
X-2230050Y1040212D01*
X-2229409Y1034252D01*
X-2224380Y1020767D01*
X-2224379Y1020766D01*
X-2215755Y1009246D01*
X-2215755Y1009245D01*
X-2204234Y1000621D01*
X-2204233Y1000620D01*
X-2198116Y998339D01*
X-2192523Y994152D01*
X-2190081Y987605D01*
X-2190049Y986721D01*
X-2190048Y892373D01*
X-2190048Y885314D01*
X-2190060Y884773D01*
X-2191417Y853686D01*
X-2191511Y852608D01*
X-2195537Y822027D01*
X-2195725Y820961D01*
X-2202401Y790846D01*
X-2202681Y789801D01*
X-2211957Y760383D01*
X-2212327Y759366D01*
X-2224131Y730868D01*
X-2224589Y729888D01*
X-2238831Y702528D01*
X-2239372Y701591D01*
X-2255946Y675576D01*
X-2256567Y674690D01*
X-2275345Y650217D01*
X-2276040Y649389D01*
X-2279715Y645379D01*
X-2297075Y626434D01*
X-2297449Y626044D01*
X-2302428Y621065D01*
X-2356261Y567233D01*
X-2362393Y563885D01*
X-2366969Y563754D01*
X-2368839Y564050D01*
X-2368839Y564050D01*
X-2386161Y564050D01*
X-2387206Y563885D01*
X-2403270Y561340D01*
X-2419745Y555987D01*
X-2435179Y548123D01*
X-2441656Y543417D01*
X-2449193Y537941D01*
X-2449193Y537941D01*
X-2449193Y537941D01*
X-2461441Y525693D01*
X-2461441Y525693D01*
X-2461441Y525693D01*
X-2464568Y521389D01*
X-2471623Y511679D01*
X-2479487Y496245D01*
X-2484840Y479770D01*
X-2487550Y462661D01*
X-2926380Y462661D01*
X-2924950Y473527D01*
X-2924950Y496473D01*
X-2927945Y519224D01*
X-2933884Y541389D01*
X-2939931Y555987D01*
X-2942665Y562588D01*
X-2942665Y562588D01*
X-2942666Y562589D01*
X-2954139Y582461D01*
X-2954139Y582462D01*
X-2954139Y582462D01*
X-2966820Y598987D01*
X-2968108Y600666D01*
X-2968108Y600666D01*
X-2968109Y600667D01*
X-2984333Y616891D01*
X-2984334Y616892D01*
X-3002538Y630861D01*
X-3022411Y642334D01*
X-3022412Y642335D01*
X-3043611Y651116D01*
X-3052884Y653600D01*
X-3065776Y657055D01*
X-3069578Y657555D01*
X-3088526Y660050D01*
X-3088527Y660050D01*
X-3111473Y660050D01*
X-3111474Y660050D01*
X-3133128Y657199D01*
X-3134224Y657055D01*
X-3141892Y655000D01*
X-3156389Y651116D01*
X-3177588Y642335D01*
X-3177589Y642334D01*
X-3197462Y630861D01*
X-3215666Y616892D01*
X-3231892Y600666D01*
X-3245861Y582462D01*
X-3257334Y562589D01*
X-3257335Y562588D01*
X-3266116Y541389D01*
X-3272055Y519224D01*
X-3272055Y519223D01*
X-3275050Y496474D01*
X-4547950Y496474D01*
X-4550945Y519224D01*
X-4556884Y541389D01*
X-4562931Y555987D01*
X-4565665Y562588D01*
X-4565665Y562588D01*
X-4565666Y562589D01*
X-4577139Y582461D01*
X-4577139Y582462D01*
X-4577139Y582462D01*
X-4589820Y598987D01*
X-4591108Y600666D01*
X-4591108Y600666D01*
X-4591109Y600667D01*
X-4607333Y616891D01*
X-4607334Y616892D01*
X-4625538Y630861D01*
X-4645411Y642334D01*
X-4645412Y642335D01*
X-4666611Y651116D01*
X-4675884Y653600D01*
X-4688776Y657055D01*
X-4692579Y657555D01*
X-4711526Y660050D01*
X-4711527Y660050D01*
X-4734473Y660050D01*
X-4734474Y660050D01*
X-4756129Y657199D01*
X-4757224Y657055D01*
X-4764893Y655000D01*
X-4779389Y651116D01*
X-4800588Y642335D01*
X-4800589Y642334D01*
X-4820462Y630861D01*
X-4838666Y616892D01*
X-4854892Y600666D01*
X-4868861Y582462D01*
X-4880334Y562589D01*
X-4880335Y562588D01*
X-4889116Y541389D01*
X-4895055Y519224D01*
X-4895055Y519223D01*
X-4898050Y496474D01*
X-4949950Y496474D01*
X-4949950Y1131470D01*
X-4898000Y1131470D01*
X-4898000Y1108531D01*
X-4898000Y1108529D01*
X-4895006Y1085786D01*
X-4889068Y1063627D01*
X-4880290Y1042434D01*
X-4880289Y1042433D01*
X-4868820Y1022568D01*
X-4868820Y1022567D01*
X-4863162Y1015194D01*
X-4786931Y1091425D01*
X-4785033Y1086843D01*
X-4777373Y1075378D01*
X-4767622Y1065627D01*
X-4756157Y1057967D01*
X-4751576Y1056069D01*
X-4827807Y979838D01*
X-4827807Y979838D01*
X-4820433Y974181D01*
X-4800567Y962711D01*
X-4800566Y962710D01*
X-4779373Y953932D01*
X-4757214Y947994D01*
X-4734471Y945000D01*
X-4734469Y945000D01*
X-4711531Y945000D01*
X-4711529Y945000D01*
X-4688786Y947994D01*
X-4666627Y953932D01*
X-4645434Y962710D01*
X-4645433Y962711D01*
X-4625567Y974180D01*
X-4625567Y974181D01*
X-4618194Y979838D01*
X-4694424Y1056069D01*
X-4689843Y1057967D01*
X-4678378Y1065627D01*
X-4668627Y1075378D01*
X-4660967Y1086843D01*
X-4659069Y1091424D01*
X-4582838Y1015194D01*
X-4577181Y1022567D01*
X-4577180Y1022567D01*
X-4565711Y1042433D01*
X-4565710Y1042434D01*
X-4556932Y1063627D01*
X-4550994Y1085786D01*
X-4548000Y1108529D01*
X-4548000Y1108531D01*
X-4548000Y1131470D01*
X-4548001Y1131474D01*
X-3275050Y1131474D01*
X-3275050Y1108526D01*
X-3273263Y1094950D01*
X-3272055Y1085776D01*
X-3268724Y1073347D01*
X-3266116Y1063611D01*
X-3257335Y1042412D01*
X-3257334Y1042411D01*
X-3245877Y1022567D01*
X-3245861Y1022538D01*
X-3231892Y1004334D01*
X-3231891Y1004333D01*
X-3215667Y988109D01*
X-3215666Y988108D01*
X-3215666Y988108D01*
X-3213858Y986721D01*
X-3197462Y974139D01*
X-3197461Y974139D01*
X-3197461Y974139D01*
X-3177589Y962666D01*
X-3177588Y962665D01*
X-3177588Y962665D01*
X-3170763Y959838D01*
X-3156389Y953884D01*
X-3134224Y947945D01*
X-3111473Y944950D01*
X-3111473Y944950D01*
X-3088527Y944950D01*
X-3088527Y944950D01*
X-3065776Y947945D01*
X-3043611Y953884D01*
X-3022411Y962666D01*
X-3002539Y974139D01*
X-2984334Y988108D01*
X-2984333Y988109D01*
X-2984333Y988109D01*
X-2968109Y1004333D01*
X-2968109Y1004333D01*
X-2968108Y1004334D01*
X-2955498Y1020767D01*
X-2954316Y1022308D01*
X-2954219Y1022435D01*
X-2954139Y1022539D01*
X-2942666Y1042411D01*
X-2933884Y1063611D01*
X-2927945Y1085776D01*
X-2924950Y1108527D01*
X-2924950Y1110342D01*
X-2480000Y1110342D01*
X-2480000Y1089658D01*
X-2475965Y1069373D01*
X-2475965Y1069373D01*
X-2468050Y1050264D01*
X-2464862Y1045493D01*
X-2464862Y1045493D01*
X-2415000Y1095356D01*
X-2415000Y1094734D01*
X-2412274Y1084561D01*
X-2407008Y1075439D01*
X-2399561Y1067992D01*
X-2390439Y1062726D01*
X-2380266Y1060000D01*
X-2379645Y1060000D01*
X-2429507Y1010138D01*
X-2429507Y1010138D01*
X-2424737Y1006950D01*
X-2424736Y1006950D01*
X-2405628Y999035D01*
X-2405627Y999035D01*
X-2385342Y995000D01*
X-2385342Y995000D01*
X-2364658Y995000D01*
X-2364658Y995000D01*
X-2344373Y999035D01*
X-2344373Y999035D01*
X-2325263Y1006950D01*
X-2320493Y1010138D01*
X-2320493Y1010138D01*
X-2370355Y1060000D01*
X-2369734Y1060000D01*
X-2359561Y1062726D01*
X-2350439Y1067992D01*
X-2342992Y1075439D01*
X-2337726Y1084561D01*
X-2335000Y1094734D01*
X-2335000Y1095355D01*
X-2285138Y1045493D01*
X-2285138Y1045493D01*
X-2281951Y1050263D01*
X-2274035Y1069373D01*
X-2274035Y1069373D01*
X-2270000Y1089658D01*
X-2270000Y1089658D01*
X-2270000Y1110342D01*
X-2270000Y1110342D01*
X-2274035Y1130627D01*
X-2274035Y1130628D01*
X-2281950Y1149736D01*
X-2281951Y1149737D01*
X-2285138Y1154507D01*
X-2285138Y1154507D01*
X-2335000Y1104645D01*
X-2335000Y1105266D01*
X-2337726Y1115439D01*
X-2342992Y1124561D01*
X-2350439Y1132008D01*
X-2359561Y1137274D01*
X-2369734Y1140000D01*
X-2370355Y1140000D01*
X-2320493Y1189862D01*
X-2320493Y1189862D01*
X-2325264Y1193050D01*
X-2344373Y1200965D01*
X-2344373Y1200965D01*
X-2364658Y1205000D01*
X-2385342Y1205000D01*
X-2405627Y1200965D01*
X-2405628Y1200965D01*
X-2424736Y1193050D01*
X-2424737Y1193050D01*
X-2429507Y1189862D01*
X-2429507Y1189862D01*
X-2379645Y1140000D01*
X-2380266Y1140000D01*
X-2390439Y1137274D01*
X-2399561Y1132008D01*
X-2407008Y1124561D01*
X-2412274Y1115439D01*
X-2415000Y1105266D01*
X-2415000Y1104645D01*
X-2464862Y1154507D01*
X-2464862Y1154507D01*
X-2468050Y1149737D01*
X-2468050Y1149736D01*
X-2475965Y1130628D01*
X-2475965Y1130627D01*
X-2480000Y1110342D01*
X-2924950Y1110342D01*
X-2924950Y1131473D01*
X-2927945Y1154224D01*
X-2933884Y1176389D01*
X-2940405Y1192132D01*
X-2942665Y1197588D01*
X-2942665Y1197588D01*
X-2942666Y1197589D01*
X-2954139Y1217461D01*
X-2954139Y1217462D01*
X-2954139Y1217462D01*
X-2968108Y1235666D01*
X-2968109Y1235667D01*
X-2984333Y1251891D01*
X-2984334Y1251892D01*
X-3002538Y1265861D01*
X-3022411Y1277334D01*
X-3022412Y1277335D01*
X-3043611Y1286116D01*
X-3046734Y1286952D01*
X-3065776Y1292055D01*
X-3069578Y1292555D01*
X-3088526Y1295050D01*
X-3088527Y1295050D01*
X-3111473Y1295050D01*
X-3111474Y1295050D01*
X-3133128Y1292199D01*
X-3134224Y1292055D01*
X-3143592Y1289545D01*
X-3156389Y1286116D01*
X-3177588Y1277335D01*
X-3177589Y1277334D01*
X-3197462Y1265861D01*
X-3215666Y1251892D01*
X-3231892Y1235666D01*
X-3245861Y1217462D01*
X-3257334Y1197589D01*
X-3257335Y1197588D01*
X-3266116Y1176389D01*
X-3267828Y1170000D01*
X-3271554Y1156094D01*
X-3272055Y1154224D01*
X-3272055Y1154223D01*
X-3275050Y1131474D01*
X-4548001Y1131474D01*
X-4550994Y1154214D01*
X-4556932Y1176373D01*
X-4565710Y1197566D01*
X-4565711Y1197567D01*
X-4577181Y1217433D01*
X-4582838Y1224807D01*
X-4582838Y1224807D01*
X-4659069Y1148576D01*
X-4660967Y1153157D01*
X-4668627Y1164622D01*
X-4678378Y1174373D01*
X-4689843Y1182033D01*
X-4694425Y1183931D01*
X-4618194Y1260162D01*
X-4618194Y1260162D01*
X-4625567Y1265820D01*
X-4625568Y1265820D01*
X-4645433Y1277289D01*
X-4645434Y1277290D01*
X-4666627Y1286068D01*
X-4688786Y1292006D01*
X-4711529Y1295000D01*
X-4711531Y1295000D01*
X-4734469Y1295000D01*
X-4734471Y1295000D01*
X-4757214Y1292006D01*
X-4779373Y1286068D01*
X-4800566Y1277290D01*
X-4800567Y1277289D01*
X-4820433Y1265820D01*
X-4820434Y1265819D01*
X-4827807Y1260162D01*
X-4751576Y1183931D01*
X-4756157Y1182033D01*
X-4767622Y1174373D01*
X-4777373Y1164622D01*
X-4785033Y1153157D01*
X-4786931Y1148576D01*
X-4863162Y1224807D01*
X-4868819Y1217434D01*
X-4868820Y1217433D01*
X-4880289Y1197567D01*
X-4880290Y1197566D01*
X-4889068Y1176373D01*
X-4895006Y1154214D01*
X-4898000Y1131471D01*
X-4898000Y1131470D01*
X-4949950Y1131470D01*
X-4949950Y1799557D01*
X-4949918Y1800442D01*
X-4949291Y1809214D01*
X-4948487Y1820456D01*
X-4948235Y1822206D01*
X-4944064Y1841380D01*
X-4943567Y1843075D01*
X-4936709Y1861461D01*
X-4935974Y1863070D01*
X-4930862Y1872433D01*
X-4926571Y1880291D01*
X-4925616Y1881778D01*
X-4913855Y1897488D01*
X-4912698Y1898823D01*
X-4898823Y1912698D01*
X-4897488Y1913855D01*
X-4881778Y1925615D01*
X-4880291Y1926571D01*
X-4863070Y1935974D01*
X-4861462Y1936709D01*
X-4843075Y1943567D01*
X-4841380Y1944064D01*
X-4822206Y1948235D01*
X-4820456Y1948487D01*
X-4800442Y1949918D01*
X-4799557Y1949950D01*
X-4793411Y1949950D01*
X-2218255Y1949950D01*
X-2211551Y1947981D01*
G37*
%TD.AperFunction*%
M02*
