%TF.GenerationSoftware,KiCad,Pcbnew,9.0.4*%
%TF.CreationDate,2026-04-15T22:56:06+03:00*%
%TF.ProjectId,Twilight_Adapter,5477696c-6967-4687-945f-416461707465,rev?*%
%TF.SameCoordinates,PX8f0d180PY6422c40*%
%TF.FileFunction,Soldermask,Top*%
%TF.FilePolarity,Negative*%
%FSLAX45Y45*%
G04 Gerber Fmt 4.5, Leading zero omitted, Abs format (unit mm)*
G04 Created by KiCad (PCBNEW 9.0.4) date 2026-04-15 22:56:06*
%MOMM*%
%LPD*%
G01*
G04 APERTURE LIST*
%ADD10C,3.000000*%
%ADD11R,1.700000X1.700000*%
%ADD12C,1.700000*%
%ADD13R,4.600000X2.000000*%
%ADD14O,4.200000X2.000000*%
%ADD15O,2.000000X4.200000*%
%ADD16C,1.600000*%
%ADD17R,1.800000X1.800000*%
%ADD18C,1.800000*%
%ADD19O,1.300000X1.300000*%
%ADD20C,1.440000*%
%ADD21C,2.200000*%
G04 APERTURE END LIST*
D10*
X-2900000Y-900000D03*
X-4723000Y485000D03*
X-3100000Y485000D03*
X-4723000Y1120000D03*
X-3100000Y1120000D03*
X-4723000Y-150000D03*
X-3100000Y-150000D03*
D11*
X-2377500Y200000D03*
D12*
X-2377500Y454000D03*
D11*
X-2900000Y-1500000D03*
D12*
X-2900000Y-1754000D03*
D13*
X0Y550000D03*
D14*
X0Y1180000D03*
D15*
X-480000Y840000D03*
D10*
X-1325000Y200000D03*
G36*
G01*
X-2045000Y1155000D02*
X-2045000Y1045000D01*
G75*
G02*
X-2070000Y1020000I-25000J0D01*
G01*
X-2180000Y1020000D01*
G75*
G02*
X-2205000Y1045000I0J25000D01*
G01*
X-2205000Y1155000D01*
G75*
G02*
X-2180000Y1180000I25000J0D01*
G01*
X-2070000Y1180000D01*
G75*
G02*
X-2045000Y1155000I0J-25000D01*
G01*
G37*
D16*
X-2375000Y1100000D03*
D17*
X950000Y498000D03*
D18*
X950000Y752000D03*
D19*
X225000Y-500000D03*
X225000Y-700000D03*
X225000Y-900000D03*
X-225000Y-500000D03*
X-225000Y-700000D03*
X-225000Y-900000D03*
D20*
X-1550000Y1700000D03*
X-1550000Y1446000D03*
X-1550000Y1192000D03*
G36*
G01*
X2045000Y1045000D02*
X2045000Y1155000D01*
G75*
G02*
X2070000Y1180000I25000J0D01*
G01*
X2180000Y1180000D01*
G75*
G02*
X2205000Y1155000I0J-25000D01*
G01*
X2205000Y1045000D01*
G75*
G02*
X2180000Y1020000I-25000J0D01*
G01*
X2070000Y1020000D01*
G75*
G02*
X2045000Y1045000I0J25000D01*
G01*
G37*
D16*
X2375000Y1100000D03*
D10*
X2900000Y-900000D03*
D11*
X2900000Y-1500000D03*
D12*
X2900000Y-1754000D03*
D10*
X2125000Y1775000D03*
G36*
G01*
X1465000Y1943000D02*
X1635000Y1943000D01*
G75*
G02*
X1660000Y1918000I0J-25000D01*
G01*
X1660000Y1748000D01*
G75*
G02*
X1635000Y1723000I-25000J0D01*
G01*
X1465000Y1723000D01*
G75*
G02*
X1440000Y1748000I0J25000D01*
G01*
X1440000Y1918000D01*
G75*
G02*
X1465000Y1943000I25000J0D01*
G01*
G37*
D21*
X1550000Y817000D03*
D16*
X-1631000Y700000D03*
X-869000Y700000D03*
G36*
G01*
X895000Y1905000D02*
X1005000Y1905000D01*
G75*
G02*
X1030000Y1880000I0J-25000D01*
G01*
X1030000Y1770000D01*
G75*
G02*
X1005000Y1745000I-25000J0D01*
G01*
X895000Y1745000D01*
G75*
G02*
X870000Y1770000I0J25000D01*
G01*
X870000Y1880000D01*
G75*
G02*
X895000Y1905000I25000J0D01*
G01*
G37*
X950000Y1063000D03*
D10*
X-2125000Y1775000D03*
G36*
G01*
X-1005000Y1905000D02*
X-895000Y1905000D01*
G75*
G02*
X-870000Y1880000I0J-25000D01*
G01*
X-870000Y1770000D01*
G75*
G02*
X-895000Y1745000I-25000J0D01*
G01*
X-1005000Y1745000D01*
G75*
G02*
X-1030000Y1770000I0J25000D01*
G01*
X-1030000Y1880000D01*
G75*
G02*
X-1005000Y1905000I25000J0D01*
G01*
G37*
D16*
X-950000Y1063000D03*
D10*
X3100000Y465000D03*
X4723000Y465000D03*
X3100000Y1100000D03*
X4723000Y1100000D03*
X3100000Y-170000D03*
X4723000Y-170000D03*
D11*
X2379000Y-700000D03*
D12*
X2125000Y-700000D03*
X2379000Y-954000D03*
X2125000Y-954000D03*
X2379000Y-1208000D03*
X2125000Y-1208000D03*
X2379000Y-1462000D03*
X2125000Y-1462000D03*
X2379000Y-1716000D03*
X2125000Y-1716000D03*
D11*
X-2125000Y-700000D03*
D12*
X-2379000Y-700000D03*
X-2125000Y-954000D03*
X-2379000Y-954000D03*
X-2125000Y-1208000D03*
X-2379000Y-1208000D03*
X-2125000Y-1462000D03*
X-2379000Y-1462000D03*
X-2125000Y-1716000D03*
X-2379000Y-1716000D03*
M02*
